<svg width="10" height="10" viewBox="0 0 10 10" fill="none" xmlns="http://www.w3.org/2000/svg">
<path d="M2.57438 2.5L7.42508 2.5C7.82507 2.5 8.02528 2.5 8.14363 2.5667C8.24692 2.62492 8.31473 2.71465 8.33095 2.81427C8.34952 2.92837 8.25534 3.06831 8.06724 3.34779L5.64189 6.9515L5.64116 6.9528C5.43329 7.26166 5.32931 7.41616 5.19072 7.46684C5.06982 7.51105 4.93026 7.51105 4.80936 7.46684C4.67058 7.41609 4.56617 7.26123 4.35772 6.95149L1.93237 3.34779C1.74414 3.06811 1.65032 2.92841 1.6689 2.81427C1.68511 2.71465 1.75291 2.62492 1.85621 2.5667C1.97455 2.5 2.1744 2.5 2.57438 2.5Z" fill="#191F28" stroke="#191F28" stroke-width="0.833333" stroke-linecap="round" stroke-linejoin="round"/>
</svg>
