<svg width="80" height="53" viewBox="0 0 80 53" fill="none" xmlns="http://www.w3.org/2000/svg">
<path d="M40 52.5C62.0914 52.5 80 48.0228 80 42.5C80 36.9772 62.0914 32.5 40 32.5C17.9086 32.5 0 36.9772 0 42.5C0 48.0228 17.9086 52.5 40 52.5Z" fill="#F6F8FB"/>
<path d="M28.5678 2.69867L28.5747 2.70725L28.582 2.71551L32.6823 7.36148C33.2275 8.02975 34.0349 8.42289 34.8922 8.42289H61.2141C62.237 8.42289 63.0929 9.28387 63.0929 10.3801V42.0442C63.0929 43.1401 62.2374 44 61.2141 44H18.3788C17.3559 44 16.5 43.139 16.5 42.0428V3.95723C16.5 2.86098 17.3559 2 18.3788 2H27.1285C27.6809 2 28.2087 2.25369 28.5678 2.69867Z" fill="white" stroke="#E5E8EB"/>
<path d="M24.3031 16.8921L24.3032 16.8919C24.5168 16.1829 25.2428 15.6503 26.119 15.6503H68.7742C70.0753 15.6503 70.8939 16.7537 70.5901 17.7604L71.0688 17.9048L70.5901 17.7604L63.0486 42.7568L63.0486 42.7569C62.8349 43.4659 62.1089 43.9985 61.2327 43.9985H18.576C17.275 43.9985 16.4564 42.8951 16.7602 41.8884L24.3031 16.8921Z" fill="#F1F3F5" stroke="#E5E8EB"/>
</svg>
