<svg width="80" height="52" viewBox="0 0 80 52" fill="none" xmlns="http://www.w3.org/2000/svg">
<g clip-path="url(#clip0_13_2972)">
<path d="M40 52C62.0914 52 80 47.5228 80 42C80 36.4772 62.0914 32 40 32C17.9086 32 0 36.4772 0 42C0 47.5228 17.9086 52 40 52Z" fill="#F6F8FB"/>
<path d="M68.75 16.8316L56.0675 2.56083C55.4587 1.5881 54.57 1 53.6337 1H26.3662C25.43 1 24.5412 1.5881 23.9325 2.55959L11.25 16.8328V28.2959H68.75V16.8316Z" fill="white" stroke="#E5E8EB" stroke-width="1.25"/>
<path d="M52.0162 20.7659C52.0162 18.7746 53.2587 17.1306 54.8 17.1294H68.75V39.6323C68.75 42.2664 67.1 44.4252 65.0625 44.4252H14.9375C12.9 44.4252 11.25 42.2651 11.25 39.6323V17.1294H25.2C26.7412 17.1294 27.9837 18.7709 27.9837 20.7622V20.7895C27.9837 22.7809 29.24 24.3888 30.78 24.3888H49.22C50.76 24.3888 52.0162 22.766 52.0162 20.7746V20.7659Z" fill="#F1F3F5" stroke="#E5E8EB" stroke-width="1.25"/>
</g>
<defs>
<clipPath id="clip0_13_2972">
<rect width="80" height="52" fill="white"/>
</clipPath>
</defs>
</svg>
