<svg width="32" height="32" viewBox="0 0 32 32" fill="none" xmlns="http://www.w3.org/2000/svg">
<g clip-path="url(#clip0_8_3916)">
<path d="M0.47241 12.1574C2.59445 3.57928 11.2682 -1.65007 19.843 0.47278C28.4203 2.59482 33.6497 11.2661 31.5277 19.8426C29.4056 28.4191 20.7335 33.6501 12.1562 31.5272C3.58134 29.406 -1.65125 20.7331 0.47241 12.1574Z" fill="#E91E03"/>
<path d="M17.0137 15.4859L16.2658 16.3893L15.1768 15.9542L15.7999 16.9452L15.052 17.8461L16.1896 17.5569L16.816 18.5478L16.8897 17.377L18.0273 17.0878L16.9383 16.6543L17.0145 15.4851L17.0137 15.4859ZM21.3501 13.0268H20.1769L19.8179 11.9111L19.4541 13.0268H18.2833L19.2297 13.7139L18.8659 14.8288L19.8147 14.1409L20.7611 14.8304L20.3997 13.7147L21.3485 13.0276L21.3501 13.0268ZM19.442 8.73489L19.6202 9.89274L20.1574 8.84833L21.3128 9.03549L20.4856 8.2058L21.0195 7.1622L19.9735 7.69291L19.1487 6.86321L19.3269 8.01944L18.2833 8.54853L19.4412 8.73408L19.442 8.73489ZM17.0218 3.36861L16.2739 4.27204L15.1874 3.83936L15.8113 4.82787L15.0634 5.72968L16.1986 5.43961L16.8249 6.43054L16.901 5.25973L18.0362 4.97128L16.9497 4.53861L17.0234 3.3678L17.0218 3.36861ZM8.84311 8.5218L7.7436 5.13738L6.64166 8.5218H3.08142L5.96186 10.6163L4.86235 14.0031L7.74279 11.9086L10.6208 14.0031L9.52129 10.6163L12.4017 8.5218H8.84149H8.84311Z" fill="#FFD600"/>
</g>
<defs>
<clipPath id="clip0_8_3916">
<rect width="32" height="31.9992" fill="white" transform="translate(0 0.000404358)"/>
</clipPath>
</defs>
</svg>
