<svg width="32" height="32" viewBox="0 0 32 32" fill="none" xmlns="http://www.w3.org/2000/svg">
<g clip-path="url(#clip0_8_3987)">
<path d="M0.47241 12.1574C2.59445 3.57933 11.2682 -1.65002 19.8431 0.472833C28.4204 2.59488 33.6497 11.2662 31.5277 19.8427C29.4048 28.4191 20.7335 33.6501 12.1562 31.5273C3.58134 29.406 -1.65125 20.7331 0.47241 12.1574Z" fill="#F7F8F8"/>
<path d="M30.7952 9.91629H18.4024V12.3657H31.5819C31.3858 11.5263 31.1209 10.7079 30.7952 9.91629ZM27.632 5.0159H18.4024V7.46772H29.5304C28.9794 6.59346 28.3434 5.77187 27.632 5.0159ZM4.44666 27.0652H27.5558C28.2712 26.3198 28.9178 25.5006 29.4826 24.6158H2.52313C3.0822 25.4901 3.72635 26.3109 4.44666 27.0652ZM19.843 0.472024C19.3625 0.352918 18.8821 0.258929 18.4024 0.185196V2.56652H24.6924C23.242 1.62825 21.6142 0.910369 19.843 0.472024ZM31.9554 14.8143H18.4024V17.2661H31.9465C32.013 16.4412 32.0146 15.6221 31.9554 14.8143ZM1.23969 22.1673H30.7619C31.0715 21.4243 31.3283 20.648 31.5276 19.8427C31.5382 19.8005 31.5471 19.7584 31.5576 19.7155H0.438354C0.640107 20.5557 0.908299 21.3757 1.23969 22.1665M12.157 31.5265C13.1034 31.7606 14.0514 31.9048 14.9912 31.9656H17.0274C19.7344 31.7922 22.32 30.9309 24.5571 29.5146H7.43567C8.85361 30.4124 10.4376 31.1019 12.157 31.5265Z" fill="#E72D14"/>
<path d="M17.1902 16.3683L16.8451 16.1163L16.4983 16.3683L16.6303 15.9624L16.2852 15.7104H16.7122L16.8451 15.3044L16.9755 15.7104H17.4033L17.0582 15.9624L17.1902 16.3683ZM15.4911 3.47643L15.6224 3.88479L15.2772 3.6328L14.9313 3.88479L15.0641 3.47643L14.7182 3.22687H15.1452L15.278 2.8185L15.4101 3.22687H15.8379L15.4919 3.47643H15.4911ZM15.4911 7.15982L15.6224 7.56575L15.2772 7.31377L14.9313 7.56575L15.0641 7.15982L14.7182 6.90783H15.1452L15.278 6.5019L15.4101 6.90783H15.8379L15.4919 7.15982H15.4911ZM15.4595 10.7679L15.5916 11.1738L15.2456 10.9218L14.9005 11.1738L15.0325 10.7679L14.6857 10.5159H15.1136L15.2456 10.1099L15.3769 10.5159H15.8047L15.4595 10.7679ZM15.56 14.7405L15.214 14.4885L14.8689 14.7405L15.0001 14.3346L14.6541 14.0826H15.082L15.214 13.6767L15.3453 14.0826H15.7731L15.4271 14.3346L15.56 14.7405ZM13.8593 5.26059L13.9922 5.66653L13.647 5.41697L13.2994 5.66653L13.4323 5.26059L13.0871 5.00861H13.5141L13.647 4.60267L13.7775 5.00861H14.2045L13.8593 5.26059ZM13.8593 8.82974L13.9922 9.23568L13.647 8.98369L13.2994 9.23568L13.4323 8.82974L13.0871 8.57776H13.5141L13.647 8.17182L13.7775 8.57776H14.2045L13.8593 8.82974ZM13.8593 12.4775L13.9922 12.8859L13.647 12.6339L13.2994 12.8859L13.4323 12.4775L13.0871 12.2279H13.5141L13.647 11.8196L13.7775 12.2279H14.2045L13.8593 12.4775ZM13.9922 16.3683L13.647 16.1163L13.2994 16.3683L13.4323 15.9624L13.0871 15.7104H13.5141L13.647 15.3044L13.7775 15.7104H14.2045L13.8593 15.9624L13.9922 16.3683ZM12.2915 3.47643L12.4243 3.88479L12.0784 3.6328L11.7316 3.88479L11.8645 3.47643L11.5193 3.22687H11.9463L12.0784 2.8185L12.2104 3.22687H12.6382L12.2923 3.47643H12.2915ZM12.2915 7.15982L12.4243 7.56575L12.0784 7.31377L11.7316 7.56575L11.8645 7.15982L11.5193 6.90783H11.9463L12.0784 6.5019L12.2104 6.90783H12.6382L12.2923 7.15982H12.2915ZM12.2607 10.7679L12.3927 11.1738L12.046 10.9218L11.7008 11.1738L11.8329 10.7679L11.4869 10.5159H11.9139L12.0468 10.1099L12.1788 10.5159H12.6066L12.2615 10.7679H12.2607ZM12.3603 14.7405L12.0152 14.4885L11.6692 14.7405L11.8004 14.3346L11.4553 14.0826H11.8823L12.0152 13.6767L12.1472 14.0826H12.5742L12.2291 14.3346L12.3611 14.7405H12.3603ZM10.6612 1.69469L10.7933 2.10062L10.4481 1.84863L10.1014 2.10062L10.2334 1.69469L9.88826 1.4427H10.3161L10.4481 1.03676L10.5802 1.4427H11.008L10.662 1.69469H10.6612ZM10.6612 5.2614L10.7933 5.66734L10.4481 5.41778L10.1014 5.66734L10.2334 5.2614L9.88826 5.00942H10.3161L10.4481 4.60348L10.5802 5.00942H11.008L10.662 5.2614H10.6612ZM10.6612 8.83055L10.7933 9.23649L10.4481 8.9845L10.1014 9.23649L10.2334 8.83055L9.88826 8.57857H10.3161L10.4481 8.17263L10.5802 8.57857H11.008L10.662 8.83055H10.6612ZM10.6612 12.4783L10.7933 12.8867L10.4481 12.6347L10.1014 12.8867L10.2334 12.4783L9.88826 12.2287H10.3161L10.4481 11.8204L10.5802 12.2287H11.008L10.662 12.4783H10.6612ZM10.7933 16.3691L10.4481 16.1171L10.1014 16.3691L10.2334 15.9632L9.88826 15.7112H10.3161L10.4481 15.3053L10.5802 15.7112H11.008L10.662 15.9632L10.7941 16.3691H10.7933ZM9.09421 3.34922L9.22709 3.75758L8.8795 3.50559L8.53433 3.75758L8.66721 3.34922L8.32123 3.09966H8.74824L8.88031 2.69372L9.01319 3.09966H9.44019L9.09502 3.34922H9.09421ZM9.09421 7.0318L9.22709 7.43774L8.8795 7.18818L8.53433 7.43774L8.66721 7.0318L8.32123 6.77981H8.74824L8.88031 6.37388L9.01319 6.77981H9.44019L9.09502 7.0318H9.09421ZM9.0618 10.6407L9.19468 11.0466L8.84952 10.7946L8.50192 11.0466L8.6348 10.6407L8.28963 10.3887H8.71664L8.84952 9.98273L8.97997 10.3887H9.40778L9.0618 10.6407ZM9.16308 14.6157L8.81711 14.3637L8.47194 14.6157L8.60401 14.2074L8.25723 13.9578H8.68423L8.81711 13.5519L8.94918 13.9578H9.37699L9.03182 14.2074L9.16389 14.6157H9.16308ZM7.46399 5.26222L7.59687 5.66815L7.2517 5.41859L6.90411 5.66815L7.03699 5.26222L6.69182 5.01023H7.1172L7.25089 4.60429L7.38134 5.01023H7.80835L7.46318 5.26222H7.46399ZM7.46399 8.83136L7.59687 9.2373L7.2517 8.98531L6.90411 9.2373L7.03699 8.83136L6.69182 8.57938H7.1172L7.25089 8.17344L7.38134 8.57938H7.80835L7.46318 8.83136H7.46399ZM7.46399 12.4791L7.59687 12.8875L7.2517 12.6355L6.90411 12.8875L7.03699 12.4791L6.69182 12.2296H7.1172L7.25089 11.8212L7.38134 12.2296H7.80835L7.46318 12.4791H7.46399ZM7.59687 16.3699L7.2517 16.1179L6.90411 16.3699L7.03699 15.964L6.69182 15.712H7.1172L7.25089 15.3061L7.38134 15.712H7.80835L7.46318 15.964L7.59606 16.3699H7.59687ZM5.89616 6.99777L6.02823 7.4037L5.68306 7.15172L5.33627 7.4037L5.46916 6.99777L5.12318 6.74578H5.55099L5.68306 6.33985L5.81432 6.74578H6.24294L5.89697 6.99777H5.89616ZM5.86456 10.6066L5.99663 11.0126L5.65146 10.7606L5.30467 11.0126L5.43675 10.6066L5.09158 10.3546H5.51858L5.65146 9.9487L5.78191 10.3546H6.20972L5.86456 10.6066ZM5.96341 14.5793L5.61824 14.3273L5.27308 14.5793L5.40434 14.1733L5.05755 13.9214H5.48536L5.61743 13.5154L5.75031 13.9214H6.17731L5.83053 14.1733L5.9626 14.5793H5.96341ZM13.5133 1.4427L13.6462 1.03676L13.7766 1.4427H14.2036L13.8585 1.69469L13.9914 2.10062L13.6462 1.84863L13.2986 2.10062L13.4315 1.69469L13.0863 1.4427H13.5133ZM16.7114 12.2287L16.8443 11.8204L16.9747 12.2287H17.4025L17.0573 12.4783L17.1894 12.8867L16.8443 12.6347L16.4975 12.8867L16.6295 12.4783L16.2844 12.2287H16.7114ZM16.7114 8.57857L16.8443 8.17263L16.9747 8.57857H17.4025L17.0573 8.83055L17.1894 9.23649L16.8443 8.9845L16.4975 9.23649L16.6295 8.83055L16.2844 8.57857H16.7114ZM16.7114 5.00942L16.8443 4.60348L16.9747 5.00942H17.4025L17.0573 5.2614L17.1894 5.66734L16.8443 5.41778L16.4975 5.66734L16.6295 5.2614L16.2844 5.00942H16.7114ZM16.7114 1.4427L16.8443 1.03676L16.9747 1.4427H17.4025L17.0573 1.69469L17.1894 2.10062L16.8443 1.84863L16.4975 2.10062L16.6295 1.69469L16.2844 1.4427H16.7114ZM4.26512 8.82974L4.3972 9.23568L4.05122 8.98369L3.70605 9.23568L3.83812 8.82974L3.49215 8.57776H3.91915L4.05203 8.17182L4.1841 8.57776H4.61191L4.26593 8.82974H4.26512ZM4.26512 12.4775L4.3972 12.8859L4.05122 12.6339L3.70605 12.8859L3.83812 12.4775L3.49215 12.2279H3.91915L4.05203 11.8196L4.1841 12.2279H4.61191L4.26593 12.4775H4.26512ZM4.3972 16.3683L4.05122 16.1163L3.70605 16.3683L3.83812 15.9624L3.49134 15.7104H3.91834L4.05122 15.3044L4.18329 15.7104H4.61191L4.26593 15.9624L4.39801 16.3683H4.3972ZM2.66488 10.5418L2.79776 10.9477L2.45179 10.6957L2.10662 10.9477L2.23869 10.5418L1.89271 10.2898H2.32053L2.45179 9.88388L2.58467 10.2898H3.01167L2.66569 10.5418H2.66488ZM2.76616 14.5145L2.421 14.2625L2.0734 14.5145L2.20628 14.1085L1.86111 13.8565H2.28812L2.421 13.4506L2.55145 13.8565H2.98007L2.63328 14.1085L2.76616 14.5145ZM1.19914 16.3691L0.853973 16.1171L0.507997 16.3691L0.640067 15.9632L0.294901 15.7112H0.722713L0.854784 15.3053L0.987665 15.7112H1.41305L1.06788 15.9632L1.19995 16.3691H1.19914ZM18.4024 0.185191C18.2452 0.160884 17.0792 0.0328646 16.922 0.0142288L14.0465 0.120372C11.0655 0.487415 8.27019 1.68982 5.96827 3.54043L6.02742 3.72193L5.87752 3.61255C5.34843 4.04441 4.84607 4.51111 4.37451 5.00942H4.61029L4.26431 5.2614L4.39638 5.66734L4.05041 5.41778L3.91267 5.51744C3.59019 5.88935 3.28391 6.27665 2.99546 6.67934H3.04327L2.9428 6.75226C2.87312 6.85111 2.80343 6.95077 2.73618 7.05125L2.82855 7.33726L2.63814 7.19952C1.66503 8.67742 0.921224 10.3417 0.472346 12.1566C0.466674 12.1801 0.461002 12.2044 0.45533 12.2279H0.720282L0.852353 11.8196L0.985234 12.2279H1.41061L1.06545 12.4775L1.19752 12.8859L0.852353 12.6339L0.506376 12.8859L0.638447 12.4775L0.432644 12.3284C0.0388622 13.9959 -0.078624 15.665 0.0518262 17.2871H18.4024V0.185191Z" fill="#073470"/>
</g>
<defs>
<clipPath id="clip0_8_3987">
<rect width="32" height="31.9992" fill="white" transform="translate(0 0.000411987)"/>
</clipPath>
</defs>
</svg>
