<svg width="32" height="32" viewBox="0 0 32 32" fill="none" xmlns="http://www.w3.org/2000/svg">
<g clip-path="url(#clip0_8_4022)">
<path d="M0.47241 12.1574C2.59445 3.57933 11.2674 -1.65002 19.8431 0.472833C28.4204 2.59488 33.6497 11.2662 31.5277 19.8427C29.4056 28.4191 20.7335 33.6501 12.1562 31.5273C3.58134 29.406 -1.65125 20.7331 0.47241 12.1574Z" fill="#1032C5"/>
<path d="M5.79576 21.7054L5.38496 20.4455L4.97659 21.7079H3.65264L4.72461 22.4865L4.31624 23.7432L5.38739 22.9646L6.45935 23.7432L6.04855 22.4833L7.11727 21.7046H5.79576V21.7054ZM3.78715 17.0457L4.86154 17.8219L4.44831 16.5652L5.51703 15.7833L4.19308 15.7857L3.77985 14.529L3.37473 15.789L2.05078 15.7947L3.12517 16.5684L2.71924 17.8276L3.78796 17.0465L3.78715 17.0457ZM22.4812 26.255L22.0753 24.995L21.6621 26.2517L20.3405 26.2461L21.4093 27.0271L20.9936 28.2871L22.068 27.5109L23.1367 28.2927L22.7316 27.0336L23.806 26.2574L22.482 26.255H22.4812ZM10.3129 26.285L9.90453 25.0283L9.49617 26.2874L8.17222 26.2898L9.24418 27.066L8.83824 28.326L9.90696 27.5449L10.9781 28.3211L10.5673 27.0644L11.636 26.2858H10.3121L10.3129 26.285ZM16.4975 27.9176L16.0867 26.6609L15.6784 27.9233H14.3569L15.4256 28.7019L15.0229 29.9586L16.0916 29.18L17.166 29.9538L16.7528 28.6971L17.819 27.9184H16.4975V27.9176ZM26.9903 21.7143L26.5795 20.4576L26.1711 21.7143L24.8472 21.7168L25.9215 22.493L25.5132 23.7529L26.5819 22.9743L27.6539 23.7505L27.2431 22.4938L28.315 21.7127L26.9911 21.7151L26.9903 21.7143ZM29.9153 15.7687L28.5913 15.7631L28.1886 14.5031L27.7722 15.7598L26.4482 15.7541L27.5169 16.5352L27.1037 17.7919L28.1773 17.0181L29.246 17.8025L28.8409 16.5401L29.9153 15.7671V15.7687ZM25.4119 11.6113L26.4806 10.8327L27.5526 11.6113L27.1418 10.3546L28.2129 9.57274L26.889 9.57518L26.4782 8.31281L26.0698 9.57518H24.7459L25.8203 10.3538L25.4119 11.6105V11.6113ZM22.1466 3.91963L21.7407 5.17633L20.4167 5.17876L21.4911 5.95498L21.0827 7.21492L22.1515 6.4387L23.2226 7.21249L22.8118 5.95579L23.8805 5.17471L22.559 5.17714L22.1458 3.92044L22.1466 3.91963ZM4.22144 11.7061L5.29016 10.9275L6.36131 11.7037L5.95051 10.4438L7.02166 9.66511H5.69772L5.28692 8.40842L4.87855 9.66754L3.5546 9.66997L4.62575 10.4462L4.21982 11.7061H4.22144ZM8.73615 7.19466L9.8073 6.41601L10.876 7.19223L10.4677 5.93229L11.5364 5.15364H10.2149L9.80406 3.89695L9.39569 5.15608H8.07175L9.14371 5.93229L8.73534 7.19466H8.73615ZM14.9103 5.54581L15.9822 4.76716L17.0534 5.54581L16.645 4.28587L17.7137 3.50965H16.3898L15.9814 2.24971L15.573 3.50965H14.2491L15.3178 4.28587L14.9094 5.54581H14.9103Z" fill="#FFD700"/>
</g>
<defs>
<clipPath id="clip0_8_4022">
<rect width="32" height="31.9992" fill="white" transform="translate(0 0.000411987)"/>
</clipPath>
</defs>
</svg>
