<svg width="32" height="32" viewBox="0 0 32 32" fill="none" xmlns="http://www.w3.org/2000/svg">
<mask id="mask0_8_4003" style="mask-type:luminance" maskUnits="userSpaceOnUse" x="0" y="0" width="32" height="32">
<path d="M15.9865 0.000534058C8.80526 0.000534058 2.27549 4.87091 0.472699 12.1566C-1.65095 20.7331 3.5808 29.4059 12.1564 31.5271C20.7337 33.65 29.4049 28.419 31.5278 19.8426C33.6498 11.2662 28.4205 2.59412 19.8432 0.472906C18.5525 0.15367 17.2602 0.000534058 15.9873 0.000534058H15.9865Z" fill="white"/>
</mask>
<g mask="url(#mask0_8_4003)">
<path d="M33.6498 0.000549316H-1.651V33.65H33.6498V0.000549316Z" fill="url(#paint0_radial_8_4003)"/>
</g>
<path d="M0.472699 12.1575C2.59473 3.57941 11.2676 -1.6499 19.8432 0.472937C28.4205 2.59497 33.6498 11.2662 31.5278 19.8426C29.4049 28.4191 20.7337 33.65 12.1564 31.5272C3.5808 29.4051 -1.65095 20.7331 0.472699 12.1575Z" fill="#073470"/>
<path d="M27.3478 4.72188L20.9152 9.00969V0.778424C20.5644 0.6658 20.2071 0.562899 19.8433 0.472962C16.8251 -0.274083 13.7956 -0.109604 11.0432 0.790577V9.01131L4.63579 4.74052C3.16843 6.2184 1.97656 7.9977 1.16632 10.0128L2.86297 11.1439H0.760385C0.655053 11.4761 0.557824 11.8139 0.472748 12.1575C-0.27997 15.1967 -0.108198 18.2481 0.809 21.0159H2.90511L1.22628 22.1348C2.04057 24.0908 3.23731 25.8741 4.7476 27.3714L11.0432 23.1752V31.2079C11.4078 31.3262 11.7789 31.4332 12.1573 31.5264C15.1601 32.2702 18.1742 32.1106 20.9152 31.2225V23.1744L27.236 27.3868C28.7203 25.9252 29.9333 24.1596 30.7662 22.1559L29.0525 21.0135H31.19C31.3164 20.6302 31.429 20.2389 31.5278 19.8402C32.2652 16.8593 32.1136 13.8663 31.2434 11.1414H29.0955L30.8254 9.98847C30.0273 8.02443 28.8459 6.22974 27.3478 4.71945" fill="#F5F3EE"/>
<path d="M8.58241 11.1438L2.6425 7.1931C2.2471 7.79268 1.88978 8.42224 1.57459 9.08097L4.6754 11.1438H8.58241ZM29.3328 7.16231C28.9342 6.55949 28.4934 5.98421 28.0153 5.43892L20.9152 10.161V11.1447H23.3467L29.3328 7.16312V7.16231ZM2.68625 24.8669C3.08651 25.4681 3.5281 26.0426 4.00695 26.5863L11.0423 21.9071V21.015H8.47789L2.68625 24.8669ZM31.7522 13.1994H18.8588V0.262271C16.9044 -0.0942362 14.9582 -0.0788415 13.0987 0.265512V13.1994H0.251463C-0.0985627 15.1537 -0.0750654 17.0991 0.275771 18.957H13.0987V31.7297C15.053 32.0919 16.9992 32.0814 18.8588 31.7419V18.957H31.7198C32.0892 17.0043 32.0836 15.0589 31.7522 13.1994ZM23.4836 21.0159L29.3044 24.8872C29.7031 24.2901 30.0636 23.6621 30.3829 23.0058L27.3906 21.0159H23.4836Z" fill="#E72D14"/>
<path d="M20.9152 2.44342V3.48053C20.9784 3.28364 21.0108 3.09729 21.0116 2.92228C21.0116 2.7505 20.9808 2.59008 20.9152 2.44261" fill="#243966"/>
<defs>
<radialGradient id="paint0_radial_8_4003" cx="0" cy="0" r="1" gradientUnits="userSpaceOnUse" gradientTransform="translate(15.414 15.6452) scale(15.9999 15.9999)">
<stop stop-color="white"/>
<stop offset="0.78" stop-color="white"/>
<stop offset="0.82" stop-color="#F9F8F7"/>
<stop offset="0.89" stop-color="#E9E6E3"/>
<stop offset="0.96" stop-color="#CFC9C1"/>
<stop offset="1" stop-color="#C2BAB0"/>
</radialGradient>
</defs>
</svg>
