<svg width="16" height="16" viewBox="0 0 16 16" fill="none" xmlns="http://www.w3.org/2000/svg">
<path fill-rule="evenodd" clip-rule="evenodd" d="M8.66502 1.99996C8.66502 1.63269 8.36729 1.33496 8.00002 1.33496C7.63275 1.33496 7.33502 1.63269 7.33502 1.99996V7.33472H2.00008C1.63281 7.33472 1.33508 7.63245 1.33508 7.99972C1.33508 8.36699 1.63281 8.66472 2.00008 8.66472H7.33502V14C7.33502 14.3672 7.63275 14.665 8.00002 14.665C8.36729 14.665 8.66502 14.3672 8.66502 14V8.66472H14.0001C14.3674 8.66472 14.6651 8.36699 14.6651 7.99972C14.6651 7.63245 14.3674 7.33472 14.0001 7.33472H8.66502V1.99996Z" fill="#47515F"/>
</svg>
