<svg width="20" height="20" viewBox="0 0 20 20" fill="none" xmlns="http://www.w3.org/2000/svg">
<g id="icon/20/excel">
<path id="Vector" d="M8.33329 14.1666L9.99995 12.5M9.99995 12.5L11.6666 10.8333M9.99995 12.5L8.33329 10.8333M9.99995 12.5L11.6666 14.1666M10.8333 2.50072C10.7537 2.5 10.6644 2.5 10.5622 2.5H6.83346C5.90003 2.5 5.43298 2.5 5.07646 2.68166C4.76285 2.84144 4.50807 3.09623 4.34828 3.40983C4.16663 3.76635 4.16663 4.23341 4.16663 5.16683V14.8335C4.16663 15.7669 4.16663 16.2334 4.34828 16.5899C4.50807 16.9035 4.76285 17.1587 5.07646 17.3185C5.43263 17.5 5.89913 17.5 6.83074 17.5L13.1692 17.5C14.1008 17.5 14.5666 17.5 14.9228 17.3185C15.2364 17.1587 15.492 16.9035 15.6518 16.5899C15.8333 16.2337 15.8333 15.7679 15.8333 14.8363V7.7714C15.8333 7.66913 15.8333 7.57967 15.8325 7.5M10.8333 2.50072C11.0713 2.50289 11.2219 2.51154 11.3657 2.54605C11.5357 2.58688 11.6982 2.65439 11.8473 2.74577C12.0154 2.8488 12.1598 2.99318 12.4479 3.28125L15.0524 5.88582C15.3407 6.17407 15.484 6.3178 15.5871 6.48599C15.6785 6.63512 15.7461 6.79771 15.7869 6.96777C15.8214 7.11147 15.8302 7.26209 15.8325 7.5M10.8333 2.50072V4.83333C10.8333 5.76675 10.8333 6.23314 11.0149 6.58966C11.1747 6.90326 11.4295 7.15873 11.7431 7.31852C12.0993 7.5 12.5658 7.5 13.4974 7.5H15.8325M15.8325 7.5H15.8335" stroke="white" stroke-width="1.66667" stroke-linecap="round" stroke-linejoin="round"/>
</g>
</svg>
