<svg width="20" height="20" viewBox="0 0 20 20" fill="none" xmlns="http://www.w3.org/2000/svg">
<g id="icon/20/drag_eraser">
<path id="Icon" d="M6.66667 2.5H5.16667C4.23325 2.5 3.76654 2.5 3.41002 2.68166C3.09641 2.84144 2.84144 3.09641 2.68166 3.41002C2.5 3.76654 2.5 4.23325 2.5 5.16667V6.66667M6.66667 17.5H5.16667C4.23325 17.5 3.76654 17.5 3.41002 17.3183C3.09641 17.1586 2.84144 16.9036 2.68166 16.59C2.5 16.2335 2.5 15.7668 2.5 14.8333V13.3333M17.5 6.66667V5.16667C17.5 4.23325 17.5 3.76654 17.3183 3.41002C17.1586 3.09641 16.9036 2.84144 16.59 2.68166C16.2335 2.5 15.7668 2.5 14.8333 2.5H13.3333M17.5 13.3333V14.8333C17.5 15.7668 17.5 16.2335 17.3183 16.59C17.1586 16.9036 16.9036 17.1586 16.59 17.3183C16.2335 17.5 15.7668 17.5 14.8333 17.5H13.3333" stroke="#47515F" stroke-width="1.66667" stroke-linecap="round" stroke-linejoin="round"/>
<path id="Icon_2" d="M10 13.9582C7.81391 13.9582 6.04171 12.186 6.04171 9.99984C6.04171 7.81371 7.81391 6.0415 10 6.0415C12.1862 6.0415 13.9584 7.81371 13.9584 9.99984C13.9584 12.186 12.1862 13.9582 10 13.9582Z" stroke="#47515F" stroke-width="1.66667" stroke-linecap="round" stroke-linejoin="round" stroke-dasharray="1.25 2.25"/>
</g>
</svg>
