<svg width="21" height="20" viewBox="0 0 21 20" fill="none" xmlns="http://www.w3.org/2000/svg">
<g id="icon/20/delete">
<path id="Vector" d="M2.51892 4.63074H18.4756" stroke="#191F28" stroke-width="1.66667" stroke-linecap="round"/>
<path id="Vector_2" d="M7.72583 4.45377V1.67676H13.2798V4.45377" stroke="#5A6574" stroke-width="1.66667" stroke-linecap="round" stroke-linejoin="round"/>
<path id="Vector_3" d="M8.54358 8.3717V13.9242" stroke="#5A6574" stroke-width="1.66667" stroke-linecap="round" stroke-linejoin="round"/>
<path id="Vector_4" d="M12.4634 8.3717V13.9242" stroke="#5A6574" stroke-width="1.66667" stroke-linecap="round" stroke-linejoin="round"/>
<path id="Vector_5" d="M3.9879 4.65991H16.9718C17.0547 4.65991 17.1341 4.69282 17.1927 4.75139C17.2513 4.80996 17.2842 4.8894 17.2842 4.97224V17.9872C17.2842 18.0609 17.255 18.1315 17.2029 18.1835C17.1508 18.2356 17.0802 18.2649 17.0065 18.2649H3.95458C3.88093 18.2649 3.8103 18.2356 3.75822 18.1835C3.70614 18.1315 3.67688 18.0609 3.67688 17.9872V4.97224C3.67688 4.8894 3.70979 4.80996 3.76838 4.75139C3.82697 4.69282 3.90644 4.65991 3.98929 4.65991H3.9879Z" stroke="#5A6574" stroke-width="1.66667" stroke-linecap="round"/>
</g>
</svg>
