<svg width="13" height="13" viewBox="0 0 13 13" fill="none" xmlns="http://www.w3.org/2000/svg">
<g id="icon/12/emergency-fill">
<path id="Vector" d="M6.50329 10.9815H1.65413C1.62475 10.9817 1.59582 10.9742 1.57027 10.9597C1.54472 10.9452 1.52347 10.9242 1.50867 10.8988C1.49386 10.8734 1.48603 10.8446 1.48596 10.8152C1.4859 10.7858 1.4936 10.7569 1.50829 10.7315L3.93746 6.34729L6.35413 1.97563C6.36854 1.94958 6.38967 1.92786 6.41532 1.91274C6.44096 1.89762 6.47019 1.88965 6.49996 1.88965C6.52973 1.88965 6.55896 1.89762 6.58461 1.91274C6.61025 1.92786 6.63138 1.94958 6.64579 1.97563L9.06246 6.34729L11.4916 10.734C11.5063 10.7594 11.514 10.7883 11.514 10.8177C11.5139 10.8471 11.5061 10.8759 11.4913 10.9013C11.4765 10.9267 11.4552 10.9477 11.4297 10.9622C11.4041 10.9767 11.3752 10.9842 11.3458 10.984L6.50329 10.9815Z" fill="#FEA218" stroke="#FEA218" stroke-width="0.916667" stroke-linecap="square"/>
<line id="Line 85" x1="6.55002" y1="4.7998" x2="6.55002" y2="7.7998" stroke="white" stroke-width="1.3"/>
<line id="Line 86" x1="6.55002" y1="8.75" x2="6.55002" y2="10.05" stroke="white" stroke-width="1.3"/>
</g>
</svg>
