<svg width="21" height="20" viewBox="0 0 21 20" fill="none" xmlns="http://www.w3.org/2000/svg">
<g id="icon/16/plus-black">
<path id="Union" fill-rule="evenodd" clip-rule="evenodd" d="M11.1667 4.00016C11.1667 3.63197 10.8682 3.3335 10.5 3.3335C10.1318 3.3335 9.83335 3.63197 9.83335 4.00016V9.33333H4.50004C4.13185 9.33333 3.83337 9.63181 3.83337 10C3.83337 10.3682 4.13185 10.6667 4.50004 10.6667H9.83335V16.0002C9.83335 16.3684 10.1318 16.6668 10.5 16.6668C10.8682 16.6668 11.1667 16.3684 11.1667 16.0002V10.6667H16.5C16.8682 10.6667 17.1667 10.3682 17.1667 10C17.1667 9.63181 16.8682 9.33333 16.5 9.33333H11.1667V4.00016Z" fill="white"/>
</g>
</svg>
