<svg width="20" height="20" viewBox="0 0 20 20" fill="none" xmlns="http://www.w3.org/2000/svg">
<g id="icon/20/translate">
<path id="Icon" d="M10.7608 14.1667H16.7391M10.7608 14.1667L9.16663 17.5M10.7608 14.1667L13.1485 9.17419C13.3409 8.77189 13.4371 8.57075 13.5688 8.50718C13.6832 8.4519 13.8167 8.4519 13.9311 8.50718C14.0628 8.57075 14.159 8.77189 14.3514 9.17419L16.7391 14.1667M16.7391 14.1667L18.3333 17.5M1.66663 4.16667H6.66663M6.66663 4.16667H9.58329M6.66663 4.16667V2.5M9.58329 4.16667H11.6666M9.58329 4.16667C9.16984 6.63107 8.21045 8.86349 6.80458 10.737M8.33329 11.6667C7.82285 11.4373 7.30217 11.1184 6.80458 10.737M6.80458 10.737C5.67748 9.87314 4.66893 8.68886 4.16663 7.5M6.80458 10.737C5.46734 12.5191 3.72615 13.9765 1.66663 15" stroke="#47515F" stroke-width="1.66667" stroke-linecap="round" stroke-linejoin="round"/>
</g>
</svg>
