<svg width="20" height="20" viewBox="0 0 20 20" fill="none" xmlns="http://www.w3.org/2000/svg">
<path d="M17.0833 6.06476L9.99997 9.99994M9.99997 9.99994L2.91664 6.06476M9.99997 9.99994L10 17.9166M17.5 13.3821V6.61784C17.5 6.3323 17.5 6.18953 17.4579 6.0622C17.4207 5.94955 17.3599 5.84615 17.2795 5.75891C17.1886 5.6603 17.0638 5.59096 16.8142 5.45229L10.6475 2.02637C10.4112 1.89507 10.293 1.82942 10.1679 1.80368C10.0571 1.7809 9.94288 1.7809 9.83213 1.80368C9.70698 1.82942 9.58881 1.89507 9.35248 2.02637L3.18581 5.4523C2.93621 5.59096 2.8114 5.6603 2.72053 5.75891C2.64013 5.84615 2.57929 5.94956 2.54207 6.0622C2.5 6.18953 2.5 6.3323 2.5 6.61784V13.3821C2.5 13.6676 2.5 13.8104 2.54207 13.9377C2.57929 14.0504 2.64013 14.1538 2.72053 14.241C2.8114 14.3396 2.93621 14.409 3.18581 14.5476L9.35248 17.9736C9.58881 18.1049 9.70698 18.1705 9.83213 18.1962C9.94288 18.219 10.0571 18.219 10.1679 18.1962C10.293 18.1705 10.4112 18.1049 10.6475 17.9736L16.8142 14.5476C17.0638 14.409 17.1886 14.3396 17.2795 14.241C17.3599 14.1538 17.4207 14.0504 17.4579 13.9377C17.5 13.8104 17.5 13.6676 17.5 13.3821Z" stroke="#4A7FF7" stroke-width="1.66667" stroke-linecap="round" stroke-linejoin="round"/>
</svg>
