<svg width="20" height="20" viewBox="0 0 20 20" fill="none" xmlns="http://www.w3.org/2000/svg">
<path d="M8.99431 6.77273C8.62231 6.77273 10.4903 6.77273 6.49514 6.77273C2.49999 6.77273 2.5 12.7727 6.49514 12.7727C10.4903 12.7727 7.16948 12.7727 7.4455 12.7727C8.24519 12.7727 8.71776 12.7727 8.99431 12.7727M8.99431 6.77273C9.50598 6.77273 9.34659 6.77273 9.34659 6.77273C12.265 6.56071 16 3.5 16 3.5V15.5C16 15.5 12.023 12.7403 9.34659 12.7727C9.34659 12.7727 9.506 12.7727 8.99431 12.7727M8.99431 6.77273V12.7727" stroke="current" stroke-width="1.66667" stroke-linecap="round" stroke-linejoin="round"/>
<path d="M7 13.5C7.09102 15.3786 9 16.5 9 16.5" stroke="current" stroke-width="1.66667" stroke-linecap="round" stroke-linejoin="round"/>
</svg>
