<svg width="25" height="24" viewBox="0 0 25 24" fill="none" xmlns="http://www.w3.org/2000/svg">
<path fill-rule="evenodd" clip-rule="evenodd" d="M8.449 6C10.02 6 11.296 7.312 11.296 8.93C11.296 10.547 10.02 11.86 8.449 11.86C5.75 11.86 7.314 16.948 10.718 17.478C10.8786 17.5024 11.0252 17.5834 11.1312 17.7065C11.2372 17.8296 11.2957 17.9866 11.296 18.149C11.296 18.565 10.924 18.894 10.512 18.831C4.325 17.893 2.125 6.001 8.449 6.001V6ZM16.652 6C18.225 6 19.5 7.311 19.5 8.93C19.5 10.546 18.225 11.858 16.652 11.858C13.954 11.858 15.518 16.948 18.922 17.478C19.0824 17.5023 19.2289 17.5833 19.3349 17.7061C19.4409 17.829 19.4994 17.9857 19.5 18.148C19.5 18.564 19.128 18.893 18.717 18.83C12.528 17.892 10.328 6 16.652 6Z" fill="#BCC3C9"/>
</svg>
