<svg width="20" height="20" viewBox="0 0 20 20" fill="none" xmlns="http://www.w3.org/2000/svg">
<path d="M2.50594 8.08354L1.98217 7.43538L1.98217 7.43538L2.50594 8.08354ZM7.36107 17.7773V18.6106H8.1944V17.7773H7.36107ZM7.36107 12.6384V11.805H6.52774V12.6384H7.36107ZM12.6389 12.6384H13.4722V11.805H12.6389V12.6384ZM12.6389 17.7773H11.8055V18.6106H12.6389V17.7773ZM17.494 8.08354L16.9702 8.7317L17.494 8.08354ZM10.4801 2.41571L11.0039 1.76755V1.76755L10.4801 2.41571ZM9.51985 2.41571L8.99608 1.76755V1.76755L9.51985 2.41571ZM3.0555 8.67769C3.0555 8.69867 3.04602 8.71852 3.0297 8.7317L1.98217 7.43538C1.60691 7.73862 1.38883 8.19523 1.38883 8.67769H3.0555ZM3.0555 17.0134V8.67769H1.38883V17.0134H3.0555ZM2.98606 16.944C3.02441 16.944 3.0555 16.9751 3.0555 17.0134H1.38883C1.38883 17.8955 2.10394 18.6106 2.98606 18.6106V16.944ZM7.36107 16.944H2.98606V18.6106H7.36107V16.944ZM8.1944 17.7773V12.6384H6.52774V17.7773H8.1944ZM7.36107 13.4717H12.6389V11.805H7.36107V13.4717ZM11.8055 12.6384V17.7773H13.4722V12.6384H11.8055ZM17.0139 16.944H12.6389V18.6106H17.0139V16.944ZM16.9444 17.0134C16.9444 16.9751 16.9755 16.944 17.0139 16.944V18.6106C17.896 18.6106 18.6111 17.8955 18.6111 17.0134H16.9444ZM16.9444 8.67769V17.0134H18.6111V8.67769H16.9444ZM16.9702 8.7317C16.9539 8.71852 16.9444 8.69866 16.9444 8.67769H18.6111C18.6111 8.19523 18.393 7.73862 18.0178 7.43538L16.9702 8.7317ZM9.95632 3.06387L16.9702 8.7317L18.0178 7.43538L11.0039 1.76755L9.95632 3.06387ZM10.0436 3.06387C10.0182 3.08445 9.98179 3.08445 9.95632 3.06387L11.0039 1.76755C10.4183 1.29433 9.58169 1.29433 8.99608 1.76755L10.0436 3.06387ZM3.0297 8.7317L10.0436 3.06387L8.99608 1.76755L1.98217 7.43538L3.0297 8.7317Z" fill="#2CB97C"/>
</svg>
