<svg width="16" height="16" viewBox="0 0 16 16" fill="none" xmlns="http://www.w3.org/2000/svg">
<g id="icon/16/marginDel">
<path id="Icon" d="M8.00342 1.99658L8.00342 2.00325M8.00342 4.99658L8.00342 5.00325M8.00342 10.9966L8.00342 11.0032M8.00342 7.99658L8.00342 8.00325M8.00342 13.9966L8.00342 14.0032M2.00342 13.9966L2.53675 13.9966C3.28349 13.9966 3.65685 13.9966 3.94207 13.8513C4.19295 13.7234 4.39693 13.5195 4.52476 13.2686C4.67008 12.9834 4.67008 12.61 4.67008 11.8632L4.67008 4.12992C4.67008 3.38318 4.67008 3.00981 4.52476 2.72459C4.39693 2.47371 4.19295 2.26974 3.94207 2.14191C3.65686 1.99658 3.28349 1.99658 2.53675 1.99658L2.00342 1.99658M14.0034 13.9966L13.4701 13.9966C12.7233 13.9966 12.35 13.9966 12.0648 13.8513C11.8139 13.7234 11.6099 13.5195 11.4821 13.2686C11.3368 12.9834 11.3368 12.61 11.3368 11.8632L11.3368 4.12992C11.3368 3.38318 11.3368 3.00981 11.4821 2.72459C11.6099 2.47371 11.8139 2.26974 12.0648 2.14191C12.35 1.99658 12.7233 1.99658 13.4701 1.99658L14.0034 1.99658" stroke="#47515F" stroke-width="1.33333" stroke-linecap="round" stroke-linejoin="round"/>
</g>
</svg>
