<svg width="24" height="24" viewBox="0 0 24 24" fill="none" xmlns="http://www.w3.org/2000/svg">
<g id="color rocket">
<rect width="24" height="24" fill="white"/>
<g id="Vector">
<path d="M6.78014 18.626L4.92644 16.9542C1.99732 18.6795 2.16823 22.1929 2.69016 21.9917C6.19247 21.1193 6.87611 19.3844 6.78014 18.626Z" fill="#FBBF00"/>
<path fill-rule="evenodd" clip-rule="evenodd" d="M21.1926 7.16029C20.5118 9.58348 18.9288 12.549 15.4119 15.2702L15.526 15.4077L15.5242 15.4095C15.5242 15.4095 16.2648 19.6885 11.8991 21.3678L9.25109 18.7875C9.04233 18.8758 8.8301 18.9631 8.61434 19.0496C8.2605 19.1953 7.89209 19.3342 7.51565 19.4724L4.32559 16.3639C4.45748 15.9874 4.59226 15.6209 4.72993 15.2645C4.81274 15.0485 4.89657 14.836 4.98136 14.627L2.33331 12.0467C3.93867 7.67401 8.25974 8.33089 8.25974 8.33089L8.40051 8.44197C14.2777 0.637627 21.5257 2.11062 21.5257 2.11062C21.5257 2.11062 22.0071 4.24391 21.1905 7.15816L21.1926 7.16029Z" fill="#2CB97C"/>
<path d="M17.472 7.94339C18.0311 9.37521 17.3159 10.9862 15.8747 11.5416C14.4334 12.097 12.8118 11.3865 12.2527 9.95473C11.6936 8.52291 12.4088 6.91193 13.85 6.35652C15.2913 5.80111 16.9129 6.51157 17.472 7.94339Z" fill="white"/>
<path d="M16.5142 8.31206C16.8684 9.21905 16.4153 10.2395 15.5024 10.5914C14.5894 10.9432 13.5622 10.4931 13.208 9.58615C12.8539 8.67915 13.3069 7.65867 14.2199 7.30684C15.1329 6.95501 16.1601 7.40506 16.5142 8.31206Z" fill="#4A7FF7"/>
</g>
</g>
</svg>
