<svg width="16" height="16" viewBox="0 0 16 16" fill="none" xmlns="http://www.w3.org/2000/svg">
<path d="M5.8195 6.62805V7.30005H3.3295V6.62805H4.1695V4.42305C4.1695 4.36705 4.1705 4.31105 4.1725 4.25505C4.1745 4.19705 4.1775 4.13905 4.1815 4.08105L3.6835 4.49505C3.6395 4.52905 3.5955 4.55005 3.5515 4.55805C3.5095 4.56405 3.4695 4.56405 3.4315 4.55805C3.3935 4.55005 3.3595 4.53705 3.3295 4.51905C3.2995 4.49905 3.2775 4.47905 3.2635 4.45905L2.9695 4.06905L4.3315 2.92605L5.0995 2.92605V6.62805H5.8195ZM5.5945 12.46C5.6945 12.46 5.7735 12.488 5.8315 12.544C5.8895 12.598 5.9185 12.67 5.9185 12.76V13.3H2.8465V13C2.8465 12.942 2.8585 12.88 2.8825 12.814C2.9065 12.748 2.9485 12.688 3.0085 12.634L4.2685 11.365C4.3765 11.257 4.4705 11.154 4.5505 11.056C4.6305 10.958 4.6965 10.862 4.7485 10.768C4.8005 10.672 4.8395 10.577 4.8655 10.483C4.8915 10.387 4.9045 10.286 4.9045 10.18C4.9045 10.006 4.8625 9.87305 4.7785 9.78105C4.6965 9.68705 4.5705 9.64005 4.4005 9.64005C4.2625 9.64005 4.1455 9.67705 4.0495 9.75105C3.9555 9.82305 3.8905 9.91305 3.8545 10.021C3.8125 10.131 3.7575 10.204 3.6895 10.24C3.6215 10.276 3.5245 10.284 3.3985 10.264L2.9065 10.177C2.9385 9.95905 2.9995 9.76905 3.0895 9.60705C3.1815 9.44505 3.2945 9.31005 3.4285 9.20205C3.5645 9.09405 3.7195 9.01405 3.8935 8.96205C4.0675 8.90805 4.2545 8.88105 4.4545 8.88105C4.6705 8.88105 4.8645 8.91305 5.0365 8.97705C5.2105 9.03905 5.3585 9.12605 5.4805 9.23805C5.6025 9.35005 5.6955 9.48405 5.7595 9.64005C5.8255 9.79405 5.8585 9.96405 5.8585 10.15C5.8585 10.31 5.8355 10.458 5.7895 10.594C5.7455 10.73 5.6845 10.86 5.6065 10.984C5.5285 11.106 5.4375 11.225 5.3335 11.341C5.2315 11.455 5.1225 11.571 5.0065 11.689L4.1515 12.565C4.2615 12.531 4.3705 12.505 4.4785 12.487C4.5865 12.469 4.6865 12.46 4.7785 12.46H5.5945Z" fill="#47515F"/>
<path d="M7.6665 8L11.9332 8" stroke="#47515F" stroke-width="1.33333" stroke-linecap="round" stroke-linejoin="round"/>
<path d="M7.6665 4.66675L12.9998 4.66675" stroke="#47515F" stroke-width="1.33333" stroke-linecap="round" stroke-linejoin="round"/>
<path d="M7.6665 11.3333H12.9998" stroke="#47515F" stroke-width="1.33333" stroke-linecap="round" stroke-linejoin="round"/>
</svg>
