<svg width="20" height="20" viewBox="0 0 20 20" fill="none" xmlns="http://www.w3.org/2000/svg">
<path d="M4.16669 9.99984C4.16669 6.77818 6.77836 4.1665 10 4.1665C11.6323 4.1665 13.1079 4.83689 14.1667 5.91735" stroke="white" stroke-width="1.66667" stroke-linecap="round" stroke-linejoin="round"/>
<path d="M16.25 4.54024V7.83313C16.25 7.87915 16.2127 7.91646 16.1667 7.91646H12.8738C12.8494 7.91646 12.8356 7.90995 12.8263 7.90346C12.8152 7.89564 12.8041 7.88266 12.7968 7.86502C12.7895 7.84738 12.7882 7.83033 12.7905 7.81695C12.7924 7.80584 12.7976 7.79147 12.8149 7.7742L16.1078 4.48131C16.125 4.46404 16.1394 4.45888 16.1505 4.45695C16.1639 4.45464 16.1809 4.45594 16.1986 4.46325C16.2162 4.47056 16.2292 4.48169 16.237 4.49279C16.2435 4.502 16.25 4.51581 16.25 4.54024Z" fill="white" stroke="white" stroke-width="0.833333"/>
<path d="M15.8333 10.8332C15.8333 14.0548 13.2216 16.6665 9.99998 16.6665C8.36774 16.6665 6.89208 15.9961 5.83331 14.9157" stroke="white" stroke-width="1.66667" stroke-linecap="round" stroke-linejoin="round"/>
<path d="M3.74998 16.2929V13C3.74998 12.954 3.78729 12.9167 3.83331 12.9167H7.12621C7.15063 12.9167 7.16444 12.9232 7.17366 12.9297C7.18476 12.9375 7.19589 12.9505 7.2032 12.9681C7.2105 12.9858 7.21181 13.0028 7.20949 13.0162C7.20757 13.0273 7.2024 13.0417 7.18513 13.0589L3.89224 16.3518C3.87497 16.3691 3.8606 16.3743 3.84949 16.3762C3.83611 16.3785 3.81907 16.3772 3.80142 16.3699C3.78378 16.3626 3.7708 16.3514 3.76298 16.3403C3.75649 16.3311 3.74998 16.3173 3.74998 16.2929Z" fill="white" stroke="white" stroke-width="0.833333"/>
</svg>
