<svg width="20" height="20" viewBox="0 0 20 20" fill="none" xmlns="http://www.w3.org/2000/svg">
<g id="icon/20/translate2" clip-path="url(#clip0_79_3127)">
<path id="Icon" d="M15.8 7H10.2C9.0799 7 8.51984 7 8.09202 7.21799C7.71569 7.40973 7.40973 7.71569 7.21799 8.09202C7 8.51984 7 9.0799 7 10.2V15.8C7 16.9201 7 17.4802 7.21799 17.908C7.40973 18.2843 7.71569 18.5903 8.09202 18.782C8.51984 19 9.0799 19 10.2 19H15.8C16.9201 19 17.4802 19 17.908 18.782C18.2843 18.5903 18.5903 18.2843 18.782 17.908C19 17.4802 19 16.9201 19 15.8V10.2C19 9.0799 19 8.51984 18.782 8.09202C18.5903 7.71569 18.2843 7.40973 17.908 7.21799C17.4802 7 16.9201 7 15.8 7Z" fill="#47515F" stroke="#47515F" stroke-width="1.66667" stroke-linecap="round" stroke-linejoin="round"/>
<path id="Icon_2" d="M11 10.3999H14M14 10.3999H15.75M14 10.3999V9.3999M15.75 10.3999H17M15.75 10.3999C15.5019 11.8785 14.9263 13.218 14.0828 14.3421M15 14.8999C14.6937 14.7623 14.3813 14.5709 14.0828 14.3421M14.0828 14.3421C13.4065 13.8238 12.8014 13.1132 12.5 12.3999M14.0828 14.3421C13.2804 15.4114 12.2357 16.2858 11 16.8999" stroke="white" stroke-width="1.3" stroke-linecap="round" stroke-linejoin="round"/>
<path id="Icon_3" d="M9.8 1H4.2C3.0799 1 2.51984 1 2.09202 1.21799C1.71569 1.40973 1.40973 1.71569 1.21799 2.09202C1 2.51984 1 3.0799 1 4.2V9.8C1 10.9201 1 11.4802 1.21799 11.908C1.40973 12.2843 1.71569 12.5903 2.09202 12.782C2.51984 13 3.0799 13 4.2 13H9.8C10.9201 13 11.4802 13 11.908 12.782C12.2843 12.5903 12.5903 12.2843 12.782 11.908C13 11.4802 13 10.9201 13 9.8V4.2C13 3.0799 13 2.51984 12.782 2.09202C12.5903 1.71569 12.2843 1.40973 11.908 1.21799C11.4802 1 10.9201 1 9.8 1Z" fill="white" stroke="#47515F" stroke-width="1.66667" stroke-linecap="round" stroke-linejoin="round"/>
<path id="Icon_4" d="M5.2899 7.75064H8.87685M5.2899 7.75064L4.33337 9.75063M5.2899 7.75064L6.72252 4.75515C6.83796 4.51378 6.89568 4.39309 6.97466 4.35495C7.04334 4.32179 7.12341 4.32179 7.19209 4.35495C7.27107 4.39309 7.32879 4.51378 7.44423 4.75516L8.87685 7.75064M8.87685 7.75064L9.83337 9.75063" stroke="#47515F" stroke-width="1.3" stroke-linecap="round" stroke-linejoin="round"/>
</g>
<defs>
<clipPath id="clip0_79_3127">
<rect width="20" height="20" fill="white"/>
</clipPath>
</defs>
</svg>
