<svg width="20" height="20" viewBox="0 0 20 20" fill="none" xmlns="http://www.w3.org/2000/svg">
<g id="Interface / Shopping_Bag_01">
<path id="Vector" d="M7.5 6.66683C7.5 8.04754 8.61929 9.16683 10 9.16683C11.3807 9.16683 12.5 8.04754 12.5 6.66683M2.5 14.0003V6.00033C2.5 5.0669 2.5 4.59985 2.68166 4.24333C2.84144 3.92972 3.09623 3.67494 3.40983 3.51515C3.76635 3.3335 4.23341 3.3335 5.16683 3.3335H14.8335C15.7669 3.3335 16.233 3.3335 16.5895 3.51515C16.9031 3.67494 17.1587 3.92972 17.3185 4.24333C17.5 4.5995 17.5 5.06599 17.5 5.99759V14.0031C17.5 14.9347 17.5 15.4006 17.3185 15.7567C17.1587 16.0703 16.9031 16.3256 16.5895 16.4854C16.2333 16.6668 15.7675 16.6668 14.8359 16.6668H5.16409C4.23249 16.6668 3.766 16.6668 3.40983 16.4854C3.09623 16.3256 2.84144 16.0703 2.68166 15.7567C2.5 15.4002 2.5 14.9337 2.5 14.0003Z" stroke="#191F28" stroke-width="1.66667" stroke-linecap="round" stroke-linejoin="round"/>
</g>
</svg>
