<svg width="16" height="16" viewBox="0 0 16 16" fill="none" xmlns="http://www.w3.org/2000/svg">
<path d="M3.3335 7.99992C3.3335 5.42259 5.42283 3.33325 8.00016 3.33325C9.30596 3.33325 10.4865 3.86956 11.3335 4.73393" stroke="white" stroke-width="1.33333" stroke-linecap="round" stroke-linejoin="round"/>
<path d="M13.0002 3.63243V6.26675C13.0002 6.30357 12.9703 6.33341 12.9335 6.33341H10.2992C10.2796 6.33341 10.2686 6.32821 10.2612 6.32301C10.2523 6.31675 10.2434 6.30638 10.2376 6.29226C10.2317 6.27814 10.2307 6.26451 10.2326 6.2538C10.2341 6.24492 10.2382 6.23342 10.252 6.21961L12.8864 3.58529C12.9002 3.57148 12.9117 3.56734 12.9206 3.56581C12.9313 3.56395 12.9449 3.56499 12.959 3.57084C12.9731 3.57669 12.9835 3.58559 12.9898 3.59447C12.995 3.60184 13.0002 3.61289 13.0002 3.63243Z" fill="white" stroke="white" stroke-width="0.666667"/>
<path d="M12.6665 8.66659C12.6665 11.2439 10.5772 13.3333 7.99984 13.3333C6.69404 13.3333 5.51352 12.7969 4.6665 11.9326" stroke="white" stroke-width="1.33333" stroke-linecap="round" stroke-linejoin="round"/>
<path d="M2.99984 13.0343L2.99984 10.4C2.99984 10.3632 3.02969 10.3333 3.0665 10.3333H5.70082C5.72036 10.3333 5.73141 10.3385 5.73878 10.3437C5.74766 10.35 5.75656 10.3604 5.76241 10.3745C5.76826 10.3886 5.7693 10.4022 5.76745 10.4129C5.76591 10.4218 5.76178 10.4333 5.74796 10.4471L3.11364 13.0815C3.09983 13.0953 3.08833 13.0994 3.07945 13.1009C3.06874 13.1028 3.05511 13.1018 3.04099 13.0959C3.02688 13.0901 3.0165 13.0812 3.01024 13.0723C3.00504 13.0649 2.99984 13.0539 2.99984 13.0343Z" fill="white" stroke="white" stroke-width="0.666667"/>
</svg>
