<svg width="12" height="13" viewBox="0 0 12 13" fill="none" xmlns="http://www.w3.org/2000/svg">
<g id="icon/12/emergency">
<path id="Vector" d="M6.00329 10.9817H1.15413C1.12475 10.982 1.09582 10.9745 1.07027 10.9599C1.04472 10.9454 1.02347 10.9244 1.00867 10.899C0.99386 10.8736 0.986027 10.8448 0.985962 10.8154C0.985897 10.786 0.993602 10.7572 1.00829 10.7317L3.43746 6.34754L5.85413 1.97587C5.86854 1.94982 5.88967 1.92811 5.91532 1.91299C5.94096 1.89787 5.97019 1.88989 5.99996 1.88989C6.02973 1.88989 6.05896 1.89787 6.08461 1.91299C6.11025 1.92811 6.13138 1.94982 6.14579 1.97587L8.56246 6.34754L10.9916 10.7342C11.0063 10.7597 11.014 10.7885 11.014 10.8179C11.0139 10.8473 11.0061 10.8761 10.9913 10.9015C10.9765 10.9269 10.9552 10.9479 10.9297 10.9624C10.9041 10.977 10.8752 10.9845 10.8458 10.9842L6.00329 10.9817Z" fill="white" stroke="white" stroke-width="0.916667" stroke-linecap="square"/>
<line id="Line 85" x1="6.05002" y1="4.80005" x2="6.05002" y2="7.80005" stroke="#FEA218" stroke-width="1.3"/>
<line id="Line 86" x1="6.05002" y1="8.75" x2="6.05002" y2="10.05" stroke="#FEA218" stroke-width="1.3"/>
</g>
</svg>
