<svg width="20" height="20" viewBox="0 0 20 20" fill="none" xmlns="http://www.w3.org/2000/svg">
<g id="icon/20/bezier-curve">
<path id="Icon" d="M8.33329 5.83317L2.49996 5.83317M17.5 5.83317L11.6666 5.83317M11.6666 6.04313C14.542 6.7832 16.6666 9.39337 16.6666 12.4998M3.33329 12.4998C3.33329 9.39337 5.45791 6.7832 8.33329 6.04313M2.99996 15.8332H3.66663C4.13334 15.8332 4.36669 15.8332 4.54495 15.7423C4.70175 15.6624 4.82924 15.535 4.90913 15.3782C4.99996 15.1999 4.99996 14.9665 4.99996 14.4998V13.8332C4.99996 13.3665 4.99996 13.1331 4.90913 12.9548C4.82924 12.798 4.70175 12.6706 4.54495 12.5907C4.36669 12.4998 4.13334 12.4998 3.66663 12.4998H2.99996C2.53325 12.4998 2.29989 12.4998 2.12163 12.5907C1.96483 12.6706 1.83735 12.798 1.75745 12.9548C1.66663 13.1331 1.66663 13.3665 1.66663 13.8332V14.4998C1.66663 14.9665 1.66663 15.1999 1.75745 15.3782C1.83735 15.535 1.96483 15.6624 2.12163 15.7423C2.29989 15.8332 2.53325 15.8332 2.99996 15.8332ZM9.66663 7.49984H10.3333C10.8 7.49984 11.0334 7.49984 11.2116 7.40901C11.3684 7.32911 11.4959 7.20163 11.5758 7.04483C11.6666 6.86657 11.6666 6.63321 11.6666 6.1665V5.49984C11.6666 5.03313 11.6666 4.79977 11.5758 4.62151C11.4959 4.46471 11.3684 4.33723 11.2116 4.25733C11.0334 4.1665 10.8 4.1665 10.3333 4.1665H9.66663C9.19992 4.1665 8.96656 4.1665 8.7883 4.25733C8.6315 4.33723 8.50401 4.46471 8.42412 4.62151C8.33329 4.79977 8.33329 5.03313 8.33329 5.49984V6.1665C8.33329 6.63321 8.33329 6.86657 8.42412 7.04483C8.50401 7.20163 8.6315 7.32911 8.7883 7.40901C8.96656 7.49984 9.19992 7.49984 9.66663 7.49984ZM16.3333 15.8332H17C17.4667 15.8332 17.7 15.8332 17.8783 15.7423C18.0351 15.6624 18.1626 15.535 18.2425 15.3782C18.3333 15.1999 18.3333 14.9665 18.3333 14.4998V13.8332C18.3333 13.3665 18.3333 13.1331 18.2425 12.9548C18.1626 12.798 18.0351 12.6706 17.8783 12.5907C17.7 12.4998 17.4667 12.4998 17 12.4998H16.3333C15.8666 12.4998 15.6332 12.4998 15.455 12.5907C15.2982 12.6706 15.1707 12.798 15.0908 12.9548C15 13.1331 15 13.3665 15 13.8332V14.4998C15 14.9665 15 15.1999 15.0908 15.3782C15.1707 15.535 15.2982 15.6624 15.455 15.7423C15.6332 15.8332 15.8666 15.8332 16.3333 15.8332ZM18.3333 5.83317C18.3333 6.29341 17.9602 6.6665 17.5 6.6665C17.0397 6.6665 16.6666 6.29341 16.6666 5.83317C16.6666 5.37293 17.0397 4.99984 17.5 4.99984C17.9602 4.99984 18.3333 5.37293 18.3333 5.83317ZM3.33329 5.83317C3.33329 6.29341 2.9602 6.6665 2.49996 6.6665C2.03972 6.6665 1.66663 6.29341 1.66663 5.83317C1.66663 5.37293 2.03972 4.99984 2.49996 4.99984C2.9602 4.99984 3.33329 5.37293 3.33329 5.83317Z" stroke="#47515F" stroke-width="1.66667" stroke-linecap="round" stroke-linejoin="round"/>
</g>
</svg>
