<svg width="16" height="16" viewBox="0 0 16 16" fill="none" xmlns="http://www.w3.org/2000/svg">
<g id="icon/16/magic-wand" clip-path="url(#clip0_215_3665)">
<path id="Icon" d="M8.66657 9.33325L6.66657 7.33325M10.0068 2.33325V1.33325M12.633 3.37369L13.3401 2.66659M12.633 8.66659L13.3401 9.37369M7.34013 3.37369L6.63303 2.66659M13.6735 5.99992H14.6735M4.08748 13.9123L10.2457 7.75417C10.5097 7.49015 10.6417 7.35815 10.6911 7.20593C10.7346 7.07203 10.7346 6.9278 10.6911 6.79391C10.6417 6.64169 10.5097 6.50968 10.2457 6.24567L9.75415 5.75417C9.49014 5.49015 9.35813 5.35815 9.20591 5.30869C9.07201 5.26518 8.92778 5.26518 8.79389 5.30869C8.64167 5.35815 8.50966 5.49015 8.24565 5.75417L2.08748 11.9123C1.82347 12.1763 1.69146 12.3084 1.642 12.4606C1.5985 12.5945 1.5985 12.7387 1.642 12.8726C1.69146 13.0248 1.82347 13.1568 2.08748 13.4208L2.57899 13.9123C2.843 14.1763 2.975 14.3084 3.12722 14.3578C3.26112 14.4013 3.40535 14.4013 3.53924 14.3578C3.69146 14.3084 3.82347 14.1763 4.08748 13.9123Z" stroke="#47515F" stroke-width="1.33333" stroke-linecap="round" stroke-linejoin="round"/>
</g>
<defs>
<clipPath id="clip0_215_3665">
<rect width="16" height="16" fill="white"/>
</clipPath>
</defs>
</svg>
