<svg width="16" height="16" viewBox="0 0 16 16" fill="none" xmlns="http://www.w3.org/2000/svg">
<path d="M3.33334 7.99992C3.33334 5.42259 5.42268 3.33325 8.00001 3.33325C9.3058 3.33325 10.4863 3.86956 11.3333 4.73393" stroke="#47515F" stroke-width="1.33333" stroke-linecap="round" stroke-linejoin="round"/>
<path d="M13 3.63243V6.26675C13 6.30357 12.9702 6.33341 12.9333 6.33341H10.299C10.2795 6.33341 10.2684 6.32821 10.2611 6.32301C10.2522 6.31675 10.2433 6.30638 10.2374 6.29226C10.2316 6.27814 10.2305 6.26451 10.2324 6.2538C10.2339 6.24492 10.2381 6.23342 10.2519 6.21961L12.8862 3.58529C12.9 3.57148 12.9115 3.56734 12.9204 3.56581C12.9311 3.56395 12.9447 3.56499 12.9589 3.57084C12.973 3.57669 12.9834 3.58559 12.9896 3.59447C12.9948 3.60184 13 3.61289 13 3.63243Z" fill="#47515F" stroke="#47515F" stroke-width="0.666667"/>
<path d="M12.6667 8.66659C12.6667 11.2439 10.5773 13.3333 7.99999 13.3333C6.6942 13.3333 5.51367 12.7969 4.66666 11.9326" stroke="#47515F" stroke-width="1.33333" stroke-linecap="round" stroke-linejoin="round"/>
<path d="M2.99999 13.0343V10.4C2.99999 10.3632 3.02984 10.3333 3.06666 10.3333H5.70097C5.72051 10.3333 5.73156 10.3385 5.73893 10.3437C5.74781 10.35 5.75672 10.3604 5.76256 10.3745C5.76841 10.3886 5.76945 10.4022 5.7676 10.4129C5.76606 10.4218 5.76193 10.4333 5.74811 10.4471L3.1138 13.0815C3.09998 13.0953 3.08849 13.0994 3.0796 13.1009C3.0689 13.1028 3.05526 13.1018 3.04114 13.0959C3.02703 13.0901 3.01665 13.0812 3.01039 13.0723C3.0052 13.0649 2.99999 13.0539 2.99999 13.0343Z" fill="#47515F" stroke="#47515F" stroke-width="0.666667"/>
</svg>
