<svg width="20" height="20" viewBox="0 0 20 20" fill="none" xmlns="http://www.w3.org/2000/svg">
<path d="M8.33354 3.33333H6.0002C5.06678 3.33333 4.59972 3.33333 4.2432 3.51499C3.9296 3.67478 3.67482 3.92956 3.51503 4.24316C3.33337 4.59968 3.33337 5.06674 3.33337 6.00016V14.0002C3.33337 14.9336 3.33337 15.4 3.51503 15.7566C3.67482 16.0702 3.9296 16.3254 4.2432 16.4852C4.59938 16.6667 5.06587 16.6667 5.99747 16.6667H14.0026C14.9342 16.6667 15.4 16.6667 15.7562 16.4852C16.0698 16.3254 16.3254 16.0699 16.4852 15.7563C16.6667 15.4002 16.6667 14.9342 16.6667 14.0026V11.6667M13.3334 4.16666L8.33337 9.16666V11.6667H10.8334L15.8334 6.66666M13.3334 4.16666L15.8334 1.66666L18.3334 4.16666L15.8334 6.66666M13.3334 4.16666L15.8334 6.66666" stroke="#EABC18" stroke-width="1.66667" stroke-linecap="round" stroke-linejoin="round"/>
</svg>
