<svg width="16" height="16" viewBox="0 0 16 16" fill="none" xmlns="http://www.w3.org/2000/svg">
<g id="icon/16/delete">
<path id="Icon" d="M4.83317 10.0002L8.83317 6.00016M8.83317 10.0002L4.83317 6.00016M14.3532 7.36016L11.4732 3.52016C11.2385 3.20727 11.1212 3.05083 10.9725 2.938C10.8408 2.83806 10.6916 2.76349 10.5327 2.71809C10.3532 2.66683 10.1576 2.66683 9.7665 2.66683H4.69984C3.57973 2.66683 3.01968 2.66683 2.59186 2.88482C2.21553 3.07656 1.90957 3.38252 1.71782 3.75885C1.49984 4.18667 1.49984 4.74672 1.49984 5.86683V10.1335C1.49984 11.2536 1.49984 11.8137 1.71782 12.2415C1.90957 12.6178 2.21553 12.9238 2.59186 13.1155C3.01968 13.3335 3.57973 13.3335 4.69984 13.3335H9.7665C10.1576 13.3335 10.3532 13.3335 10.5327 13.2822C10.6916 13.2368 10.8408 13.1623 10.9725 13.0623C11.1212 12.9495 11.2385 12.7931 11.4732 12.4802L14.3532 8.64016C14.5253 8.41066 14.6114 8.2959 14.6445 8.16987C14.6738 8.05863 14.6738 7.9417 14.6445 7.83045C14.6114 7.70442 14.5253 7.58967 14.3532 7.36016Z" stroke="#47515F" stroke-width="1.33333" stroke-linecap="round" stroke-linejoin="round"/>
</g>
</svg>
