<svg width="20" height="20" viewBox="0 0 20 20" fill="none" xmlns="http://www.w3.org/2000/svg">
<g id="icon/20/Strikethrough">
<path id="Vector" d="M10.0001 9.99998C10.7463 9.99998 11.4788 10.1603 12.1211 10.4642C12.4112 10.6014 12.6785 10.7659 12.9171 10.953C13.2067 11.1801 13.4545 11.4407 13.6515 11.7276C14.011 12.2507 14.1883 12.8413 14.1648 13.438C14.1414 14.0346 13.918 14.6153 13.5182 15.1193C13.1183 15.6234 12.5566 16.032 11.8918 16.3031C11.2269 16.5741 10.4832 16.6976 9.73845 16.6602C8.99371 16.6227 8.27554 16.4256 7.65837 16.0901C7.0412 15.7545 6.54786 15.2927 6.23014 14.7526M10.0001 9.99998H3.33301M10.0001 9.99998H16.6663M13.7699 5.24756C13.4522 4.70742 12.959 4.24544 12.3418 3.90989C11.7246 3.57435 11.006 3.37731 10.2613 3.33983C9.51658 3.30234 8.77287 3.42568 8.10799 3.69669C7.44312 3.96771 6.88145 4.37663 6.48161 4.88066C6.08177 5.38469 5.85848 5.96563 5.83504 6.56229C5.82818 6.73711 5.83858 6.91112 5.86571 7.08337" stroke="#47515F" stroke-width="1.67" stroke-linecap="round" stroke-linejoin="round"/>
</g>
</svg>
