<svg width="16" height="16" viewBox="0 0 16 16" fill="none" xmlns="http://www.w3.org/2000/svg">
<path fill-rule="evenodd" clip-rule="evenodd" d="M8.66632 1.99992C8.66632 1.63173 8.36784 1.33325 7.99965 1.33325C7.63146 1.33325 7.33298 1.63173 7.33298 1.99992V7.33309H1.99967C1.63149 7.33309 1.33301 7.63157 1.33301 7.99976C1.33301 8.36795 1.63148 8.66642 1.99967 8.66642H7.33298V13.9999C7.33298 14.3681 7.63146 14.6666 7.99965 14.6666C8.36784 14.6666 8.66632 14.3681 8.66632 13.9999V8.66642H13.9997C14.3679 8.66642 14.6663 8.36795 14.6663 7.99976C14.6663 7.63157 14.3679 7.33309 13.9997 7.33309H8.66632V1.99992Z" fill="#47515F"/>
</svg>
