<svg width="20" height="20" viewBox="0 0 20 20" fill="none" xmlns="http://www.w3.org/2000/svg">
<path d="M7.5 6.66671C7.5 8.04742 8.61929 9.16671 10 9.16671C11.3807 9.16671 12.5 8.04742 12.5 6.66671M2.5 14.0002V6.0002C2.5 5.06678 2.5 4.59972 2.68166 4.2432C2.84144 3.9296 3.09623 3.67482 3.40983 3.51503C3.76635 3.33337 4.23341 3.33337 5.16683 3.33337H14.8335C15.7669 3.33337 16.233 3.33337 16.5895 3.51503C16.9031 3.67482 17.1587 3.9296 17.3185 4.2432C17.5 4.59938 17.5 5.06587 17.5 5.99747V14.003C17.5 14.9346 17.5 15.4004 17.3185 15.7566C17.1587 16.0702 16.9031 16.3254 16.5895 16.4852C16.2333 16.6667 15.7675 16.6667 14.8359 16.6667H5.16409C4.23249 16.6667 3.766 16.6667 3.40983 16.4852C3.09623 16.3254 2.84144 16.0702 2.68166 15.7566C2.5 15.4001 2.5 14.9336 2.5 14.0002Z" stroke="current" stroke-width="1.66667" stroke-linecap="round" stroke-linejoin="round"/>
</svg>
