<svg width="20" height="20" viewBox="0 0 20 20" fill="none" xmlns="http://www.w3.org/2000/svg">
<g id="icon/20/plus">
<path id="Union" fill-rule="evenodd" clip-rule="evenodd" d="M10.8333 2.50033C10.8333 2.04009 10.4602 1.66699 9.99992 1.66699C9.53968 1.66699 9.16659 2.04009 9.16659 2.50033V9.16699H2.49996C2.03972 9.16699 1.66663 9.54009 1.66663 10.0003C1.66663 10.4606 2.03972 10.8337 2.49996 10.8337H9.16659V17.5003C9.16659 17.9606 9.53968 18.3337 9.99992 18.3337C10.4602 18.3337 10.8333 17.9606 10.8333 17.5003V10.8337H17.5C17.9602 10.8337 18.3333 10.4606 18.3333 10.0003C18.3333 9.54009 17.9602 9.16699 17.5 9.16699H10.8333V2.50033Z" fill="#2CB97C"/>
</g>
</svg>
