<svg width="20" height="20" viewBox="0 0 20 20" fill="none" xmlns="http://www.w3.org/2000/svg">
<g id="icon/20/palette" clip-path="url(#clip0_65_5155)">
<g id="Icon">
<path d="M1.66699 10.0001C1.66699 14.6025 5.39795 18.3334 10.0003 18.3334C11.381 18.3334 12.5003 17.2141 12.5003 15.8334V15.4167C12.5003 15.0297 12.5003 14.8362 12.5217 14.6738C12.6694 13.5519 13.5522 12.6692 14.674 12.5215C14.8365 12.5001 15.03 12.5001 15.417 12.5001H15.8337C17.2144 12.5001 18.3337 11.3808 18.3337 10.0001C18.3337 5.39771 14.6027 1.66675 10.0003 1.66675C5.39795 1.66675 1.66699 5.39771 1.66699 10.0001Z" stroke="#47515F" stroke-width="1.66667" stroke-linecap="round" stroke-linejoin="round"/>
<path d="M5.83366 10.8334C6.2939 10.8334 6.66699 10.4603 6.66699 10.0001C6.66699 9.53984 6.2939 9.16675 5.83366 9.16675C5.37342 9.16675 5.00033 9.53984 5.00033 10.0001C5.00033 10.4603 5.37342 10.8334 5.83366 10.8334Z" stroke="#47515F" stroke-width="1.66667" stroke-linecap="round" stroke-linejoin="round"/>
<path d="M13.3337 7.50008C13.7939 7.50008 14.167 7.12699 14.167 6.66675C14.167 6.20651 13.7939 5.83341 13.3337 5.83341C12.8734 5.83341 12.5003 6.20651 12.5003 6.66675C12.5003 7.12699 12.8734 7.50008 13.3337 7.50008Z" stroke="#47515F" stroke-width="1.66667" stroke-linecap="round" stroke-linejoin="round"/>
<path d="M8.33366 6.66675C8.7939 6.66675 9.16699 6.29365 9.16699 5.83341C9.16699 5.37318 8.7939 5.00008 8.33366 5.00008C7.87342 5.00008 7.50033 5.37318 7.50033 5.83341C7.50033 6.29365 7.87342 6.66675 8.33366 6.66675Z" stroke="#47515F" stroke-width="1.66667" stroke-linecap="round" stroke-linejoin="round"/>
</g>
</g>
<defs>
<clipPath id="clip0_65_5155">
<rect width="20" height="20" fill="white"/>
</clipPath>
</defs>
</svg>
