<svg width="20" height="20" viewBox="0 0 20 20" fill="none" xmlns="http://www.w3.org/2000/svg">
<path d="M2.50594 8.08342L1.98217 7.43526L1.98217 7.43526L2.50594 8.08342ZM7.36107 17.7772V18.6105H8.1944V17.7772H7.36107ZM7.36107 12.6383V11.8049H6.52774V12.6383H7.36107ZM12.6389 12.6383H13.4722V11.8049H12.6389V12.6383ZM12.6389 17.7772H11.8055V18.6105H12.6389V17.7772ZM17.494 8.08342L16.9702 8.73158L17.494 8.08342ZM10.4801 2.41559L11.0039 1.76743L10.4801 2.41559ZM9.51985 2.41559L8.99608 1.76743L9.51985 2.41559ZM3.0555 8.67757C3.0555 8.69854 3.04602 8.71839 3.0297 8.73158L1.98217 7.43526C1.60691 7.7385 1.38883 8.1951 1.38883 8.67757H3.0555ZM3.0555 17.0133V8.67757H1.38883V17.0133H3.0555ZM2.98606 16.9438C3.02441 16.9438 3.0555 16.9749 3.0555 17.0133H1.38883C1.38883 17.8954 2.10394 18.6105 2.98606 18.6105V16.9438ZM7.36107 16.9438H2.98606V18.6105H7.36107V16.9438ZM8.1944 17.7772V12.6383H6.52774V17.7772H8.1944ZM7.36107 13.4716H12.6389V11.8049H7.36107V13.4716ZM11.8055 12.6383V17.7772H13.4722V12.6383H11.8055ZM17.0139 16.9438H12.6389V18.6105H17.0139V16.9438ZM16.9444 17.0133C16.9444 16.9749 16.9755 16.9438 17.0139 16.9438V18.6105C17.896 18.6105 18.6111 17.8954 18.6111 17.0133H16.9444ZM16.9444 8.67757V17.0133H18.6111V8.67757H16.9444ZM16.9702 8.73158C16.9539 8.71839 16.9444 8.69854 16.9444 8.67757H18.6111C18.6111 8.1951 18.393 7.7385 18.0178 7.43526L16.9702 8.73158ZM9.95632 3.06375L16.9702 8.73158L18.0178 7.43526L11.0039 1.76743L9.95632 3.06375ZM10.0436 3.06375C10.0182 3.08433 9.98179 3.08433 9.95632 3.06375L11.0039 1.76743C10.4183 1.29421 9.58169 1.29421 8.99608 1.76743L10.0436 3.06375ZM3.0297 8.73158L10.0436 3.06375L8.99608 1.76743L1.98217 7.43526L3.0297 8.73158Z" fill="current"/>
</svg>
