<svg width="52" height="52" viewBox="0 0 52 52" fill="none" xmlns="http://www.w3.org/2000/svg">
<g clip-path="url(#clip0_9_4226)">
<path d="M35.55 37C32.9 36.45 30.38 35.5 28.08 34.18C26.96 33.52 25.39 33.59 24.5 34.2L18.87 36.87C13.84 32.69 11.08 28.49 9.26001 22.27L13.81 18.26C14.93 17.52 15.54 16.24 15.4 14.89C15.09 12.24 15.21 9.55001 15.76 6.90001C16.15 4.98001 14.92 3.10001 13 2.71001L5.03001 1.07001C3.12001 0.680013 1.24001 1.92001 0.840005 3.83001C-3.68999 25.8 10.51 47.36 32.48 51.89C34.4 52.28 36.28 51.05 36.67 49.13L38.3 41.2C38.69 39.28 37.46 37.4 35.54 37.01L35.55 37Z" fill="#F5E196"/>
</g>
<path d="M27 13C27 6.37258 32.3726 1 39 1C45.6274 1 51 6.37258 51 13C51 19.6274 45.6274 25 39 25H27V13Z" fill="#EABC18" stroke="#EABC18" stroke-width="1.99177" stroke-linejoin="round"/>
<path d="M43 11L43 14L46 14L46 11L43 11Z" fill="white"/>
<path d="M38 11L38 14L40 14L40 11L38 11Z" fill="white"/>
<path d="M32 11L32 14L35 14L35 11L32 11Z" fill="white"/>
<defs>
<clipPath id="clip0_9_4226">
<rect width="38.38" height="50.96" fill="white" transform="translate(0 1)"/>
</clipPath>
</defs>
</svg>
