<svg width="52" height="53" viewBox="0 0 52 53" fill="none" xmlns="http://www.w3.org/2000/svg">
<path d="M50.8626 34.0495L27.1423 20.3625C26.4371 19.9547 25.5701 19.9547 24.8649 20.3625L1.14232 34.0495C0.434804 34.4573 0.00012207 35.2127 0.00012207 36.0306C0.00012207 36.8486 0.437116 37.6039 1.14232 38.0117L24.8626 51.6987C25.214 51.9027 25.6071 52.0046 26.0001 52.0046C26.3932 52.0046 26.7863 51.9027 27.1377 51.6987L50.8579 38.0117C51.5654 37.6039 52.0001 36.8486 52.0001 36.0306C52.0001 35.2127 51.5631 34.455 50.8579 34.0495H50.8626Z" fill="#99D8BC"/>
<path d="M50.8626 24.0189L27.1423 10.3342C26.4371 9.9264 25.5701 9.9264 24.8649 10.3342L1.14232 24.0189C0.434804 24.4267 0.00012207 25.1844 0.00012207 26.0023C0.00012207 26.8202 0.437116 27.5756 1.14232 27.9834L24.8626 41.6681C25.214 41.872 25.6071 41.974 26.0001 41.974C26.3932 41.974 26.7863 41.872 27.1377 41.6681L50.8579 27.9834C51.5654 27.5756 52.0001 26.8179 52.0001 26.0023C52.0001 25.1867 51.5631 24.4267 50.8579 24.0189H50.8626Z" fill="#2CB97C"/>
<path d="M50.8624 13.9905L27.1422 0.305855C26.437 -0.101952 25.5699 -0.101952 24.8647 0.305855L1.1422 13.9905C0.434682 14.3984 0 15.1537 0 15.974C0 16.7942 0.436994 17.5473 1.1422 17.9551L24.8624 31.6421C25.2139 31.846 25.6069 31.9479 26 31.9479C26.3931 31.9479 26.7861 31.846 27.1376 31.6421L50.8578 17.9551C51.5653 17.5473 52 16.7919 52 15.974C52 15.156 51.563 14.3984 50.8578 13.9905H50.8624Z" fill="#BBF3DA"/>
<path d="M51.1469 47.5419L44.4417 41.6936C43.6925 42.9494 42.7261 44.0639 41.5862 44.9815L48.2914 50.8298C49.1977 51.62 50.5712 51.525 51.3596 50.6167C52.148 49.7084 52.0532 48.332 51.1469 47.5419Z" fill="#2CB97C"/>
<path d="M38.3954 49.1106C43.5863 49.1106 47.7943 44.8936 47.7943 39.6916C47.7943 34.4897 43.5863 30.2727 38.3954 30.2727C33.2046 30.2727 28.9966 34.4897 28.9966 39.6916C28.9966 44.8936 33.2046 49.1106 38.3954 49.1106Z" fill="#BBF3DA"/>
</svg>
