<svg width="52" height="52" viewBox="0 0 52 52" fill="none" xmlns="http://www.w3.org/2000/svg">
<path opacity="0.5" d="M22.4298 36.3784C22.4298 28.7447 28.6182 22.5563 36.252 22.5563C43.8858 22.5563 50.0743 28.7447 50.0743 36.3785V50.2007H36.2521C28.6182 50.2007 22.4298 44.0123 22.4298 36.3784Z" fill="#B0C3EE" stroke="#B0C3EE" stroke-width="2.81564" stroke-linejoin="round"/>
<path d="M1.92603 20.7571C1.92603 10.3569 10.3571 1.92593 20.7572 1.92593C31.1574 1.92593 39.5884 10.3569 39.5884 20.7571C39.5884 31.1573 31.1574 39.5883 20.7573 39.5883H1.92603V20.7571Z" fill="#4A7FF7" stroke="#4A7FF7" stroke-width="3.83598" stroke-linejoin="round"/>
<path d="M18.7114 24.9872V25.256H21.9362V24.9872C21.9484 23.2771 22.5592 22.4831 23.9395 21.6647C25.5397 20.6997 26.578 19.4294 26.578 17.4139C26.578 14.3967 24.1716 12.6255 20.7636 12.6255C17.6365 12.6255 15.0835 14.2746 15.0225 17.707H18.4916C18.5404 16.2779 19.6031 15.5205 20.7391 15.5083C21.924 15.5205 22.8768 16.3145 22.8646 17.536C22.8768 18.6598 22.0584 19.4171 21.0079 20.1012C19.5421 21.0173 18.7236 21.9457 18.7114 24.9872ZM18.345 28.7251C18.3205 29.8611 19.2489 30.7772 20.3971 30.7772C21.4843 30.7772 22.4248 29.8611 22.4248 28.7251C22.4248 27.6013 21.4843 26.6851 20.3971 26.6973C19.2489 26.6851 18.3205 27.6013 18.345 28.7251Z" fill="white"/>
</svg>
