<svg width="52" height="52" viewBox="0 0 52 52" fill="none" xmlns="http://www.w3.org/2000/svg">
<rect width="52" height="52" rx="26" fill="#FEA218" fill-opacity="0.24"/>
<path d="M26.0068 33.9639H16.3085C16.2497 33.9644 16.1919 33.9494 16.1408 33.9204C16.0897 33.8913 16.0472 33.8493 16.0176 33.7985C15.988 33.7478 15.9723 33.6901 15.9722 33.6313C15.972 33.5725 15.9874 33.5148 16.0168 33.4639L20.8752 24.6956L25.7085 15.9522C25.7373 15.9001 25.7796 15.8567 25.8309 15.8265C25.8822 15.7962 25.9406 15.7803 26.0002 15.7803C26.0597 15.7803 26.1182 15.7962 26.1695 15.8265C26.2208 15.8567 26.263 15.9001 26.2918 15.9522L31.1252 24.6956L35.9835 33.4689C36.0129 33.5198 36.0283 33.5775 36.0282 33.6363C36.028 33.6951 36.0124 33.7528 35.9828 33.8035C35.9531 33.8543 35.9106 33.8963 35.8595 33.9254C35.8085 33.9544 35.7506 33.9694 35.6918 33.9689L26.0068 33.9639Z" fill="#FEA218" stroke="#FEA218" stroke-width="1.83333" stroke-linecap="square"/>
<line x1="25.9626" y1="21.5996" x2="25.9626" y2="27.5996" stroke="white" stroke-width="1.725"/>
<line x1="25.9626" y1="29.5" x2="25.9626" y2="32.1" stroke="white" stroke-width="1.725"/>
</svg>
