<svg width="40" height="40" viewBox="0 0 40 40" fill="none" xmlns="http://www.w3.org/2000/svg">
<rect width="40" height="40" rx="5.33333" fill="#2CB97C"/>
<path d="M9.26993 23.8177L10.9888 14.0696H15.1997C17.4146 14.0696 18.6228 15.4362 18.2608 17.4895C17.8928 19.5765 16.1711 20.8892 13.9164 20.8825H12.3851L11.8676 23.8177H9.26993ZM12.7365 18.8898H13.7482C14.727 18.8831 15.3961 18.3445 15.5401 17.4895C15.6965 16.6413 15.2136 16.1229 14.2373 16.1162H13.2256L12.7365 18.8898ZM18.0227 23.8177L19.3118 16.5066H21.8138L21.5716 17.88H21.6536C22.0983 16.8702 22.8091 16.4057 23.6077 16.4124C23.8345 16.4057 24.0666 16.4461 24.2634 16.4932L23.8764 18.6878C23.6389 18.6003 23.2097 18.5532 22.9295 18.5532C22.1228 18.5532 21.4284 19.1187 21.2856 19.9669L20.6067 23.8177H18.0227ZM26.9704 23.9523C24.5778 23.9523 23.4174 22.4309 23.807 20.1824C24.2103 17.9339 25.9073 16.4124 28.2999 16.4124C30.6925 16.4124 31.8529 17.9339 31.4496 20.1824C31.06 22.4309 29.363 23.9523 26.9704 23.9523ZM26.4481 20.1689C26.2507 21.3268 26.5589 22.0606 27.3165 22.0674C28.0423 22.0606 28.616 21.3268 28.8133 20.1689C29.0267 18.9975 28.7117 18.2637 27.986 18.2705C27.2283 18.2637 26.6615 18.9975 26.4481 20.1689Z" fill="white"/>
</svg>
