<svg width="40" height="40" viewBox="0 0 40 40" fill="none" xmlns="http://www.w3.org/2000/svg">
<rect width="40" height="40" rx="5.33333" fill="#99A2AD"/>
<path d="M5.90528 23.8177L7.62413 14.0696H14.5284L14.1628 16.1431H9.85618L9.54517 17.9069H13.4143L13.0487 19.9804H9.17956L8.50294 23.8177H5.90528ZM13.5506 23.8177L14.8397 16.5066H17.3417L17.0995 17.88H17.1816C17.6262 16.8702 18.337 16.4057 19.1356 16.4124C19.3624 16.4057 19.5946 16.4461 19.7913 16.4932L19.4043 18.6878C19.1668 18.6003 18.7377 18.5532 18.4574 18.5532C17.6507 18.5532 16.9563 19.1187 16.8136 19.9669L16.1346 23.8177H13.5506ZM22.4847 23.9523C20.1194 23.9523 18.9251 22.5453 19.335 20.1824C19.7406 17.9204 21.4694 16.4124 23.7595 16.4124C25.9606 16.4124 27.171 17.8059 26.7635 20.1554L26.6567 20.7613H21.7895L21.7729 20.8556C21.6388 21.6163 22.0303 22.1481 22.8575 22.1481C23.4249 22.1481 23.9107 21.9125 24.1496 21.4884H26.5148C25.996 22.9964 24.5149 23.9523 22.4847 23.9523ZM22.0412 19.3341H24.5158C24.6253 18.6744 24.1876 18.2099 23.496 18.2166C22.8068 18.2099 22.178 18.6744 22.0412 19.3341ZM30.5538 23.9523C28.1886 23.9523 26.9943 22.5453 27.4041 20.1824C27.8098 17.9204 29.5386 16.4124 31.8286 16.4124C34.0298 16.4124 35.2401 17.8059 34.8327 20.1554L34.7258 20.7613H29.8587L29.842 20.8556C29.7079 21.6163 30.0995 22.1481 30.9266 22.1481C31.494 22.1481 31.9799 21.9125 32.2187 21.4884H34.584C34.0651 22.9964 32.5841 23.9523 30.5538 23.9523ZM30.1103 19.3341H32.5849C32.6944 18.6744 32.2568 18.2099 31.5652 18.2166C30.8759 18.2099 30.2471 18.6744 30.1103 19.3341Z" fill="white"/>
</svg>
