<svg width="1440" height="704" viewBox="0 0 1440 704" fill="none" xmlns="http://www.w3.org/2000/svg">
<g opacity="0.1">
<path d="M111.58 263.389L95.906 274.979L89.7231 268.708C90.501 267.879 90.709 266.436 90.351 264.4L83.1671 223.545L67.6442 226.275L66.2594 218.4L90.0925 214.209L98.5118 262.088L109.864 253.634L111.58 263.389ZM90.16 199.227L84.1906 205.859C80.0953 200.167 74.2907 195.26 66.7728 191.115L72.2697 185.605C79.0296 188.591 84.9992 193.123 90.156 199.205L90.16 199.227ZM163.104 209.051L96.2409 220.808L94.8443 212.866L124.21 207.702L123.172 201.795L103.527 205.25L102.13 197.307L121.775 193.853L120.984 189.355L97.1509 193.546L95.7661 185.671L119.599 181.48L118.037 172.598L126.415 171.124L127.981 180.029L151.926 175.819L153.311 183.694L129.365 187.905L130.156 192.402L149.845 188.94L151.242 196.882L131.553 200.345L132.592 206.251L161.733 201.127L163.13 209.069L163.104 209.051ZM161.195 256.371C161.635 258.877 161.161 261.036 159.771 262.849C158.381 264.662 156.61 265.758 154.46 266.136L143.887 267.995L139.487 260.304C144.534 259.854 148.314 259.42 150.823 258.979C152.279 258.723 152.884 257.832 152.613 256.289L151.378 249.263L121.474 254.522L124.716 272.957L116.339 274.431L107.203 222.479L153.794 214.286L161.195 256.371ZM147.786 228.836L146.881 223.69L116.977 228.948L117.882 234.094L147.786 228.836ZM150.087 241.925L149.08 236.197L119.177 241.455L120.184 247.183L150.087 241.925Z" fill="#F1F3F5"/>
<path d="M329.506 108.058L318.042 109.907L317.089 104.962C317.814 104.387 318.318 103.745 318.635 103.037L327.605 83.0166L321.815 80.4227L323.744 76.1187L334.018 80.7217L323.325 104.588L331.616 103.385L329.52 108.064L329.506 108.058ZM340.54 74.4247L335.666 75.9256C335.55 72.3893 334.467 68.5196 332.401 64.3103L336.568 63.0097C338.985 66.8432 340.312 70.6549 340.54 74.4247ZM342.972 120.792C342.288 122.32 341.318 123.369 340.082 123.932C338.846 124.495 337.468 124.445 335.983 123.779L331.998 121.994L332.003 116.662C333.411 117.426 335.024 118.215 336.857 119.036C337.676 119.403 338.317 119.09 338.758 118.104L344.114 106.15C338.837 111.938 331.735 115.175 322.823 115.866L320.943 111.207C328.27 110.855 334.459 108.426 339.538 103.9L328.555 98.9796L330.484 94.6755L333.955 96.2306L345.058 71.4476L350.445 73.861C351.956 73.2044 353.895 71.5558 356.269 68.9353L359.514 72.2228C358.21 73.756 356.71 74.9842 355.034 75.9338L361.712 78.9258L342.952 120.8L342.972 120.792ZM353.769 84.786L355.374 81.2039L347.599 77.7206L345.994 81.3026L353.769 84.786ZM350.08 93.0192L351.841 89.0901L344.066 85.6067L342.305 89.5359L350.08 93.0192ZM346.186 101.711L348.164 97.2955L340.389 93.8122L338.411 98.2273L346.186 101.711ZM357.487 112.692L352.686 112.358C354.566 107.232 355.192 102.111 354.573 96.9825L359.297 97.4152C359.719 103.022 359.118 108.121 357.487 112.692ZM375.842 98.776L371.537 96.8477L358.008 127.045C356.366 130.711 353.803 131.78 350.318 130.219L346.278 128.408L346.231 123.119C347.773 123.993 349.582 124.904 351.665 125.837C352.525 126.223 353.205 125.86 353.702 124.75L367.095 94.8572L357.751 90.6709L359.679 86.3669L369.023 90.5531L374.497 78.3352L378.94 80.3257L373.466 92.5436L377.77 94.4719L375.842 98.776Z" fill="#F1F3F5"/>
<g clip-path="url(#clip0_159_7317)">
<path d="M1041.92 271.588C1040.53 274.501 1038.36 278.339 1035.37 283.083L1030.97 290.092L1020.53 342.347L1013.96 341.034L1022.48 298.392C1020.12 301.127 1017.31 303.455 1014.07 305.381L1008.49 300.966C1018.64 295.393 1027.92 284.43 1036.32 268.086L1041.92 271.588ZM1087.74 292.712C1085.42 298.533 1082.24 304.307 1078.23 310.039L1072.96 306.603C1073.89 305.407 1075.73 302.322 1078.47 297.365L1065.32 294.737L1056.23 340.209C1055.95 341.632 1055.18 342.957 1053.93 344.213C1052.67 345.47 1051.45 346.265 1050.26 346.603C1049.06 346.953 1047.18 346.864 1044.61 346.351C1043.36 346.101 1041.61 345.669 1039.36 345.056L1038.6 338.646L1046.23 340.169C1048.31 340.585 1049.57 339.768 1049.98 337.701L1058.83 293.439L1049.16 291.508C1045.86 296.629 1041.53 301.336 1036.16 305.633L1030.14 301.965C1040.04 294.165 1047.16 283.905 1051.5 271.202L1057.6 273.884C1056.74 276.684 1055.05 280.619 1052.53 285.676L1087.74 292.712ZM1051.79 308.179C1045.87 318.446 1038.87 325.401 1030.78 329.002L1026.53 323.77C1035.05 319.749 1041.75 313.253 1046.6 304.295L1051.79 308.166L1051.79 308.179ZM1081.14 337.023L1074.67 339.318C1073.06 327.604 1069.84 318.647 1065.02 312.454L1071.11 310.164C1076.45 317.627 1079.8 326.581 1081.14 337.023Z" fill="#F1F3F5"/>
</g>
<path d="M1164.92 124.183L1159.1 135.29L1163.37 137.531L1161.32 141.442L1157.04 139.2L1149.1 154.349L1144.36 151.866L1160.19 121.7L1164.92 124.183ZM1129.65 135.344L1140.61 114.445L1145.35 116.928L1141.6 124.058L1147.06 126.92L1150.8 119.79L1155.5 122.255L1144.53 143.155L1129.65 135.344ZM1136.4 133.982L1141.85 136.844L1145.15 130.568L1139.69 127.706L1136.4 133.982Z" fill="#42DB99"/>
<path d="M315.372 229.725L316.154 232.828L293.908 238.434L293.126 235.332L302.327 233.013L301.472 229.619L294.763 231.31L292.652 222.931L306.148 219.53L305.573 217.25L292.05 220.658L291.282 217.609L308.569 213.252L310.661 221.551L297.218 224.939L297.806 227.272L311.806 223.744L312.581 226.819L305.237 228.67L306.092 232.064L315.372 229.725Z" fill="#42DB99"/>
<path d="M1324.06 544.234L1313.66 556.139L1308.36 551.787C1308.62 550.554 1308.59 549.444 1308.31 548.427L1300.29 519.654L1291.97 521.971L1290.25 515.785L1305.02 511.674L1314.57 545.974L1322.21 537.504L1324.08 544.228L1324.06 544.234ZM1306.37 499.406L1302.57 505.216C1299.38 501.612 1294.88 498.501 1289.05 495.887L1292.29 490.901C1298.15 492.816 1302.86 495.655 1306.37 499.406ZM1349.24 545.866C1349.85 548.061 1349.75 550.003 1348.94 551.668C1348.14 553.332 1346.65 554.478 1344.51 555.072L1338.79 556.667L1334.16 551.076C1336.29 550.652 1338.67 550.076 1341.31 549.343C1342.48 549.015 1342.88 548.13 1342.49 546.714L1337.7 529.534C1337.21 540.185 1332.58 549.751 1323.85 558.225L1317.83 554.978C1325.19 548.239 1329.57 540.313 1330.95 531.156L1315.17 535.55L1313.45 529.365L1318.43 527.976L1308.52 492.359L1316.26 490.203C1317.27 488.201 1317.87 484.788 1318.08 479.979L1324.34 480.601C1324.3 483.341 1323.8 485.932 1322.87 488.384L1332.47 485.712L1349.22 545.891L1349.24 545.866ZM1329.24 498.758L1327.81 493.61L1316.63 496.721L1318.07 501.869L1329.24 498.758ZM1332.54 510.59L1330.96 504.943L1319.79 508.055L1321.36 513.702L1332.54 510.59ZM1336.01 523.081L1334.25 516.736L1323.07 519.847L1324.84 526.192L1336.01 523.081ZM1357.4 524.759L1352.08 528.584C1349.59 521.579 1345.8 515.67 1340.69 510.836L1346.01 507.181C1351.33 512.688 1355.13 518.552 1357.4 524.759ZM1364.53 494.221L1358.34 495.944L1370.43 539.342C1371.89 544.61 1370.14 547.958 1365.13 549.353L1359.32 550.969L1354.67 545.47C1357.05 545.045 1359.74 544.426 1362.73 543.592C1363.97 543.248 1364.36 542.277 1363.92 540.681L1351.96 497.722L1338.53 501.461L1336.81 495.275L1350.24 491.536L1345.35 473.977L1351.73 472.199L1356.62 489.758L1362.81 488.036L1364.53 494.221Z" fill="#F7F8FA"/>
<path d="M83.6823 480.496L85.7792 492.407L91.2729 491.44L92.2319 496.887L86.7383 497.854L89.0872 511.196L82.4395 512.366L77.0345 481.667L83.6823 480.496ZM52.4475 499.893C51.2878 493.577 55.727 488.107 62.3095 486.972C68.8378 485.799 74.7858 489.44 75.8993 495.764C77.0006 502.02 72.666 507.543 66.1296 508.67C59.5551 509.851 53.5026 506.157 52.4475 499.893ZM63.2222 527.03L60.727 512.857L67.3747 511.687L68.9352 520.551L91.4637 516.584L92.3984 521.893L63.2222 527.03ZM58.9567 498.747C59.4985 501.96 62.2052 503.411 65.1136 502.899C68.0451 502.383 69.978 500.115 69.4362 496.902C68.832 493.606 66.2529 492.203 63.3255 492.743C60.413 493.232 58.3525 495.451 58.9567 498.747ZM126.071 473.033L130.314 497.131L123.712 498.294L123.07 494.647L114.114 496.223L113.179 490.914L122.135 489.338L121.526 485.875L112.962 487.383C111.547 494.486 106.477 500.019 97.517 504.143L94.0133 499.382C103.143 495.275 106.703 490.222 106.596 484.744L94.2464 486.918L93.3199 481.655L112.94 478.201C113.168 479.494 113.314 480.729 113.359 481.935L120.607 480.659L119.469 474.196L126.071 473.033ZM103.178 511.428C102.217 506.1 107.532 501.69 116.23 500.134C124.821 498.646 131.324 500.976 132.262 506.308C133.209 511.686 127.906 516.165 119.311 517.631C110.617 519.209 104.102 516.81 103.178 511.428ZM109.826 510.258C110.253 512.681 113.36 513.3 118.392 512.414C123.332 511.545 126.018 509.906 125.615 507.478C125.165 505.058 122.076 504.412 117.141 505.305C112.105 506.168 109.399 507.834 109.826 510.258Z" fill="#42DB99"/>
<g clip-path="url(#clip1_159_7317)">
<path d="M1336.52 109.259L1336.76 109.327L1336.83 109.087L1337.68 106.096L1337.75 105.855L1337.51 105.787L1333.04 104.515L1337.48 88.9276L1337.55 88.6872L1337.31 88.6187L1325.4 85.2278L1326.31 82.0282L1341.51 86.3562L1341.75 86.4246L1341.82 86.1842L1342.67 83.18L1342.74 82.9395L1342.5 82.8711L1308.55 73.2003L1308.31 73.1318L1308.24 73.3723L1307.39 76.3635L1307.32 76.6039L1307.56 76.6724L1322.68 80.9782L1321.76 84.1778L1309.86 80.7869L1309.62 80.7184L1309.55 80.9588L1305.11 96.5458L1300.59 95.2586L1300.35 95.1902L1300.28 95.4306L1299.43 98.4218L1299.36 98.6623L1299.6 98.7307L1304.12 100.018L1301.52 109.154L1301.45 109.395L1301.69 109.463L1304.84 110.359L1305.08 110.428L1305.15 110.188L1307.75 101.051L1328.31 106.907L1327.12 111.088C1327.03 111.405 1326.9 111.576 1326.76 111.659C1326.62 111.74 1326.41 111.766 1326.11 111.681C1323.83 111.03 1322.01 110.47 1320.67 110.005L1320.34 109.888L1320.34 110.246L1320.4 113.637L1320.41 113.823L1320.58 113.873L1326.21 115.477C1327.24 115.77 1328.18 115.694 1328.99 115.218C1329.8 114.742 1330.36 113.943 1330.67 112.857L1332.05 107.987L1336.52 109.259ZM1312.26 85.2238L1320.78 87.6499L1319.61 91.7598L1311.09 89.3337L1312.26 85.2238ZM1310.1 92.7928L1318.62 95.2189L1317.25 100.018L1308.73 97.5921L1310.1 92.7928ZM1324.4 88.6832L1332.81 91.0759L1331.64 95.1859L1323.23 92.7931L1324.4 88.6832ZM1322.25 96.2522L1330.65 98.645L1329.28 103.444L1320.88 101.051L1322.25 96.2522Z" fill="#F7F8FA" stroke="#F7F8FA" stroke-width="0.5"/>
</g>
</g>
<defs>
<clipPath id="clip0_159_7317">
<rect width="78.32" height="75.9027" fill="white" transform="translate(1015.87 264) rotate(11.299)"/>
</clipPath>
<clipPath id="clip1_159_7317">
<rect width="38.39" height="36.2535" fill="white" transform="translate(1306.93 73) rotate(15.8968)"/>
</clipPath>
</defs>
</svg>
