<svg width="68" height="68" viewBox="0 0 68 68" fill="none" xmlns="http://www.w3.org/2000/svg">
<circle cx="34" cy="34" r="34" fill="#F1F3F5"/>
<path fill-rule="evenodd" clip-rule="evenodd" d="M36 25C36 23.8954 35.1046 23 34 23C32.8954 23 32 23.8954 32 25V31.9998L25 31.9998C23.8954 31.9998 23 32.8952 23 33.9998C23 35.1044 23.8954 35.9998 25 35.9998H32V43C32 44.1046 32.8954 45 34 45C35.1046 45 36 44.1046 36 43V35.9998H43C44.1046 35.9998 45 35.1044 45 33.9998C45 32.8952 44.1046 31.9998 43 31.9998H36V25Z" fill="#47515F"/>
</svg>
