<svg width="462" height="249" viewBox="0 0 462 249" fill="none" xmlns="http://www.w3.org/2000/svg">
<g filter="url(#filter0_d_244_9251)">
<rect x="36.0918" y="76" width="65.8165" height="47.4082" rx="5.95922" fill="white"/>
<path d="M65.9766 91.6858V94.0645C65.9657 96.7924 65.9657 99.4876 65.2564 103.601L62.4412 103.361C63.1941 99.5422 63.1941 96.7052 63.205 94.0645V93.9118H51.966V91.6858H65.9766ZM50.0892 107.115V104.823H68.2026V107.115H50.0892ZM87.2369 97.7309V99.935H79.5551V101.201H85.0327V106.286H73.9683V107.486H85.5565V109.581H71.2404V104.321H82.283V103.296H71.2186V101.201H76.7617V99.935H69.1235V97.7309H87.2369ZM71.3713 96.6833V90.42H84.9454V96.6833H71.3713ZM74.0992 94.5446H82.1739V92.5806H74.0992V94.5446Z" fill="#191F28"/>
<rect x="37.2092" y="77.1174" width="63.5818" height="45.1735" rx="4.84186" stroke="#E5E8EB" stroke-width="2.23471"/>
</g>
<g clip-path="url(#clip0_244_9251)">
<path d="M119.274 92.4251V99.2012H115.345V102.246C117.093 102.226 118.733 102.138 120.59 101.794L120.806 103.837C118.458 104.269 116.455 104.308 114.206 104.328H112.949V97.2175H116.858V94.4089H112.93V92.4251H119.274ZM120.02 98.7691V96.7461H121.847V90.9717H124.184V107.647H121.847V98.7691H120.02ZM125.519 108.511V90.6378H127.896V108.511H125.519ZM144.143 98.9066V100.91H131.494V92.1305H144.005V94.1535H133.969V98.9066H144.143ZM129.569 106.331V104.269H145.93V106.331H129.569ZM165.717 92.2091V94.291C165.707 96.8934 165.707 99.3682 164.892 103.247L162.397 103.012C162.751 101.529 162.957 100.213 163.085 99.0048L152.714 99.5155L152.4 97.5121L163.212 97.1193C163.252 96.1373 163.261 95.2141 163.261 94.291V94.2124H152.95V92.2091H165.717ZM151.084 106.37V104.328H167.386V106.37H151.084ZM183.181 90.6574V101.244H180.667V90.6574H183.181ZM169.138 93.6429V91.6788H177.427V97.0407H171.613V98.5924C174.598 98.5826 176.71 98.504 179.116 98.1014L179.43 100.105C176.69 100.547 174.274 100.635 170.729 100.635H169.158V95.1356H174.932V93.6429H169.138ZM171.2 108.315V102.03H183.181V108.315H171.2ZM173.675 106.311H180.726V104.013H173.675V106.311ZM199.138 92.9947C199.128 95.6168 201.455 98.4156 205.501 99.103L204.401 101.185C201.279 100.566 198.971 98.8084 197.812 96.5203C196.633 98.7888 194.316 100.556 191.222 101.185L190.142 99.103C194.119 98.396 196.447 95.5873 196.467 92.9947V91.6984H199.138V92.9947ZM189.73 106.311V104.249H206.091V106.311H189.73ZM216.033 92.1109V94.1535H210.101V97.0997H215.778V99.0638H210.101V102.442C212.655 102.413 214.746 102.305 217.133 101.931L217.368 103.954C214.638 104.367 212.203 104.445 209.08 104.445H207.568V92.1109H216.033ZM218.449 108.511V90.6378H220.963V97.4139H223.595V99.5155H220.963V108.511H218.449ZM229.078 91.1681C231.799 91.1583 233.841 92.867 233.851 95.2534C233.841 97.6202 231.799 99.3093 229.078 99.3191C226.319 99.3093 224.266 97.6202 224.266 95.2534C224.266 92.867 226.319 91.1583 229.078 91.1681ZM226.702 95.2534C226.682 96.5301 227.694 97.2863 229.078 97.2961C230.434 97.2863 231.426 96.5301 231.435 95.2534C231.426 93.9669 230.434 93.2108 229.078 93.2108C227.704 93.2108 226.682 93.9669 226.702 95.2534ZM226.957 102.265V100.34H238.958V105.192H229.452V106.351H239.449V108.315H226.996V103.365H236.463V102.265H226.957ZM236.444 99.5941V90.6378H238.958V99.5941H236.444ZM260.473 90.6378V108.55H257.939V90.6378H260.473ZM246.586 104.288V92.2091H255.287V94.2517H249.1V102.167C252.302 102.167 254.276 102.079 256.525 101.676L256.76 103.738C254.286 104.21 252.007 104.288 248.138 104.288H246.586ZM269.236 95.5087C269.227 98.229 270.68 101.372 273.616 102.737L272.222 104.701C270.228 103.787 268.814 101.961 268.009 99.8199C267.213 102.177 265.74 104.18 263.678 105.152L262.225 103.169C265.2 101.784 266.703 98.4647 266.722 95.5087V94.4089H262.932V92.3662H272.831V94.4089H269.236V95.5087ZM274.225 108.511V90.6378H276.739V97.4532H279.371V99.5548H276.739V108.511H274.225ZM294.734 90.6378V108.55H292.201V90.6378H294.734ZM280.298 98.2585C280.288 94.3597 282.282 91.8948 285.032 91.8948C287.722 91.8948 289.726 94.3597 289.726 98.2585C289.726 102.187 287.722 104.642 285.032 104.642C282.282 104.642 280.288 102.187 280.298 98.2585ZM282.714 98.2585C282.704 100.92 283.637 102.373 285.032 102.363C286.387 102.373 287.3 100.92 287.31 98.2585C287.3 95.607 286.387 94.1535 285.032 94.1535C283.637 94.1535 282.704 95.607 282.714 98.2585ZM312.003 90.6378V108.55H309.508V98.1996H304.618V96.1569H309.508V90.6378H312.003ZM297.822 104.347V92.543H300.336V102.255C302.604 102.216 304.942 102.02 307.367 101.558L307.642 103.601C304.755 104.2 302.005 104.347 299.334 104.347H297.822ZM326.034 92.484V97.1389H327.821V90.8931H330.178V107.686H327.821V99.1423H326.034V104.013H318.924V92.484H326.034ZM321.261 102.049H323.697V94.4678H321.261V102.049ZM331.514 108.511V90.6378H333.91V108.511H331.514ZM350.511 90.6378V108.55H347.977V90.6378H350.511ZM336.075 98.2585C336.065 94.3597 338.058 91.8948 340.808 91.8948C343.499 91.8948 345.502 94.3597 345.502 98.2585C345.502 102.187 343.499 104.642 340.808 104.642C338.058 104.642 336.065 102.187 336.075 98.2585ZM338.49 98.2585C338.481 100.92 339.414 102.373 340.808 102.363C342.163 102.373 343.077 100.92 343.086 98.2585C343.077 95.607 342.163 94.1535 340.808 94.1535C339.414 94.1535 338.481 95.607 338.49 98.2585ZM367.308 92.2091V94.291C367.298 96.8934 367.298 99.3682 366.483 103.247L363.988 103.012C364.342 101.529 364.548 100.213 364.676 99.0048L354.305 99.5155L353.991 97.5121L364.803 97.1193C364.843 96.1373 364.853 95.2141 364.853 94.291V94.2124H354.541V92.2091H367.308ZM352.675 106.37V104.328H368.977V106.37H352.675ZM374.795 91.4038C377.073 91.3841 378.89 92.6903 379.381 94.6053H382.376V90.6378H384.871V100.242H382.376V96.6086H379.391C378.929 98.5727 377.093 99.9083 374.795 99.9083C372.045 99.9083 370.022 98.121 370.042 95.6266C370.022 93.1813 372.045 91.3841 374.795 91.4038ZM372.418 95.6266C372.408 96.9622 373.39 97.8067 374.795 97.8067C376.15 97.8067 377.122 96.9622 377.132 95.6266C377.122 94.291 376.15 93.4759 374.795 93.4857C373.39 93.4759 372.408 94.291 372.418 95.6266ZM372.949 108.315V101.028H375.423V102.756H382.376V101.028H384.871V108.315H372.949ZM375.423 106.292H382.376V104.681H375.423V106.292Z" fill="#BCC3C9"/>
<path d="M397.115 91.8359C399.953 91.8261 402.055 93.6527 402.064 96.2158C402.055 98.7888 399.953 100.606 397.115 100.615C394.296 100.606 392.136 98.7888 392.146 96.2158C392.136 93.6527 394.296 91.8261 397.115 91.8359ZM391.399 102.854C394.591 102.864 399.01 102.825 402.83 102.285L403.027 104.092C399.059 104.868 394.817 104.897 391.694 104.897L391.399 102.854ZM394.64 96.2158C394.63 97.63 395.701 98.4451 397.115 98.4353C398.539 98.4451 399.619 97.63 399.629 96.2158C399.619 94.8213 398.539 93.9964 397.115 93.9964C395.701 93.9964 394.63 94.8213 394.64 96.2158ZM403.852 108.55V90.6378H406.346V108.55H403.852ZM415.051 95.5087C415.041 98.229 416.495 101.372 419.431 102.737L418.036 104.701C416.043 103.787 414.629 101.961 413.823 99.8199C413.028 102.177 411.555 104.18 409.493 105.152L408.039 103.169C411.015 101.784 412.517 98.4647 412.537 95.5087V94.4089H408.746V92.3662H418.645V94.4089H415.051V95.5087ZM420.04 108.511V90.6378H422.554V97.4532H425.186V99.5548H422.554V108.511H420.04Z" fill="#5A6574"/>
</g>
<g clip-path="url(#clip1_244_9251)">
<path d="M15.6867 144.066V157.677H13.1923V154.299H10.7765V152.315H13.1923V150.528H10.7765V148.504H13.1923V144.066H15.6867ZM0.661385 147.915V145.932H4.51102V144.026H7.00542V145.932H10.5997V147.915H0.661385ZM1.54523 152.06C1.52559 149.997 3.3031 148.544 5.72876 148.544C8.18388 148.544 9.95157 149.997 9.97121 152.06C9.95157 154.122 8.18388 155.556 5.72876 155.556C3.3031 155.556 1.52559 154.122 1.54523 152.06ZM3.7843 161.605V156.518H6.31799V159.602H16.0599V161.605H3.7843ZM3.8825 152.06C3.87268 153.091 4.63868 153.65 5.72876 153.65C6.80901 153.65 7.60447 153.091 7.61429 152.06C7.60447 151.058 6.80901 150.498 5.72876 150.488C4.63868 150.498 3.87268 151.058 3.8825 152.06ZM33.2104 144.046V161.919H30.8339V152.943H29.1054V161.055H26.8075V144.341H29.1054V150.94H30.8339V144.046H33.2104ZM18.2636 157.873V146.108H24.9219V148.131H20.7777V155.772C22.5061 155.742 24.0381 155.644 25.7665 155.34L25.9432 157.382C23.7631 157.795 21.8579 157.863 19.501 157.873H18.2636ZM48.7936 145.657V157.657H40.1515V145.657H48.7936ZM42.6656 155.673H46.3581V147.621H42.6656V155.673ZM51.7004 161.959V144.046H54.2341V161.959H51.7004ZM71.4239 144.046V161.919H68.9295V144.046H71.4239ZM57.361 157.5V145.755H59.8357V155.369C62.2516 155.33 64.8442 155.104 67.4761 154.593L67.7903 156.655C64.6576 157.313 61.6918 157.51 58.9322 157.5H57.361ZM82.8196 144.871V147.621H86.0996V144.046H88.594V153.002H86.0996V149.585H82.8196V152.433H74.2561V144.871H82.8196ZM76.6916 155.693V153.768H88.594V158.6H79.2253V159.759H89.1243V161.723H76.7112V156.754H86.0996V155.693H76.6916ZM76.7309 150.449H80.3252V146.815H76.7309V150.449ZM105.65 145.833V147.797H101.997C102.056 149.624 103.431 151.46 106.298 152.177L105.14 154.141C103.067 153.601 101.614 152.443 100.779 150.95C99.974 152.59 98.5108 153.876 96.3797 154.475L95.2209 152.551C98.0492 151.716 99.4044 149.771 99.4634 147.797H95.8101V145.833H99.4634V143.987H102.017V145.833H105.65ZM98.0296 161.723V155.281H110.011V161.723H98.0296ZM100.504 159.719H107.555V157.284H100.504V159.719ZM107.497 154.534V144.066H110.011V154.534H107.497ZM127.122 144.046V153.1H124.627V144.046H127.122ZM112.096 151.176C115.082 150.282 116.417 148.033 116.417 145.814V144.439H119.03V145.814C119.01 147.984 120.306 150.056 123.233 150.901L122.015 152.826C119.963 152.236 118.548 150.989 117.733 149.398C116.928 151.136 115.465 152.501 113.334 153.14L112.096 151.176ZM115.141 155.811V153.866H127.141V158.718H117.635V159.818H127.632V161.801H115.18V156.852H124.647V155.811H115.141Z" fill="#BCC3C9"/>
</g>
<g filter="url(#filter1_d_244_9251)">
<rect x="139.092" y="129.408" width="84.8165" height="47.4082" rx="5.95922" fill="white"/>
<path d="M171.421 145.727V147.996H168.846V150.048H171.421V152.339H168.846V154.871H166.052V143.261H168.846V145.727H171.421ZM153.22 149.153C153.209 146.327 155.566 144.341 158.676 144.352C161.753 144.341 164.088 146.327 164.088 149.153C164.088 151.957 161.753 153.965 158.676 153.954C155.566 153.965 153.209 151.957 153.22 149.153ZM155.533 159.214C155.523 156.737 158.185 155.275 162.342 155.264C166.423 155.275 169.031 156.737 169.042 159.214C169.031 161.658 166.423 163.131 162.342 163.12C158.185 163.131 155.523 161.658 155.533 159.214ZM155.97 149.153C155.948 150.703 157.116 151.608 158.676 151.619C160.204 151.608 161.371 150.703 161.382 149.153C161.371 147.626 160.204 146.676 158.676 146.687C157.116 146.676 155.948 147.626 155.97 149.153ZM158.327 159.214C158.305 160.381 159.734 160.916 162.342 160.916C164.917 160.916 166.292 160.381 166.292 159.214C166.292 158.057 164.917 157.479 162.342 157.468C159.734 157.479 158.305 158.057 158.327 159.214ZM188.491 144.985V146.862C188.48 149.35 188.48 152.143 187.684 156.355L184.89 156.071C185.654 152.318 185.687 149.524 185.698 147.189H174V144.985H188.491ZM172.124 160.698V158.428H178.605V151.597H181.377V158.428H190.237V160.698H172.124ZM207.853 143.261V163.12H205.037V143.261H207.853ZM191.223 157.49C196.352 155.067 198.61 151.925 199.058 147.516H192.293V145.334H201.895C201.884 151.357 199.778 156.366 192.685 159.716L191.223 157.49Z" fill="#191F28"/>
<rect x="140.209" y="130.526" width="82.5818" height="45.1735" rx="4.84186" stroke="#E5E8EB" stroke-width="2.23471"/>
</g>
<g clip-path="url(#clip2_244_9251)">
<path d="M249.798 144.066V153.297H247.421V144.066H249.798ZM235.067 152.708V145.048H237.444V146.992H239.879V145.048H242.197V147.797H243.788V144.36H246.105V153.218H243.788V149.801H242.197V152.708H235.067ZM237.444 150.783H239.879V148.858H237.444V150.783ZM237.561 155.909V153.984H249.798V158.737H240.115V159.877H250.407V161.801H237.581V156.911H247.284V155.909H237.561ZM254.574 145.244V147.738H257.01V145.244H259.328V148.446H260.938V144.4H263.295V154.613H260.938V150.488H259.328V153.788H252.198V145.244H254.574ZM253.691 159.896C257.521 159.474 259.465 157.657 259.465 155.831V155.379H261.979V155.831C261.969 157.657 263.914 159.474 267.773 159.896L266.889 161.841C263.953 161.468 261.832 160.299 260.732 158.679C259.612 160.299 257.491 161.468 254.574 161.841L253.691 159.896ZM254.574 151.804H257.01V149.663H254.574V151.804ZM264.532 156.184V144.046H266.929V156.184H264.532ZM330.687 152.315V154.318H318.038V145.539H330.55V147.562H320.513V152.315H330.687ZM316.114 159.739V157.677H332.474V159.739H316.114ZM340.079 145.833V152.609H336.151V155.654C337.899 155.634 339.539 155.546 341.395 155.202L341.611 157.245C339.264 157.677 337.261 157.716 335.012 157.736H333.755V150.626H337.664V147.817H333.735V145.833H340.079ZM340.826 152.177V150.154H342.652V144.38H344.99V161.055H342.652V152.177H340.826ZM346.325 161.919V144.046H348.702V161.919H346.325ZM365.342 144.066V154.632H362.828V144.066H365.342ZM350.316 152.217C353.302 151.254 354.618 148.858 354.618 146.54V144.812H357.23V146.54C357.21 148.76 358.497 150.911 361.433 151.785L360.196 153.768C358.153 153.12 356.749 151.863 355.943 150.253C355.148 152.06 353.695 153.513 351.573 154.22L350.316 152.217ZM353.145 158.404C353.135 156.204 355.492 154.927 359.292 154.927C363.054 154.927 365.42 156.204 365.44 158.404C365.42 160.584 363.054 161.87 359.292 161.86C355.492 161.87 353.135 160.584 353.145 158.404ZM355.639 158.404C355.639 159.435 356.916 159.916 359.292 159.916C361.649 159.916 362.955 159.435 362.965 158.404C362.955 157.363 361.649 156.872 359.292 156.872C356.916 156.872 355.639 157.363 355.639 158.404ZM379.118 146.03V147.994H374.816V150.842H378.411V152.747H374.816V155.958C376.731 155.929 378.136 155.831 379.805 155.556L380.021 157.579C377.969 157.952 376.26 157.971 373.638 157.971H372.44V146.03H379.118ZM379.255 152.57V150.567H381.259V144.36H383.596V161.114H381.259V152.57H379.255ZM384.971 161.919V144.046H387.387V161.919H384.971ZM403.987 144.046V161.959H401.454V144.046H403.987ZM389.551 151.667C389.541 147.768 391.535 145.303 394.285 145.303C396.975 145.303 398.979 147.768 398.979 151.667C398.979 155.595 396.975 158.05 394.285 158.05C391.535 158.05 389.541 155.595 389.551 151.667ZM391.967 151.667C391.957 154.328 392.89 155.781 394.285 155.772C395.64 155.781 396.553 154.328 396.563 151.667C396.553 149.015 395.64 147.562 394.285 147.562C392.89 147.562 391.957 149.015 391.967 151.667ZM410.708 144.341V145.598H417.877V144.341H420.372V150.351H408.234V144.341H410.708ZM406.152 153.277V151.333H422.454V153.277H406.152ZM408.037 156.164V154.338H420.47V158.855H410.512V159.916H420.941V161.801H408.057V157.107H417.995V156.164H408.037ZM410.708 148.485H417.877V147.405H410.708V148.485Z" fill="#BCC3C9"/>
<path d="M278.878 145.244C281.716 145.234 283.818 147.061 283.828 149.624C283.818 152.197 281.716 154.014 278.878 154.024C276.06 154.014 273.899 152.197 273.909 149.624C273.899 147.061 276.06 145.234 278.878 145.244ZM273.163 156.263C276.354 156.272 280.774 156.233 284.594 155.693L284.79 157.5C280.823 158.276 276.58 158.305 273.457 158.305L273.163 156.263ZM276.403 149.624C276.394 151.038 277.464 151.853 278.878 151.843C280.302 151.853 281.382 151.038 281.392 149.624C281.382 148.23 280.302 147.405 278.878 147.405C277.464 147.405 276.394 148.23 276.403 149.624ZM285.615 161.959V144.046H288.109V161.959H285.615ZM296.814 148.917C296.804 151.637 298.258 154.78 301.194 156.145L299.8 158.109C297.806 157.196 296.392 155.369 295.587 153.228C294.791 155.585 293.318 157.588 291.256 158.561L289.802 156.577C292.778 155.192 294.281 151.873 294.3 148.917V147.817H290.51V145.774H300.409V147.817H296.814V148.917ZM301.803 161.919V144.046H304.317V150.861H306.949V152.963H304.317V161.919H301.803ZM433.461 145.244C436.299 145.234 438.4 147.061 438.41 149.624C438.4 152.197 436.299 154.014 433.461 154.024C430.642 154.014 428.482 152.197 428.491 149.624C428.482 147.061 430.642 145.234 433.461 145.244ZM427.745 156.263C430.937 156.272 435.356 156.233 439.176 155.693L439.372 157.5C435.405 158.276 431.163 158.305 428.04 158.305L427.745 156.263ZM430.986 149.624C430.976 151.038 432.046 151.853 433.461 151.843C434.884 151.853 435.965 151.038 435.975 149.624C435.965 148.23 434.884 147.405 433.461 147.405C432.046 147.405 430.976 148.23 430.986 149.624ZM440.197 161.959V144.046H442.692V161.959H440.197ZM451.397 148.917C451.387 151.637 452.84 154.78 455.777 156.145L454.382 158.109C452.389 157.196 450.974 155.369 450.169 153.228C449.374 155.585 447.901 157.588 445.838 158.561L444.385 156.577C447.36 155.192 448.863 151.873 448.883 148.917V147.817H445.092V145.774H454.991V147.817H451.397V148.917ZM456.385 161.919V144.046H458.9V150.861H461.531V152.963H458.9V161.919H456.385Z" fill="#5A6574"/>
</g>
<circle cx="94" cy="80" r="11" fill="#77828F"/>
<path d="M92 77.6024C92.1879 77.0681 92.5589 76.6176 93.0472 76.3306C93.5355 76.0437 94.1096 75.9388 94.6678 76.0345C95.226 76.1303 95.7323 76.4205 96.097 76.8538C96.4618 77.287 96.6614 77.8354 96.6605 78.4018C96.6605 80.0006 94.2623 80.8 94.2623 80.8M94.2932 84H94.3039" stroke="white" stroke-width="2" stroke-linecap="round" stroke-linejoin="round"/>
<circle cx="219" cy="134" r="11" fill="#77828F"/>
<path d="M217 131.602C217.188 131.068 217.559 130.618 218.047 130.331C218.535 130.044 219.11 129.939 219.668 130.035C220.226 130.13 220.732 130.42 221.097 130.854C221.462 131.287 221.661 131.835 221.661 132.402C221.661 134.001 219.262 134.8 219.262 134.8M219.293 138H219.304" stroke="white" stroke-width="2" stroke-linecap="round" stroke-linejoin="round"/>
<path d="M286.089 192.018L280.637 204.088C280.339 204.75 280.823 205.5 281.549 205.5H292.451C293.177 205.5 293.661 204.75 293.363 204.088L287.911 192.018C287.557 191.233 286.443 191.233 286.089 192.018Z" fill="white"/>
<path d="M286.089 192.018L280.637 204.088C280.339 204.75 280.823 205.5 281.549 205.5H292.451C293.177 205.5 293.661 204.75 293.363 204.088L287.911 192.018C287.557 191.233 286.443 191.233 286.089 192.018Z" fill="#F04452" fill-opacity="0.1"/>
<rect x="152" y="201" width="310" height="48" rx="24" fill="white"/>
<rect x="152" y="201" width="310" height="48" rx="24" fill="#F04452" fill-opacity="0.1"/>
<path d="M172.609 224.141L173.953 219.688H175.609L174.828 224.141H172.609ZM181.05 219.172C183.308 219.164 184.98 220.617 184.988 222.656C184.98 224.703 183.308 226.148 181.05 226.156C178.808 226.148 177.089 224.703 177.097 222.656C177.089 220.617 178.808 219.164 181.05 219.172ZM176.503 227.938C179.042 227.945 182.558 227.914 185.597 227.484L185.753 228.922C182.597 229.539 179.222 229.562 176.738 229.562L176.503 227.938ZM179.081 222.656C179.073 223.781 179.925 224.43 181.05 224.422C182.183 224.43 183.042 223.781 183.05 222.656C183.042 221.547 182.183 220.891 181.05 220.891C179.925 220.891 179.073 221.547 179.081 222.656ZM186.409 232.469V218.219H188.394V232.469H186.409ZM195.319 222.094C195.311 224.258 196.467 226.758 198.803 227.844L197.694 229.406C196.108 228.68 194.983 227.227 194.342 225.523C193.709 227.398 192.538 228.992 190.897 229.766L189.741 228.188C192.108 227.086 193.303 224.445 193.319 222.094V221.219H190.303V219.594H198.178V221.219H195.319V222.094ZM199.288 232.438V218.219H201.288V223.641H203.381V225.312H201.288V232.438H199.288ZM205.681 219.688V223.969H204.009V219.688H205.681ZM217.934 218.219V222.094H219.856V223.734H217.934V228.5H215.934V218.219H217.934ZM207.2 226.156V219.359H213.622V220.953H209.2V224.547C211.778 224.531 213.192 224.445 214.778 224.109L214.981 225.703C213.192 226.07 211.552 226.156 208.403 226.156H207.2ZM208.716 232.188V227.406H210.7V230.594H218.45V232.188H208.716ZM224.203 219.219C226.125 219.219 227.562 220.797 227.844 223.359H230.312V218.219H232.281V232.469H230.312V224.953H227.867C227.656 227.688 226.188 229.359 224.203 229.359C222.047 229.359 220.5 227.406 220.516 224.281C220.5 221.18 222.047 219.219 224.203 219.219ZM222.422 224.281C222.414 226.398 223.141 227.555 224.203 227.547C225.273 227.555 225.984 226.398 225.984 224.281C225.984 222.172 225.273 221.016 224.203 221.016C223.141 221.016 222.414 222.172 222.422 224.281ZM245.397 219.641V220.781C245.381 222.117 245.381 223.867 245.006 226.234L243.037 226.078C243.366 224.016 243.397 222.492 243.412 221.234H238.022V219.641H245.397ZM237.272 227.938C238.069 227.938 238.959 227.93 239.881 227.906V223.719H241.85V227.844C243.248 227.789 244.662 227.688 245.975 227.516L246.1 229C243.17 229.492 239.952 229.547 237.459 229.531L237.272 227.938ZM246.647 232.438V218.219H248.662V223.938H250.6V225.594H248.662V232.438H246.647ZM262.244 218.219V223.5H264.338V225.125H262.244V232.469H260.244V218.219H262.244ZM251.588 229.016V219.531H258.259V221.141H253.572V227.375C255.634 227.359 257.338 227.25 259.228 226.922L259.447 228.594C257.236 228.969 255.298 229.023 252.791 229.016H251.588ZM279.422 218.234V222.234H281.344V223.875H279.422V228.703H277.422V218.234H279.422ZM268.562 226.438V219.234H270.547V221.297H273.453V219.234H275.453V226.438H268.562ZM270.203 232.188V227.625H272.188V230.594H279.938V232.188H270.203ZM270.547 224.875H273.453V222.828H270.547V224.875ZM294.738 225.266V226.875H281.769V225.266H287.238V224.062H283.425V218.562H285.394V219.859H291.097V218.562H293.081V224.062H289.238V225.266H294.738ZM283.206 229.422V227.844H293.159V232.438H291.175V229.422H283.206ZM285.394 222.5H291.097V221.328H285.394V222.5ZM304.119 221.438C304.111 223.984 305.197 226.555 307.478 227.656L306.275 229.25C304.752 228.492 303.72 227.086 303.134 225.375C302.509 227.211 301.416 228.719 299.806 229.516L298.572 227.906C300.986 226.797 302.119 224.078 302.119 221.438V219.312H304.119V221.438ZM308.103 232.438V218.219H310.103V223.703H312.197V225.391H310.103V232.438H308.103ZM325.481 224.953V226.547H312.512V224.953H315.434V223.25C314.395 222.789 313.809 222.086 313.809 221.172C313.809 219.453 315.833 218.43 318.997 218.422C322.137 218.43 324.161 219.453 324.169 221.172C324.161 222.102 323.559 222.812 322.497 223.266V224.953H325.481ZM313.997 229.844C313.997 228.203 315.864 227.289 318.981 227.297C322.052 227.289 323.919 228.203 323.934 229.844C323.919 231.523 322.052 232.422 318.981 232.422C315.864 232.422 313.997 231.523 313.997 229.844ZM315.887 221.172C315.872 221.953 316.989 222.352 318.997 222.344C320.981 222.352 322.106 221.953 322.106 221.172C322.106 220.375 320.981 219.953 318.997 219.953C316.989 219.953 315.872 220.375 315.887 221.172ZM316.028 229.844C316.02 230.57 317.012 230.938 318.981 230.938C320.911 230.938 321.927 230.57 321.934 229.844C321.927 229.141 320.911 228.805 318.981 228.797C317.012 228.805 316.02 229.141 316.028 229.844ZM317.45 224.953H320.512V223.758C320.044 223.82 319.536 223.844 318.997 223.844C318.442 223.844 317.927 223.812 317.45 223.758V224.953ZM332.625 218.938C335.625 218.945 337.977 220.57 337.984 223.031C337.977 225.516 335.625 227.133 332.625 227.125C329.617 227.133 327.281 225.516 327.281 223.031C327.281 220.57 329.617 218.945 332.625 218.938ZM326.141 230.703V229.094H339.156V230.703H326.141ZM329.219 223.031C329.211 224.578 330.648 225.5 332.625 225.5C334.586 225.5 336.008 224.578 336.016 223.031C336.008 221.508 334.586 220.547 332.625 220.562C330.648 220.547 329.211 221.508 329.219 223.031ZM352.784 229.219V230.859H339.769V229.219H345.253V227.078H341.269V222.297H349.316V220.734H341.253V219.141H351.284V223.859H343.269V225.453H351.613V227.078H347.238V229.219H352.784ZM369.884 226.422V227.984H364.322V232.438H362.353V227.984H356.869V226.422H369.884ZM358.4 225.047V218.766H360.369V220.406H366.337V218.766H368.337V225.047H358.4ZM360.369 223.453H366.337V221.969H360.369V223.453ZM378.716 219.016V220.594H375.887C375.895 222.266 376.911 223.992 379.153 224.734L378.169 226.266C376.598 225.773 375.512 224.742 374.895 223.469C374.262 224.883 373.13 226.023 371.45 226.562L370.434 224.984C372.778 224.242 373.841 222.359 373.856 220.594H370.997V219.016H378.716ZM372.731 228.906V227.312H382.497V232.438H380.512V228.906H372.731ZM378.309 223.266V221.641H380.512V218.219H382.497V226.688H380.512V223.266H378.309ZM395.422 218.219V221.641H397.344V223.297H395.422V226.547H393.422V218.219H395.422ZM384.141 221.031V219.469H387.375V218.125H389.359V219.469H392.578V221.031H384.141ZM384.828 223.953C384.828 222.438 386.266 221.438 388.359 221.438C390.43 221.438 391.859 222.438 391.859 223.953C391.859 225.469 390.43 226.469 388.359 226.469C386.266 226.469 384.828 225.469 384.828 223.953ZM386.109 232.281V227.094H388.094V228.172H393.422V227.094H395.422V232.281H386.109ZM386.781 223.953C386.773 224.641 387.406 225.008 388.359 225.016C389.32 225.008 389.969 224.641 389.969 223.953C389.969 223.289 389.32 222.891 388.359 222.906C387.406 222.891 386.773 223.289 386.781 223.953ZM388.094 230.719H393.422V229.703H388.094V230.719ZM406.444 220.453C406.436 222.18 407.444 223.836 409.694 224.531L408.631 226.078C407.123 225.578 406.069 224.609 405.459 223.367C404.842 224.797 403.741 225.922 402.116 226.469L401.038 224.906C403.413 224.117 404.428 222.227 404.444 220.266V218.969H406.444V220.453ZM403.006 229.688C402.998 227.961 404.881 226.938 407.881 226.938C410.827 226.938 412.67 227.961 412.678 229.688C412.67 231.43 410.827 232.445 407.881 232.438C404.881 232.445 402.998 231.43 403.006 229.688ZM405.006 229.688C404.991 230.492 406.014 230.875 407.881 230.875C409.725 230.875 410.709 230.492 410.709 229.688C410.709 228.914 409.725 228.5 407.881 228.5C406.014 228.5 404.991 228.914 405.006 229.688ZM410.538 226.656V218.219H412.538V221.547H414.459V223.203H412.538V226.656H410.538ZM427.853 224.875V226.453H422.353V227.672H426.306V232.281H416.384V227.672H420.369V226.453H414.884V224.875H427.853ZM416.025 220.203V218.609H426.697V220.203H424.837V222.375H426.603V223.969H416.119V222.375H417.869V220.203H416.025ZM418.353 230.688H424.353V229.219H418.353V230.688ZM419.869 222.375H422.837V220.203H419.869V222.375ZM440.497 218.219V226.547H438.513V224.734H435.856V225.766H429.106V219.266H435.856V220.297H438.513V218.219H440.497ZM430.747 229.688C430.747 227.938 432.606 226.914 435.638 226.922C438.677 226.914 440.536 227.938 440.544 229.688C440.536 231.445 438.677 232.445 435.638 232.438C432.606 232.445 430.747 231.445 430.747 229.688ZM431.091 224.188H433.903V220.844H431.091V224.188ZM432.731 229.688C432.731 230.5 433.755 230.922 435.638 230.922C437.528 230.922 438.552 230.5 438.559 229.688C438.552 228.844 437.528 228.438 435.638 228.438C433.755 228.438 432.731 228.844 432.731 229.688ZM435.856 223.125H438.513V221.875H435.856V223.125Z" fill="#F04452"/>
<path d="M70.9114 56.9815L76.3625 44.9111C76.6614 44.2492 76.1774 43.4995 75.4511 43.4995L64.5489 43.4995C63.8226 43.4995 63.3386 44.2492 63.6375 44.9111L69.0886 56.9815C69.4429 57.766 70.5571 57.766 70.9114 56.9815Z" fill="white"/>
<path d="M70.9114 56.9815L76.3625 44.9111C76.6614 44.2492 76.1774 43.4995 75.4511 43.4995L64.5489 43.4995C63.8226 43.4995 63.3386 44.2492 63.6375 44.9111L69.0886 56.9815C69.4429 57.766 70.5571 57.766 70.9114 56.9815Z" fill="#F04452" fill-opacity="0.1"/>
<rect x="11" width="296" height="48" rx="24" fill="white"/>
<rect x="11" width="296" height="48" rx="24" fill="#F04452" fill-opacity="0.1"/>
<path d="M42.7969 18.5312V20.2344C42.7891 22.1875 42.7891 24.1172 42.2812 27.0625L40.2656 26.8906C40.8047 24.1562 40.8047 22.125 40.8125 20.2344V20.125H32.7656V18.5312H42.7969ZM31.4219 29.5781V27.9375H44.3906V29.5781H31.4219ZM58.0188 22.8594V24.4375H52.5188V25.3438H56.4406V28.9844H48.5188V29.8438H56.8156V31.3438H46.5656V27.5781H54.4719V26.8438H46.55V25.3438H50.5188V24.4375H45.05V22.8594H58.0188ZM46.6594 22.1094V17.625H56.3781V22.1094H46.6594ZM48.6125 20.5781H54.3938V19.1719H48.6125V20.5781ZM61.1625 26.4375C61.1703 24.4922 61.6938 23.8984 62.6313 23.3125C63.3031 22.875 63.8266 22.3906 63.8188 21.6719C63.8266 20.8906 63.2172 20.3828 62.4594 20.375C61.7328 20.3828 61.0531 20.8672 61.0219 21.7812H58.8031C58.8422 19.5859 60.475 18.5312 62.475 18.5312C64.6547 18.5312 66.1938 19.6641 66.1938 21.5938C66.1938 22.8828 65.5297 23.6953 64.5063 24.3125C63.6234 24.8359 63.2328 25.3438 63.225 26.4375V26.6094H61.1625V26.4375ZM60.9281 28.8281C60.9125 28.1094 61.5063 27.5234 62.2406 27.5312C62.9359 27.5234 63.5375 28.1094 63.5375 28.8281C63.5375 29.5547 62.9359 30.1406 62.2406 30.1406C61.5063 30.1406 60.9125 29.5547 60.9281 28.8281ZM83.7 18.9844V20.6094H81.8563V22.0781H83.7V23.7188H81.8563V25.5312H79.8563V17.2188H81.8563V18.9844H83.7ZM70.6688 21.4375C70.6609 19.4141 72.3484 17.9922 74.575 18C76.7781 17.9922 78.45 19.4141 78.45 21.4375C78.45 23.4453 76.7781 24.8828 74.575 24.875C72.3484 24.8828 70.6609 23.4453 70.6688 21.4375ZM72.325 28.6406C72.3172 26.8672 74.2234 25.8203 77.2 25.8125C80.1219 25.8203 81.9891 26.8672 81.9969 28.6406C81.9891 30.3906 80.1219 31.4453 77.2 31.4375C74.2234 31.4453 72.3172 30.3906 72.325 28.6406ZM72.6375 21.4375C72.6219 22.5469 73.4578 23.1953 74.575 23.2031C75.6688 23.1953 76.5047 22.5469 76.5125 21.4375C76.5047 20.3438 75.6688 19.6641 74.575 19.6719C73.4578 19.6641 72.6219 20.3438 72.6375 21.4375ZM74.325 28.6406C74.3094 29.4766 75.3328 29.8594 77.2 29.8594C79.0438 29.8594 80.0281 29.4766 80.0281 28.6406C80.0281 27.8125 79.0438 27.3984 77.2 27.3906C75.3328 27.3984 74.3094 27.8125 74.325 28.6406ZM95.9219 18.4531V19.7969C95.9141 21.5781 95.9141 23.5781 95.3438 26.5938L93.3438 26.3906C93.8906 23.7031 93.9141 21.7031 93.9219 20.0312H85.5469V18.4531H95.9219ZM84.2031 29.7031V28.0781H88.8438V23.1875H90.8281V28.0781H97.1719V29.7031H84.2031ZM109.784 17.2188V31.4375H107.769V17.2188H109.784ZM97.8781 27.4062C101.55 25.6719 103.167 23.4219 103.488 20.2656H98.6438V18.7031H105.519C105.511 23.0156 104.003 26.6016 98.925 29L97.8781 27.4062ZM113.944 26.4375C113.952 24.4922 114.475 23.8984 115.412 23.3125C116.084 22.875 116.608 22.3906 116.6 21.6719C116.608 20.8906 115.998 20.3828 115.241 20.375C114.514 20.3828 113.834 20.8672 113.803 21.7812H111.584C111.623 19.5859 113.256 18.5312 115.256 18.5312C117.436 18.5312 118.975 19.6641 118.975 21.5938C118.975 22.8828 118.311 23.6953 117.287 24.3125C116.405 24.8359 116.014 25.3438 116.006 26.4375V26.6094H113.944V26.4375ZM113.709 28.8281C113.694 28.1094 114.287 27.5234 115.022 27.5312C115.717 27.5234 116.319 28.1094 116.319 28.8281C116.319 29.5547 115.717 30.1406 115.022 30.1406C114.287 30.1406 113.694 29.5547 113.709 28.8281ZM126.981 17.7344V19.1562H132.684V17.7344H134.669V23.5469H130.825V24.75H136.325V26.3438H123.356V24.75H128.825V23.5469H125.012V17.7344H126.981ZM124.919 31.1875V27.1562H126.919V29.5938H134.856V31.1875H124.919ZM126.981 21.9531H132.684V20.6875H126.981V21.9531ZM142.781 18.5938V24.0781H139.297V26.625C140.648 26.6094 141.93 26.5547 143.391 26.3281L143.531 27.9219C141.672 28.2344 140.133 28.2812 138.375 28.2812H137.391V22.4844H140.859V20.2031H137.375V18.5938H142.781ZM144.188 30.75V17.4531H146.016V22.5938H147.391V17.2188H149.281V31.4375H147.391V24.2031H146.016V30.75H144.188ZM167.069 23.8125V25.4062H154.1V23.8125H167.069ZM155.006 29.8125C158.139 29.4688 159.584 28.0078 159.584 26.5V26.2188H161.616V26.5C161.616 28.0078 163.077 29.4688 166.225 29.8125L165.506 31.375C163.162 31.0625 161.491 30.1484 160.608 28.8438C159.733 30.1484 158.061 31.0625 155.709 31.375L155.006 29.8125ZM155.303 22.875V17.8906H160.287V19.4688H157.303V21.2969C158.381 21.2656 159.311 21.1875 160.366 20.9688L160.522 22.5625C159.069 22.8516 157.842 22.875 156.194 22.875H155.303ZM161.006 22.875V17.8906H165.866V19.4688H162.991V21.3125H165.944V22.875H161.006ZM174.212 17.4219C177.486 17.4219 179.377 18.2812 179.384 19.8438C179.377 21.4297 177.486 22.2812 174.212 22.2812C170.931 22.2812 169.025 21.4297 169.025 19.8438C169.025 18.2812 170.931 17.4219 174.212 17.4219ZM167.728 24.5312V22.9531H180.697V24.5312H167.728ZM169.228 26.8125V25.3594H179.119V28.9844H171.197V29.8438H179.494V31.3438H169.244V27.5938H177.15V26.8125H169.228ZM171.119 19.8438C171.111 20.5391 172.127 20.8125 174.212 20.8125C176.314 20.8125 177.322 20.5391 177.322 19.8438C177.322 19.2109 176.314 18.875 174.212 18.875C172.127 18.875 171.111 19.2109 171.119 19.8438ZM196.125 17.2188V19.9688H198.047V21.6094H196.125V24.3281H194.125V17.2188H196.125ZM184.938 20.8594C184.93 18.9609 186.578 17.6484 188.766 17.6406C190.945 17.6484 192.578 18.9609 192.578 20.8594C192.578 22.7344 190.945 24.0781 188.766 24.0781C186.578 24.0781 184.93 22.7344 184.938 20.8594ZM186.688 26.4219V24.8906H196.125V28.7656H188.672V29.7188H196.531V31.2812H186.719V27.3281H194.141V26.4219H186.688ZM186.891 20.8594C186.875 21.8672 187.672 22.5 188.766 22.5C189.852 22.5 190.641 21.8672 190.641 20.8594C190.641 19.8672 189.852 19.2656 188.766 19.2656C187.672 19.2656 186.875 19.8672 186.891 20.8594ZM210.425 17.2188V31.4375H208.409V17.2188H210.425ZM198.519 27.4062C202.191 25.6719 203.808 23.4219 204.128 20.2656H199.284V18.7031H206.159C206.152 23.0156 204.644 26.6016 199.566 29L198.519 27.4062ZM219.509 18.2188C221.431 18.2188 222.869 19.7969 223.15 22.3594H225.619V17.2188H227.587V31.4688H225.619V23.9531H223.173C222.962 26.6875 221.494 28.3594 219.509 28.3594C217.353 28.3594 215.806 26.4062 215.822 23.2812C215.806 20.1797 217.353 18.2188 219.509 18.2188ZM217.728 23.2812C217.72 25.3984 218.447 26.5547 219.509 26.5469C220.58 26.5547 221.291 25.3984 221.291 23.2812C221.291 21.1719 220.58 20.0156 219.509 20.0156C218.447 20.0156 217.72 21.1719 217.728 23.2812ZM241.2 17.2188V31.4688H239.216V25.7344H236.778V24.0938H239.216V21.8594H236.825V20.2344H239.216V17.2188H241.2ZM229.684 19.9844V18.4062H236.075V23.875H231.7V26.6484C233.458 26.6328 235.012 26.5547 236.809 26.2812L236.966 27.9062C234.841 28.2422 233.028 28.2891 230.841 28.2812H229.716V22.3281H234.122V19.9844H229.684ZM255.844 24.1406V25.7344H250.453V28.2031H248.438V25.7344H242.828V24.1406H255.844ZM244.172 20.4375C244.172 18.6328 246.234 17.5 249.328 17.4844C252.406 17.5 254.461 18.6328 254.469 20.4375C254.461 22.25 252.406 23.375 249.328 23.375C246.234 23.375 244.172 22.25 244.172 20.4375ZM244.375 31.1875V26.9375H246.391V29.5781H254.406V31.1875H244.375ZM246.328 20.4375C246.32 21.3047 247.492 21.7734 249.328 21.7812C251.164 21.7734 252.328 21.3047 252.328 20.4375C252.328 19.5312 251.164 19.0625 249.328 19.0625C247.492 19.0625 246.32 19.5312 246.328 20.4375ZM271.944 17.2344V27.7188H269.959V22.5938H267.334V25.4688H260.569V18.1562H262.569V20.3438H265.366V18.1562H267.334V21H269.959V17.2344H271.944ZM262.475 31.1875V26.6719H264.491V29.5938H272.241V31.1875H262.475ZM262.569 23.9062H265.366V21.8594H262.569V23.9062ZM285.572 26.2656V31.4375H283.587V27.8281H275.806V26.2656H285.572ZM273.775 21.4531C273.759 19.4375 275.4 17.9688 277.556 17.9844C278.705 17.9766 279.712 18.4062 280.392 19.125H283.587V17.2188H285.572V25.625H283.587V23.8281H280.392C279.712 24.5625 278.705 24.9922 277.556 25C275.4 24.9922 273.759 23.5234 273.775 21.4531ZM275.666 21.4531C275.658 22.6172 276.447 23.2969 277.556 23.2969C278.603 23.2969 279.408 22.6172 279.416 21.4531C279.408 20.3438 278.603 19.6562 277.556 19.6562C276.447 19.6562 275.658 20.3438 275.666 21.4531ZM281.22 22.2344H283.587V20.7344H281.228C281.283 20.9609 281.306 21.2031 281.306 21.4531C281.306 21.7266 281.275 21.9844 281.22 22.2344Z" fill="#F04452"/>
<defs>
<filter id="filter0_d_244_9251" x="32.0918" y="72" width="75.8164" height="57.4082" filterUnits="userSpaceOnUse" color-interpolation-filters="sRGB">
<feFlood flood-opacity="0" result="BackgroundImageFix"/>
<feColorMatrix in="SourceAlpha" type="matrix" values="0 0 0 0 0 0 0 0 0 0 0 0 0 0 0 0 0 0 127 0" result="hardAlpha"/>
<feOffset dx="1" dy="1"/>
<feGaussianBlur stdDeviation="2.5"/>
<feComposite in2="hardAlpha" operator="out"/>
<feColorMatrix type="matrix" values="0 0 0 0 0 0 0 0 0 0 0 0 0 0 0 0 0 0 0.06 0"/>
<feBlend mode="normal" in2="BackgroundImageFix" result="effect1_dropShadow_244_9251"/>
<feBlend mode="normal" in="SourceGraphic" in2="effect1_dropShadow_244_9251" result="shape"/>
</filter>
<filter id="filter1_d_244_9251" x="135.092" y="125.408" width="94.8164" height="57.4082" filterUnits="userSpaceOnUse" color-interpolation-filters="sRGB">
<feFlood flood-opacity="0" result="BackgroundImageFix"/>
<feColorMatrix in="SourceAlpha" type="matrix" values="0 0 0 0 0 0 0 0 0 0 0 0 0 0 0 0 0 0 127 0" result="hardAlpha"/>
<feOffset dx="1" dy="1"/>
<feGaussianBlur stdDeviation="2.5"/>
<feComposite in2="hardAlpha" operator="out"/>
<feColorMatrix type="matrix" values="0 0 0 0 0 0 0 0 0 0 0 0 0 0 0 0 0 0 0.06 0"/>
<feBlend mode="normal" in2="BackgroundImageFix" result="effect1_dropShadow_244_9251"/>
<feBlend mode="normal" in="SourceGraphic" in2="effect1_dropShadow_244_9251" result="shape"/>
</filter>
<clipPath id="clip0_244_9251">
<rect x="111.908" y="78.7449" width="314" height="41.9184" rx="5.95922" fill="white"/>
</clipPath>
<clipPath id="clip1_244_9251">
<rect x="0.0917969" y="132.153" width="129" height="41.9184" rx="5.95922" fill="white"/>
</clipPath>
<clipPath id="clip2_244_9251">
<rect x="233.908" y="132.153" width="228" height="41.9184" rx="5.95922" fill="white"/>
</clipPath>
</defs>
</svg>
