<svg width="451" height="249" viewBox="0 0 451 249" fill="none" xmlns="http://www.w3.org/2000/svg">
<g clip-path="url(#clip0_244_9252)">
<g filter="url(#filter0_d_244_9252)">
<rect x="19.0918" y="76" width="122.816" height="47.4082" rx="5.95922" fill="white"/>
<path d="M49.7186 89.8745V104.147H46.9252V89.8745H49.7186ZM33.3948 96.1377C33.3948 93.2243 35.7735 91.1293 38.8288 91.1402C41.8731 91.1293 44.2519 93.2243 44.2628 96.1377C44.2519 99.0948 41.8731 101.179 38.8288 101.179C35.7735 101.179 33.3948 99.0948 33.3948 96.1377ZM36.1227 96.1377C36.1008 97.7963 37.2684 98.7565 38.8288 98.7565C40.3346 98.7565 41.5021 97.7963 41.513 96.1377C41.5021 94.5228 40.3346 93.5517 38.8288 93.5626C37.2684 93.5517 36.1008 94.5228 36.1227 96.1377ZM36.4064 109.363V102.707H39.2216V107.137H50.2423V109.363H36.4064ZM68.6219 90.3982V92.4714H66.025V95.0902H68.491V97.1634H53.8476V95.0902H56.2918V92.4714H53.7166V90.3982H68.6219ZM52.1235 100.393V98.211H70.2369V100.393H52.1235ZM54.2186 103.536V101.528H68.0327V106.438H56.9683V107.53H68.5565V109.581H54.2404V104.54H65.283V103.536H54.2186ZM59.0852 95.0902H63.2316V92.4714H59.0852V95.0902ZM87.2198 90.4637V96.3778H76.1117V98.0364H87.678V100.262H73.2965V94.2828H84.3609V92.7115H73.231V90.4637H87.2198ZM71.136 103.972V101.746H89.3148V103.972H81.5893V109.755H78.796V103.972H71.136ZM106.931 89.8745V104.387H104.159V97.338H100.831C100.274 99.6295 98.2231 101.19 95.7352 101.201C92.7236 101.19 90.4321 99.0512 90.454 96.1159C90.4321 93.1589 92.7236 91.0638 95.7352 91.0747C98.2994 91.0638 100.394 92.6897 100.875 95.0902H104.159V89.8745H106.931ZM93.0946 96.1159C93.0837 97.7636 94.2294 98.7784 95.7352 98.7784C97.1974 98.7784 98.3213 97.7636 98.3322 96.1159C98.3213 94.4574 97.1974 93.4971 95.7352 93.4971C94.2294 93.4971 93.0837 94.4574 93.0946 96.1159ZM93.7493 109.363V102.925H96.5427V107.137H107.411V109.363H93.7493ZM116.734 94.3482C116.745 98.08 118.25 101.714 121.557 103.143L119.854 105.369C117.65 104.3 116.166 102.314 115.337 99.8586C114.486 102.467 112.958 104.605 110.689 105.718L108.943 103.449C112.347 101.91 113.897 98.08 113.918 94.3482V91.3803H116.734V94.3482ZM119.331 98.3419V96.0941H123.237V89.8526H125.987V109.755H123.237V98.3419H119.331Z" fill="#191F28"/>
<rect x="20.2092" y="77.1174" width="120.582" height="45.1735" rx="4.84186" stroke="#4A7FF7" stroke-opacity="0.3" stroke-width="2.23471"/>
</g>
<path d="M167.071 92.2091V94.291C167.061 96.8934 167.061 99.3682 166.246 103.247L163.752 103.012C164.105 101.529 164.311 100.213 164.439 99.0048L154.069 99.5155L153.754 97.5121L164.567 97.1193C164.606 96.1373 164.616 95.2141 164.616 94.291V94.2124H154.304V92.2091H167.071ZM152.439 106.37V104.328H168.741V106.37H152.439ZM184.536 90.6574V101.244H182.022V90.6574H184.536ZM170.492 93.6429V91.6788H178.781V97.0407H172.967V98.5924C175.953 98.5826 178.064 98.504 180.47 98.1014L180.784 100.105C178.044 100.547 175.629 100.635 172.083 100.635H170.512V95.1356H176.287V93.6429H170.492ZM172.555 108.315V102.03H184.536V108.315H172.555ZM175.03 106.311H182.081V104.013H175.03V106.311ZM200.453 91.4038C200.453 96.2256 198.066 99.0539 192.302 100.399L191.418 98.4942C193.893 97.954 195.493 97.1586 196.485 96.1667L191.85 96.4908L191.497 94.6249L197.575 94.4187C197.683 94.075 197.762 93.7116 197.801 93.3482H192.4V91.4038H200.453ZM194.266 102.285V100.36H206.149V105.192H196.76V106.351H206.542V108.315H194.286V103.385H203.674V102.285H194.266ZM200.492 96.5104V94.4678H203.654V90.6378H206.149V99.6923H203.654V96.5104H200.492ZM223.28 90.6378V108.55H220.785V99.1227H217.898V97.08H220.785V90.6378H223.28ZM208.804 94.1535V92.1305H216.896V98.8281H211.338V102.324C213.803 102.305 215.885 102.216 218.193 101.813L218.389 103.856C215.737 104.298 213.312 104.396 210.317 104.386H208.843V96.8443H214.461V94.1535H208.804ZM244.696 90.6378V108.55H242.162V90.6378H244.696ZM230.81 104.288V92.2091H239.511V94.2517H233.324V102.167C236.525 102.167 238.499 102.079 240.748 101.676L240.984 103.738C238.509 104.21 236.231 104.288 232.362 104.288H230.81ZM253.46 95.5087C253.45 98.229 254.904 101.372 257.84 102.737L256.445 104.701C254.452 103.787 253.038 101.961 252.232 99.8199C251.437 102.177 249.964 104.18 247.902 105.152L246.448 103.169C249.424 101.784 250.926 98.4647 250.946 95.5087V94.4089H247.155V92.3662H257.054V94.4089H253.46V95.5087ZM258.449 108.511V90.6378H260.963V97.4532H263.595V99.5548H260.963V108.511H258.449ZM278.958 90.6378V108.55H276.424V90.6378H278.958ZM264.522 98.2585C264.512 94.3597 266.505 91.8948 269.255 91.8948C271.946 91.8948 273.949 94.3597 273.949 98.2585C273.949 102.187 271.946 104.642 269.255 104.642C266.505 104.642 264.512 102.187 264.522 98.2585ZM266.938 98.2585C266.928 100.92 267.861 102.373 269.255 102.363C270.61 102.373 271.524 100.92 271.534 98.2585C271.524 95.607 270.61 94.1535 269.255 94.1535C267.861 94.1535 266.928 95.607 266.938 98.2585ZM296.226 90.6378V108.55H293.732V98.1996H288.841V96.1569H293.732V90.6378H296.226ZM282.045 104.347V92.543H284.559V102.255C286.828 102.216 289.165 102.02 291.591 101.558L291.866 103.601C288.979 104.2 286.229 104.347 283.558 104.347H282.045ZM312.045 92.9947C312.035 95.6168 314.363 98.4156 318.409 99.103L317.309 101.185C314.186 100.566 311.878 98.8084 310.719 96.5203C309.541 98.7888 307.223 100.556 304.13 101.185L303.049 99.103C307.027 98.396 309.354 95.5873 309.374 92.9947V91.6984H312.045V92.9947ZM302.637 106.311V104.249H318.998V106.311H302.637ZM328.94 92.1109V94.1535H323.009V97.0997H328.685V99.0638H323.009V102.442C325.562 102.413 327.654 102.305 330.04 101.931L330.276 103.954C327.546 104.367 325.11 104.445 321.987 104.445H320.475V92.1109H328.94ZM331.356 108.511V90.6378H333.87V97.4139H336.502V99.5155H333.87V108.511H331.356ZM341.986 91.1681C344.706 91.1583 346.749 92.867 346.758 95.2534C346.749 97.6202 344.706 99.3093 341.986 99.3191C339.226 99.3093 337.174 97.6202 337.174 95.2534C337.174 92.867 339.226 91.1583 341.986 91.1681ZM339.609 95.2534C339.59 96.5301 340.601 97.2863 341.986 97.2961C343.341 97.2863 344.333 96.5301 344.343 95.2534C344.333 93.9669 343.341 93.2108 341.986 93.2108C340.611 93.2108 339.59 93.9669 339.609 95.2534ZM339.864 102.265V100.34H351.865V105.192H342.359V106.351H352.356V108.315H339.904V103.365H349.371V102.265H339.864ZM349.351 99.5941V90.6378H351.865V99.5941H349.351ZM372.712 90.6378V97.9049H375.049V99.9869H372.712V108.511H370.178V90.6378H372.712ZM358.197 103.463C359.503 103.463 361.026 103.463 362.617 103.424V101.892C360.721 101.519 359.484 100.311 359.494 98.6513C359.484 96.6577 361.291 95.2927 363.893 95.2927C366.447 95.2927 368.273 96.6577 368.293 98.6513C368.273 100.311 367.016 101.529 365.131 101.892V103.336C366.545 103.257 367.969 103.139 369.295 102.953L369.452 104.779C365.651 105.486 361.546 105.516 358.531 105.506L358.197 103.463ZM358.551 94.5856V92.6215H362.617V90.736H365.131V92.6215H369.157V94.5856H358.551ZM361.87 98.6513C361.86 99.5941 362.666 100.105 363.893 100.105C365.082 100.105 365.877 99.5941 365.877 98.6513C365.877 97.7282 365.082 97.2077 363.893 97.1979C362.666 97.2077 361.86 97.7282 361.87 98.6513ZM385.699 91.8359V93.8393H382.144C382.153 95.9212 383.42 97.9344 386.268 98.7691L385.07 100.733C383.096 100.134 381.721 98.9263 380.936 97.4041C380.14 99.2012 378.687 100.635 376.546 101.342L375.269 99.3584C378.235 98.4254 379.581 96.1078 379.61 93.8393H375.957V91.8359H385.699ZM377.744 105.035C377.734 102.854 380.091 101.588 383.872 101.597C387.594 101.588 389.892 102.854 389.902 105.035C389.892 107.225 387.594 108.521 383.872 108.511C380.091 108.521 377.734 107.225 377.744 105.035ZM380.258 105.035C380.238 106.056 381.525 106.567 383.872 106.567C386.19 106.567 387.427 106.056 387.427 105.035C387.427 104.033 386.19 103.532 383.872 103.542C381.525 103.532 380.238 104.033 380.258 105.035ZM387.211 101.244V90.6378H389.725V94.782H392.141V96.8247H389.725V101.244H387.211ZM402.853 91.8359C405.691 91.8261 407.793 93.6527 407.803 96.2158C407.793 98.7888 405.691 100.606 402.853 100.615C400.035 100.606 397.874 98.7888 397.884 96.2158C397.874 93.6527 400.035 91.8261 402.853 91.8359ZM397.138 102.854C400.329 102.864 404.748 102.825 408.569 102.285L408.765 104.092C404.798 104.868 400.555 104.897 397.432 104.897L397.138 102.854ZM400.378 96.2158C400.369 97.63 401.439 98.4451 402.853 98.4353C404.277 98.4451 405.357 97.63 405.367 96.2158C405.357 94.8213 404.277 93.9964 402.853 93.9964C401.439 93.9964 400.369 94.8213 400.378 96.2158ZM409.59 108.55V90.6378H412.084V108.55H409.59ZM420.789 95.5087C420.779 98.229 422.233 101.372 425.169 102.737L423.775 104.701C421.781 103.787 420.367 101.961 419.562 99.8199C418.766 102.177 417.293 104.18 415.231 105.152L413.777 103.169C416.753 101.784 418.256 98.4647 418.275 95.5087V94.4089H414.484V92.3662H424.384V94.4089H420.789V95.5087ZM425.778 108.511V90.6378H428.292V97.4532H430.924V99.5548H428.292V108.511H425.778Z" fill="#BCC3C9"/>
<path d="M90.1867 144.066V157.677H87.6923V154.299H85.2765V152.315H87.6923V150.528H85.2765V148.504H87.6923V144.066H90.1867ZM75.1614 147.915V145.932H79.011V144.026H81.5054V145.932H85.0997V147.915H75.1614ZM76.0452 152.06C76.0256 149.997 77.8031 148.544 80.2288 148.544C82.6839 148.544 84.4516 149.997 84.4712 152.06C84.4516 154.122 82.6839 155.556 80.2288 155.556C77.8031 155.556 76.0256 154.122 76.0452 152.06ZM78.2843 161.605V156.518H80.818V159.602H90.5599V161.605H78.2843ZM78.3825 152.06C78.3727 153.091 79.1387 153.65 80.2288 153.65C81.309 153.65 82.1045 153.091 82.1143 152.06C82.1045 151.058 81.309 150.498 80.2288 150.488C79.1387 150.498 78.3727 151.058 78.3825 152.06ZM107.71 144.046V161.919H105.334V152.943H103.605V161.055H101.307V144.341H103.605V150.94H105.334V144.046H107.71ZM92.7636 157.873V146.108H99.4219V148.131H95.2777V155.772C97.0061 155.742 98.5381 155.644 100.266 155.34L100.443 157.382C98.2631 157.795 96.3579 157.863 94.001 157.873H92.7636ZM119.695 145.048V147.031H116.14C116.15 149.133 117.427 151.303 120.245 152.236L119.008 154.161C117.034 153.542 115.669 152.246 114.893 150.645C114.098 152.423 112.674 153.857 110.562 154.534L109.286 152.551C112.232 151.618 113.567 149.251 113.587 147.031H109.993V145.048H119.695ZM112.173 157.48V155.477H124.448V161.919H121.954V157.48H112.173ZM119.185 150.39V148.347H121.954V144.046H124.448V154.691H121.954V150.39H119.185ZM141.481 144.066V156.911H138.967V144.066H141.481ZM126.79 149.703C126.79 147.081 128.931 145.195 131.68 145.205C134.42 145.195 136.561 147.081 136.571 149.703C136.561 152.364 134.42 154.24 131.68 154.24C128.931 154.24 126.79 152.364 126.79 149.703ZM129.245 149.703C129.225 151.195 130.276 152.06 131.68 152.06C133.035 152.06 134.086 151.195 134.096 149.703C134.086 148.249 133.035 147.375 131.68 147.385C130.276 147.375 129.225 148.249 129.245 149.703ZM129.5 161.605V155.615H132.034V159.602H141.952V161.605H129.5ZM162.21 144.046V149.054H164.626V151.117H162.21V156.852H159.677V144.046H162.21ZM147.912 153.12C151.918 152.01 154.187 149.938 154.58 147.424H148.697V145.382H157.339C157.329 150.213 154.315 153.592 148.953 155.104L147.912 153.12ZM150.583 161.605V155.536H153.116V159.602H162.819V161.605H150.583ZM180.225 144.046V153.042H177.73V151.667H173.645V149.762H177.73V148.19H173.842C172.732 150.871 170.179 152.59 166.221 153.454L165.376 151.411C169.471 150.606 171.357 148.907 171.691 146.756H166.378V144.733H174.47C174.47 145.274 174.431 145.794 174.352 146.285H177.73V144.046H180.225ZM168.342 155.654V153.69H180.225V158.58H170.876V159.759H180.618V161.743H168.362V156.734H177.711V155.654H168.342ZM196.472 144.066V149.545H198.888V151.588H196.472V157.402H193.958V144.066H196.472ZM182.291 147.915V145.932H186.357V144.026H188.851V145.932H192.897V147.915H182.291ZM183.155 152.001C183.155 149.928 184.992 148.544 187.594 148.544C190.187 148.544 191.994 149.928 191.994 152.001C191.994 154.063 190.187 155.418 187.594 155.418C184.992 155.418 183.155 154.063 183.155 152.001ZM184.884 161.605V156.381H187.378V159.602H197.12V161.605H184.884ZM185.61 152.001C185.601 152.983 186.396 153.513 187.594 153.513C188.802 153.513 189.617 152.983 189.617 152.001C189.617 151.009 188.802 150.459 187.594 150.449C186.396 150.459 185.601 151.009 185.61 152.001ZM214.412 145.833V147.797H210.759C210.818 149.624 212.193 151.46 215.06 152.177L213.901 154.141C211.829 153.601 210.376 152.443 209.541 150.95C208.736 152.59 207.272 153.876 205.141 154.475L203.983 152.551C206.811 151.716 208.166 149.771 208.225 147.797H204.572V145.833H208.225V143.987H210.778V145.833H214.412ZM206.791 161.723V155.281H218.772V161.723H206.791ZM209.266 159.719H216.317V157.284H209.266V159.719ZM216.258 154.534V144.066H218.772V154.534H216.258ZM235.883 144.046V153.1H233.389V144.046H235.883ZM220.858 151.176C223.844 150.282 225.179 148.033 225.179 145.814V144.439H227.791V145.814C227.772 147.984 229.068 150.056 231.995 150.901L230.777 152.826C228.724 152.236 227.31 150.989 226.495 149.398C225.69 151.136 224.227 152.501 222.096 153.14L220.858 151.176ZM223.902 155.811V153.866H235.903V158.718H226.397V159.818H236.394V161.801H223.942V156.852H233.409V155.811H223.902Z" fill="#BCC3C9"/>
<g filter="url(#filter1_d_244_9252)">
<rect x="248.592" y="129.408" width="65.8165" height="47.4082" rx="5.95922" fill="white"/>
<path d="M280.921 145.727V147.996H278.346V150.048H280.921V152.339H278.346V154.871H275.552V143.261H278.346V145.727H280.921ZM262.72 149.153C262.709 146.327 265.066 144.341 268.176 144.352C271.253 144.341 273.588 146.327 273.588 149.153C273.588 151.957 271.253 153.965 268.176 153.954C265.066 153.965 262.709 151.957 262.72 149.153ZM265.033 159.214C265.023 156.737 267.685 155.275 271.842 155.264C275.923 155.275 278.531 156.737 278.542 159.214C278.531 161.658 275.923 163.131 271.842 163.12C267.685 163.131 265.023 161.658 265.033 159.214ZM265.47 149.153C265.448 150.703 266.616 151.608 268.176 151.619C269.704 151.608 270.871 150.703 270.882 149.153C270.871 147.626 269.704 146.676 268.176 146.687C266.616 146.676 265.448 147.626 265.47 149.153ZM267.827 159.214C267.805 160.381 269.234 160.916 271.842 160.916C274.417 160.916 275.792 160.381 275.792 159.214C275.792 158.057 274.417 157.479 271.842 157.468C269.234 157.479 267.805 158.057 267.827 159.214ZM291.771 144.352V146.534H285.333V147.756H291.182V149.83H285.333V151.183C288.258 151.172 290.211 151.128 292.492 150.79L292.688 152.972C290.058 153.365 287.81 153.387 284.111 153.387H282.562V144.352H291.771ZM285.137 156.639V154.5H298.362V159.716H287.952V160.85H298.951V162.989H285.159V157.708H295.59V156.639H285.137ZM292.361 149.677V147.495H295.59V143.261H298.362V153.78H295.59V149.677H292.361Z" fill="#191F28"/>
<rect x="249.709" y="130.526" width="63.5818" height="45.1735" rx="4.84186" stroke="#4A7FF7" stroke-opacity="0.3" stroke-width="2.23471"/>
</g>
<g clip-path="url(#clip1_244_9252)">
<path d="M339.237 144.046V151.313H341.574V153.395H339.237V161.919H336.703V144.046H339.237ZM324.722 156.872C326.029 156.872 327.551 156.872 329.142 156.832V155.3C327.246 154.927 326.009 153.719 326.019 152.06C326.009 150.066 327.816 148.701 330.418 148.701C332.972 148.701 334.798 150.066 334.818 152.06C334.798 153.719 333.541 154.937 331.656 155.3V156.744C333.07 156.665 334.494 156.547 335.82 156.361L335.977 158.187C332.176 158.895 328.071 158.924 325.056 158.914L324.722 156.872ZM325.076 147.994V146.03H329.142V144.144H331.656V146.03H335.682V147.994H325.076ZM328.395 152.06C328.386 153.002 329.191 153.513 330.418 153.513C331.607 153.513 332.402 153.002 332.402 152.06C332.402 151.136 331.607 150.616 330.418 150.606C329.191 150.616 328.386 151.136 328.395 152.06ZM352.224 145.244V147.247H348.669C348.679 149.329 349.945 151.343 352.793 152.177L351.595 154.141C349.621 153.542 348.246 152.334 347.461 150.812C346.665 152.609 345.212 154.043 343.071 154.75L341.794 152.767C344.76 151.834 346.106 149.516 346.135 147.247H342.482V145.244H352.224ZM344.269 158.443C344.259 156.263 346.616 154.996 350.397 155.006C354.119 154.996 356.417 156.263 356.427 158.443C356.417 160.633 354.119 161.929 350.397 161.919C346.616 161.929 344.259 160.633 344.269 158.443ZM346.783 158.443C346.764 159.464 348.05 159.975 350.397 159.975C352.715 159.975 353.952 159.464 353.952 158.443C353.952 157.441 352.715 156.94 350.397 156.95C348.05 156.94 346.764 157.441 346.783 158.443ZM353.736 154.652V144.046H356.25V148.19H358.666V150.233H356.25V154.652H353.736ZM374.658 144.046V161.919H372.281V152.943H370.553V161.055H368.255V144.341H370.553V150.94H372.281V144.046H374.658ZM359.711 157.873V146.108H366.369V148.131H362.225V155.772C363.953 155.742 365.485 155.644 367.214 155.34L367.391 157.382C365.21 157.795 363.305 157.863 360.948 157.873H359.711Z" fill="#BCC3C9"/>
</g>
</g>
<circle cx="137" cy="80" r="11" fill="#4A7FF7"/>
<path d="M140.5 77.8L136.681 82.8348L134.019 79.9991" stroke="white" stroke-width="2" stroke-linecap="round" stroke-linejoin="round"/>
<circle cx="309" cy="134" r="11" fill="#4A7FF7"/>
<path d="M312.5 131.8L308.681 136.835L306.019 133.999" stroke="white" stroke-width="2" stroke-linecap="round" stroke-linejoin="round"/>
<path d="M208.089 192.018L202.637 204.088C202.339 204.75 202.823 205.5 203.549 205.5H214.451C215.177 205.5 215.661 204.75 215.363 204.088L209.911 192.018C209.557 191.233 208.443 191.233 208.089 192.018Z" fill="white"/>
<path d="M208.089 192.018L202.637 204.088C202.339 204.75 202.823 205.5 203.549 205.5H214.451C215.177 205.5 215.661 204.75 215.363 204.088L209.911 192.018C209.557 191.233 208.443 191.233 208.089 192.018Z" fill="#4A7FF7" fill-opacity="0.1"/>
<rect x="174" y="201" width="242" height="48" rx="24" fill="white"/>
<rect x="174" y="201" width="242" height="48" rx="24" fill="#4A7FF7" fill-opacity="0.1"/>
<path d="M202.625 219.016V220.594H199.797C199.805 222.266 200.82 223.992 203.062 224.734L202.078 226.266C200.508 225.773 199.422 224.742 198.805 223.469C198.172 224.883 197.039 226.023 195.359 226.562L194.344 224.984C196.688 224.242 197.75 222.359 197.766 220.594H194.906V219.016H202.625ZM196.641 228.906V227.312H206.406V232.438H204.422V228.906H196.641ZM202.219 223.266V221.641H204.422V218.219H206.406V226.688H204.422V223.266H202.219ZM219.363 218.219V221.594H221.253V223.219H219.363V226.453H217.331V218.219H219.363ZM208.55 225.688V219.172H214.941V220.766H210.534V224.078C213.175 224.062 214.62 223.977 216.206 223.641L216.378 225.234C214.62 225.617 212.948 225.68 209.738 225.688H208.55ZM209.8 229.547C209.792 227.758 211.698 226.703 214.675 226.703C217.597 226.703 219.464 227.758 219.472 229.547C219.464 231.375 217.597 232.445 214.675 232.438C211.698 232.445 209.792 231.375 209.8 229.547ZM211.769 229.547C211.761 230.406 212.808 230.859 214.675 230.859C216.48 230.859 217.527 230.406 217.534 229.547C217.527 228.711 216.48 228.273 214.675 228.281C212.808 228.273 211.761 228.711 211.769 229.547ZM232.959 218.234V222.594H234.881V224.219H232.959V228.844H230.959V218.234H232.959ZM221.678 221.297V219.719H224.913V218.203H226.897V219.719H230.116V221.297H221.678ZM222.366 224.547C222.366 222.898 223.827 221.797 225.897 221.797C227.959 221.797 229.397 222.898 229.397 224.547C229.397 226.188 227.959 227.266 225.897 227.266C223.827 227.266 222.366 226.188 222.366 224.547ZM223.741 232.188V228.031H225.725V230.594H233.475V232.188H223.741ZM224.319 224.547C224.311 225.328 224.944 225.75 225.897 225.75C226.858 225.75 227.506 225.328 227.506 224.547C227.506 223.758 226.858 223.32 225.897 223.312C224.944 223.32 224.311 223.758 224.319 224.547ZM250.075 218.234V222.234H251.997V223.875H250.075V228.703H248.075V218.234H250.075ZM239.216 226.438V219.234H241.2V221.297H244.106V219.234H246.106V226.438H239.216ZM240.856 232.188V227.625H242.841V230.594H250.591V232.188H240.856ZM241.2 224.875H244.106V222.828H241.2V224.875ZM265.391 225.266V226.875H252.422V225.266H257.891V224.062H254.078V218.562H256.047V219.859H261.75V218.562H263.734V224.062H259.891V225.266H265.391ZM253.859 229.422V227.844H263.812V232.438H261.828V229.422H253.859ZM256.047 222.5H261.75V221.328H256.047V222.5ZM274.05 219.641V220.781C274.034 222.117 274.034 223.867 273.659 226.234L271.691 226.078C272.019 224.016 272.05 222.492 272.066 221.234H266.675V219.641H274.05ZM265.925 227.938C266.722 227.938 267.613 227.93 268.534 227.906V223.719H270.503V227.844C271.902 227.789 273.316 227.688 274.628 227.516L274.753 229C271.823 229.492 268.605 229.547 266.113 229.531L265.925 227.938ZM275.3 232.438V218.219H277.316V223.938H279.253V225.594H277.316V232.438H275.3ZM288.416 222.094C288.408 224.258 289.564 226.758 291.9 227.844L290.791 229.406C289.205 228.68 288.08 227.227 287.439 225.523C286.806 227.398 285.634 228.992 283.994 229.766L282.838 228.188C285.205 227.086 286.4 224.445 286.416 222.094V221.219H283.4V219.594H291.275V221.219H288.416V222.094ZM292.384 232.438V218.219H294.384V223.641H296.478V225.312H294.384V232.438H292.384ZM308.778 218.234V228.625H306.794V225.25H303.544C302.856 225.977 301.872 226.422 300.762 226.422C298.606 226.422 296.966 224.859 296.981 222.75C296.966 220.609 298.606 219.055 300.762 219.047C301.864 219.055 302.848 219.492 303.536 220.219H306.794V218.234H308.778ZM298.872 222.75C298.864 223.938 299.653 224.656 300.762 224.656C301.809 224.656 302.614 223.938 302.622 222.75C302.614 221.547 301.809 220.828 300.762 220.828C299.653 220.828 298.864 221.547 298.872 222.75ZM299.341 232.188V227.578H301.341V230.594H309.122V232.188H299.341ZM304.395 221.812C304.473 222.109 304.512 222.422 304.512 222.75C304.512 223.062 304.473 223.367 304.403 223.656H306.794V221.812H304.395ZM317.906 220.094C317.898 222.18 319.75 224.406 322.969 224.953L322.094 226.609C319.609 226.117 317.773 224.719 316.852 222.898C315.914 224.703 314.07 226.109 311.609 226.609L310.75 224.953C313.914 224.391 315.766 222.156 315.781 220.094V219.062H317.906V220.094ZM310.422 230.688V229.047H323.438V230.688H310.422ZM336.034 218.219V232.469H334.05V224.969H331.753V223.344H334.05V218.219H336.034ZM324.519 221.016V219.406H330.956V224.734H326.534V227.516C328.495 227.5 330.152 227.43 331.988 227.109L332.144 228.734C330.034 229.086 328.105 229.164 325.722 229.156H324.55V223.156H329.019V221.016H324.519ZM350.678 225.141V226.734H345.288V229.203H343.272V226.734H337.663V225.141H350.678ZM339.006 221.438C339.006 219.633 341.069 218.5 344.163 218.484C347.241 218.5 349.295 219.633 349.303 221.438C349.295 223.25 347.241 224.375 344.163 224.375C341.069 224.375 339.006 223.25 339.006 221.438ZM339.209 232.188V227.938H341.225V230.578H349.241V232.188H339.209ZM341.163 221.438C341.155 222.305 342.327 222.773 344.163 222.781C345.998 222.773 347.163 222.305 347.163 221.438C347.163 220.531 345.998 220.062 344.163 220.062C342.327 220.062 341.155 220.531 341.163 221.438ZM359.981 220.453C359.973 222.18 360.981 223.836 363.231 224.531L362.169 226.078C360.661 225.578 359.606 224.609 358.997 223.367C358.38 224.797 357.278 225.922 355.653 226.469L354.575 224.906C356.95 224.117 357.966 222.227 357.981 220.266V218.969H359.981V220.453ZM356.544 229.688C356.536 227.961 358.419 226.938 361.419 226.938C364.364 226.938 366.208 227.961 366.216 229.688C366.208 231.43 364.364 232.445 361.419 232.438C358.419 232.445 356.536 231.43 356.544 229.688ZM358.544 229.688C358.528 230.492 359.552 230.875 361.419 230.875C363.262 230.875 364.247 230.492 364.247 229.688C364.247 228.914 363.262 228.5 361.419 228.5C359.552 228.5 358.528 228.914 358.544 229.688ZM364.075 226.656V218.219H366.075V221.547H367.997V223.203H366.075V226.656H364.075ZM381.391 224.875V226.453H375.891V227.672H379.844V232.281H369.922V227.672H373.906V226.453H368.422V224.875H381.391ZM369.562 220.203V218.609H380.234V220.203H378.375V222.375H380.141V223.969H369.656V222.375H371.406V220.203H369.562ZM371.891 230.688H377.891V229.219H371.891V230.688ZM373.406 222.375H376.375V220.203H373.406V222.375ZM394.034 218.219V226.547H392.05V224.734H389.394V225.766H382.644V219.266H389.394V220.297H392.05V218.219H394.034ZM384.284 229.688C384.284 227.938 386.144 226.914 389.175 226.922C392.214 226.914 394.073 227.938 394.081 229.688C394.073 231.445 392.214 232.445 389.175 232.438C386.144 232.445 384.284 231.445 384.284 229.688ZM384.628 224.188H387.441V220.844H384.628V224.188ZM386.269 229.688C386.269 230.5 387.292 230.922 389.175 230.922C391.066 230.922 392.089 230.5 392.097 229.688C392.089 228.844 391.066 228.438 389.175 228.438C387.292 228.438 386.269 228.844 386.269 229.688ZM389.394 223.125H392.05V221.875H389.394V223.125Z" fill="#4A7FF7"/>
<path d="M65.9114 56.9815L71.3625 44.9111C71.6614 44.2492 71.1774 43.4995 70.4511 43.4995L59.5489 43.4995C58.8226 43.4995 58.3386 44.2492 58.6375 44.9111L64.0886 56.9815C64.4429 57.766 65.5571 57.766 65.9114 56.9815Z" fill="white"/>
<path d="M65.9114 56.9815L71.3625 44.9111C71.6614 44.2492 71.1774 43.4995 70.4511 43.4995L59.5489 43.4995C58.8226 43.4995 58.3386 44.2492 58.6375 44.9111L64.0886 56.9815C64.4429 57.766 65.5571 57.766 65.9114 56.9815Z" fill="#4A7FF7" fill-opacity="0.1"/>
<rect x="6" width="357" height="48" rx="24" fill="white"/>
<rect x="6" width="357" height="48" rx="24" fill="#4A7FF7" fill-opacity="0.1"/>
<path d="M38.3281 17.2344V27.4531H36.3281V17.2344H38.3281ZM26.6406 21.7188C26.6406 19.6328 28.3438 18.1328 30.5312 18.1406C32.7109 18.1328 34.4141 19.6328 34.4219 21.7188C34.4141 23.8359 32.7109 25.3281 30.5312 25.3281C28.3438 25.3281 26.6406 23.8359 26.6406 21.7188ZM28.5938 21.7188C28.5781 22.9062 29.4141 23.5938 30.5312 23.5938C31.6094 23.5938 32.4453 22.9062 32.4531 21.7188C32.4453 20.5625 31.6094 19.8672 30.5312 19.875C29.4141 19.8672 28.5781 20.5625 28.5938 21.7188ZM28.7969 31.1875V26.4219H30.8125V29.5938H38.7031V31.1875H28.7969ZM51.8625 17.6094V19.0938H50.0031V20.9688H51.7688V22.4531H41.2844V20.9688H43.0344V19.0938H41.1906V17.6094H51.8625ZM40.05 24.7656V23.2031H53.0188V24.7656H40.05ZM41.55 27.0156V25.5781H51.4406V29.0938H43.5188V29.875H51.8156V31.3438H41.5656V27.7344H49.4719V27.0156H41.55ZM45.0344 20.9688H48.0031V19.0938H45.0344V20.9688ZM65.1781 17.6562V21.8906H57.225V23.0781H65.5063V24.6719H55.2094V20.3906H63.1313V19.2656H55.1625V17.6562H65.1781ZM53.6625 27.3281V25.7344H66.6781V27.3281H61.1469V31.4688H59.1469V27.3281H53.6625ZM79.2906 17.2344V27.625H77.3063V22.5781H74.9234C74.525 24.2188 73.0563 25.3359 71.275 25.3438C69.1188 25.3359 67.4781 23.8047 67.4938 21.7031C67.4781 19.5859 69.1188 18.0859 71.275 18.0938C73.1109 18.0859 74.6109 19.25 74.9547 20.9688H77.3063V17.2344H79.2906ZM69.3844 21.7031C69.3766 22.8828 70.1969 23.6094 71.275 23.6094C72.3219 23.6094 73.1266 22.8828 73.1344 21.7031C73.1266 20.5156 72.3219 19.8281 71.275 19.8281C70.1969 19.8281 69.3766 20.5156 69.3844 21.7031ZM69.8531 31.1875V26.5781H71.8531V29.5938H79.6344V31.1875H69.8531ZM86.3094 20.4375C86.3172 23.1094 87.3953 25.7109 89.7625 26.7344L88.5438 28.3281C86.9656 27.5625 85.9031 26.1406 85.3094 24.3828C84.7 26.25 83.6063 27.7812 81.9813 28.5781L80.7313 26.9531C83.1688 25.8516 84.2781 23.1094 84.2938 20.4375V18.3125H86.3094V20.4375ZM88.1688 23.2969V21.6875H90.9656V17.2188H92.9344V31.4688H90.9656V23.2969H88.1688ZM97.7969 18.6875L97.5938 26.6094H95.5938L95.3906 18.6875H97.7969ZM95.2969 28.8281C95.2812 28.1094 95.875 27.5234 96.6094 27.5312C97.3047 27.5234 97.9062 28.1094 97.9062 28.8281C97.9062 29.5547 97.3047 30.1406 96.6094 30.1406C95.875 30.1406 95.2812 29.5547 95.2969 28.8281ZM115.881 18.9844V20.6094H114.037V22.0781H115.881V23.7188H114.037V25.5312H112.037V17.2188H114.037V18.9844H115.881ZM102.85 21.4375C102.842 19.4141 104.53 17.9922 106.756 18C108.959 17.9922 110.631 19.4141 110.631 21.4375C110.631 23.4453 108.959 24.8828 106.756 24.875C104.53 24.8828 102.842 23.4453 102.85 21.4375ZM104.506 28.6406C104.498 26.8672 106.405 25.8203 109.381 25.8125C112.303 25.8203 114.17 26.8672 114.178 28.6406C114.17 30.3906 112.303 31.4453 109.381 31.4375C106.405 31.4453 104.498 30.3906 104.506 28.6406ZM104.819 21.4375C104.803 22.5469 105.639 23.1953 106.756 23.2031C107.85 23.1953 108.686 22.5469 108.694 21.4375C108.686 20.3438 107.85 19.6641 106.756 19.6719C105.639 19.6641 104.803 20.3438 104.819 21.4375ZM106.506 28.6406C106.491 29.4766 107.514 29.8594 109.381 29.8594C111.225 29.8594 112.209 29.4766 112.209 28.6406C112.209 27.8125 111.225 27.3984 109.381 27.3906C107.514 27.3984 106.491 27.8125 106.506 28.6406ZM123.65 18V19.5625H119.041V20.4375H123.228V21.9219H119.041V22.8906C121.134 22.8828 122.533 22.8516 124.166 22.6094L124.306 24.1719C122.423 24.4531 120.814 24.4688 118.166 24.4688H117.056V18H123.65ZM118.9 26.7969V25.2656H128.369V29H120.916V29.8125H128.791V31.3438H118.916V27.5625H126.384V26.7969H118.9ZM124.072 21.8125V20.25H126.384V17.2188H128.369V24.75H126.384V21.8125H124.072ZM133.247 18.6875L133.044 26.6094H131.044L130.841 18.6875H133.247ZM130.747 28.8281C130.731 28.1094 131.325 27.5234 132.059 27.5312C132.755 27.5234 133.356 28.1094 133.356 28.8281C133.356 29.5547 132.755 30.1406 132.059 30.1406C131.325 30.1406 130.731 29.5547 130.747 28.8281ZM149.472 17.2188V20H151.409V21.6094H149.472V24.4219H147.472V17.2188H149.472ZM138.019 23C139.495 22.0391 140.23 21.0859 140.456 19.4844H138.55V17.8906H142.378C142.37 20.8047 141.605 22.6094 139.316 24.25L138.019 23ZM139.956 26.5156V24.9688H149.472V28.8125H141.972V29.7188H149.972V31.2812H139.988V27.3438H147.519V26.5156H139.956ZM142.066 23.4531C143.589 22.3125 144.308 21.2188 144.519 19.4844H142.894V17.8906H146.456C146.448 20.8906 145.722 22.8594 143.441 24.5938L142.066 23.4531ZM164.803 22.8906V24.4844H151.834V22.8906H155.248C155.694 21.375 155.803 20.2344 155.827 19.3281H153.053V17.7344H157.787V18.5625C157.787 19.5547 157.787 20.9766 157.241 22.8906H160.912C161.287 21.3828 161.366 20.2578 161.389 19.3281H158.6V17.7344H163.334V18.6719C163.327 19.7109 163.327 21.0781 162.905 22.8906H164.803ZM153.381 31.2031V25.9375H163.256V31.2031H153.381ZM155.334 29.6406H161.272V27.5156H155.334V29.6406ZM176.681 17.2188V22.7812H178.775V24.4219H176.681V31.4375H174.712V17.2188H176.681ZM165.384 20.9375V19.3438H168.603V17.4375H170.603V19.3438H173.744V20.9375H165.384ZM165.962 25.125C165.955 23.1406 167.502 21.7266 169.603 21.7344C171.673 21.7266 173.228 23.1406 173.228 25.125C173.228 27.1094 171.673 28.5078 169.603 28.5156C167.502 28.5078 165.955 27.1094 165.962 25.125ZM167.869 25.125C167.869 26.2266 168.595 26.8828 169.603 26.875C170.595 26.8828 171.322 26.2266 171.322 25.125C171.322 24.0312 170.595 23.3594 169.603 23.3438C168.595 23.3594 167.869 24.0312 167.869 25.125ZM190.809 18.4531V19.7969C190.802 21.5781 190.802 23.5781 190.231 26.5938L188.231 26.3906C188.778 23.7031 188.802 21.7031 188.809 20.0312H180.434V18.4531H190.809ZM179.091 29.7031V28.0781H183.731V23.1875H185.716V28.0781H192.059V29.7031H179.091ZM208.191 17.2188V25.6562H206.206V22.2969H203.988V20.6875H206.206V17.2188H208.191ZM196.113 24.0938C198.441 23.3125 199.503 21.4531 199.55 19.6719H196.691V18.0781H204.409V19.6719H201.581C201.62 21.3281 202.636 23 204.847 23.7344L203.863 25.2969C202.3 24.7891 201.214 23.7578 200.597 22.4844C199.972 23.9297 198.831 25.0938 197.144 25.6719L196.113 24.0938ZM198.441 28.7188C198.441 26.9922 200.3 25.9766 203.331 25.9688C206.37 25.9766 208.23 26.9922 208.238 28.7188C208.23 30.4453 206.37 31.4531 203.331 31.4531C200.3 31.4531 198.441 30.4453 198.441 28.7188ZM200.425 28.7188C200.425 29.5312 201.448 29.9375 203.331 29.9375C205.222 29.9375 206.245 29.5312 206.253 28.7188C206.245 27.8984 205.222 27.4922 203.331 27.5C201.448 27.4922 200.425 27.8984 200.425 28.7188ZM221.209 17.2344V21.2969H223.022V22.9375H221.209V26.8906H219.209V17.2344H221.209ZM209.678 25.0625C210.717 25.0625 211.897 25.0625 213.131 25.0312V24.2344C211.584 24.0156 210.623 23.2578 210.631 22.1719C210.623 20.8516 212.006 20.0391 214.116 20.0469C216.209 20.0391 217.592 20.8516 217.6 22.1719C217.592 23.2578 216.639 24.0078 215.116 24.2266V24.9609C216.288 24.8984 217.459 24.8125 218.553 24.6719L218.694 26.0469C215.686 26.5781 212.389 26.6094 209.881 26.6094L209.678 25.0625ZM210.053 19.7188V18.2656H213.131V17.1094H215.116V18.2656H218.194V19.7188H210.053ZM211.491 29V27.4688H221.209V31.4375H219.209V29H211.491ZM212.538 22.1719C212.53 22.6875 213.1 22.9922 214.116 22.9844C215.116 22.9922 215.686 22.6875 215.694 22.1719C215.686 21.6172 215.116 21.375 214.116 21.375C213.1 21.375 212.53 21.6172 212.538 22.1719ZM234.744 17.2344V21.5938H236.666V23.2188H234.744V27.8438H232.744V17.2344H234.744ZM223.462 20.2969V18.7188H226.697V17.2031H228.681V18.7188H231.9V20.2969H223.462ZM224.15 23.5469C224.15 21.8984 225.611 20.7969 227.681 20.7969C229.744 20.7969 231.181 21.8984 231.181 23.5469C231.181 25.1875 229.744 26.2656 227.681 26.2656C225.611 26.2656 224.15 25.1875 224.15 23.5469ZM225.525 31.1875V27.0312H227.509V29.5938H235.259V31.1875H225.525ZM226.103 23.5469C226.095 24.3281 226.728 24.75 227.681 24.75C228.642 24.75 229.291 24.3281 229.291 23.5469C229.291 22.7578 228.642 22.3203 227.681 22.3125C226.728 22.3203 226.095 22.7578 226.103 23.5469ZM246.281 24.9062V27.0469C247.453 26.9766 248.625 26.8672 249.734 26.7031L249.891 28.1562C246.734 28.7578 243.359 28.7891 240.875 28.7969L240.641 27.1875C241.711 27.1875 242.969 27.1797 244.297 27.1406V24.9062H246.281ZM240.922 23.8438C243.07 23.2734 244.117 21.9453 244.25 20.5H241.375V18.8906H244.297V17.3438H246.281V18.8906H249.219V20.5H246.312C246.445 21.875 247.508 23.1641 249.656 23.6875L248.75 25.2344C247.086 24.8125 245.938 23.8906 245.289 22.7109C244.672 23.9531 243.539 24.9141 241.859 25.3438L240.922 23.8438ZM250.547 31.4688V17.2188H252.531V31.4688H250.547ZM265.925 18.4531V19.7969C265.917 21.5781 265.917 23.5781 265.347 26.5938L263.347 26.3906C263.894 23.7031 263.917 21.7031 263.925 20.0312H255.55V18.4531H265.925ZM254.206 29.7031V28.0781H258.847V23.1875H260.831V28.0781H267.175V29.7031H254.206ZM279.416 17.6562V18.5938C279.416 19.4531 279.416 20.6016 279.134 22.0156C279.603 21.9844 280.072 21.9453 280.525 21.9062L280.619 23.1562C279.369 23.3125 278.08 23.4141 276.806 23.4766V25.5H274.837V23.5547C273.681 23.5859 272.564 23.5938 271.525 23.5938L271.322 22.2031C273.111 22.2031 275.119 22.1953 277.127 22.1172C277.205 21.7578 277.259 21.4141 277.298 21.1016L272.4 21.3906L272.119 20L277.423 19.7969C277.431 19.5547 277.439 19.3203 277.439 19.0938H272.525V17.6562H279.416ZM273.353 27.2344V25.8906H283.369V29.2031H275.369V29.9531H283.697V31.3438H273.416V27.9219H281.384V27.2344H273.353ZM278.791 25.0156V23.7812H281.369V17.2344H283.369V25.4688H281.369V25.0156H278.791ZM296.872 17.2188V31.4688H294.888V17.2188H296.872ZM285.7 20.0156V18.4062H292.466V23.8906H287.778V26.5C289.95 26.4844 291.786 26.375 293.872 26.0312L294.044 27.6406C291.708 28.0547 289.591 28.1406 286.997 28.1406H285.716V22.3125H290.434V20.0156H285.7ZM306.594 18.3906V20.0156H301.328V22.3594H306V23.9219H301.328V26.6094C303.508 26.5938 305.242 26.5078 307.234 26.2031L307.422 27.8125C305.188 28.1406 303.148 28.2031 300.578 28.2031H299.359V18.3906H306.594ZM308.516 31.4375V17.2188H310.531V31.4375H308.516ZM327.678 17.2344V27.7188H325.694V22.5938H323.069V25.4688H316.303V18.1562H318.303V20.3438H321.1V18.1562H323.069V21H325.694V17.2344H327.678ZM318.209 31.1875V26.6719H320.225V29.5938H327.975V31.1875H318.209ZM318.303 23.9062H321.1V21.8594H318.303V23.9062ZM341.306 26.2656V31.4375H339.322V27.8281H331.541V26.2656H341.306ZM329.509 21.4531C329.494 19.4375 331.134 17.9688 333.291 17.9844C334.439 17.9766 335.447 18.4062 336.127 19.125H339.322V17.2188H341.306V25.625H339.322V23.8281H336.127C335.447 24.5625 334.439 24.9922 333.291 25C331.134 24.9922 329.494 23.5234 329.509 21.4531ZM331.4 21.4531C331.392 22.6172 332.181 23.2969 333.291 23.2969C334.337 23.2969 335.142 22.6172 335.15 21.4531C335.142 20.3438 334.337 19.6562 333.291 19.6562C332.181 19.6562 331.392 20.3438 331.4 21.4531ZM336.955 22.2344H339.322V20.7344H336.962C337.017 20.9609 337.041 21.2031 337.041 21.4531C337.041 21.7266 337.009 21.9844 336.955 22.2344Z" fill="#4A7FF7"/>
<defs>
<filter id="filter0_d_244_9252" x="15.0918" y="72" width="132.817" height="57.4082" filterUnits="userSpaceOnUse" color-interpolation-filters="sRGB">
<feFlood flood-opacity="0" result="BackgroundImageFix"/>
<feColorMatrix in="SourceAlpha" type="matrix" values="0 0 0 0 0 0 0 0 0 0 0 0 0 0 0 0 0 0 127 0" result="hardAlpha"/>
<feOffset dx="1" dy="1"/>
<feGaussianBlur stdDeviation="2.5"/>
<feComposite in2="hardAlpha" operator="out"/>
<feColorMatrix type="matrix" values="0 0 0 0 0 0 0 0 0 0 0 0 0 0 0 0 0 0 0.06 0"/>
<feBlend mode="normal" in2="BackgroundImageFix" result="effect1_dropShadow_244_9252"/>
<feBlend mode="normal" in="SourceGraphic" in2="effect1_dropShadow_244_9252" result="shape"/>
</filter>
<filter id="filter1_d_244_9252" x="244.592" y="125.408" width="75.8165" height="57.4082" filterUnits="userSpaceOnUse" color-interpolation-filters="sRGB">
<feFlood flood-opacity="0" result="BackgroundImageFix"/>
<feColorMatrix in="SourceAlpha" type="matrix" values="0 0 0 0 0 0 0 0 0 0 0 0 0 0 0 0 0 0 127 0" result="hardAlpha"/>
<feOffset dx="1" dy="1"/>
<feGaussianBlur stdDeviation="2.5"/>
<feComposite in2="hardAlpha" operator="out"/>
<feColorMatrix type="matrix" values="0 0 0 0 0 0 0 0 0 0 0 0 0 0 0 0 0 0 0.06 0"/>
<feBlend mode="normal" in2="BackgroundImageFix" result="effect1_dropShadow_244_9252"/>
<feBlend mode="normal" in="SourceGraphic" in2="effect1_dropShadow_244_9252" result="shape"/>
</filter>
<clipPath id="clip0_244_9252">
<rect width="451" height="100.816" fill="white" transform="translate(0 76)"/>
</clipPath>
<clipPath id="clip1_244_9252">
<rect x="324.408" y="132.153" width="52" height="41.9184" rx="5.95922" fill="white"/>
</clipPath>
</defs>
</svg>
